solid OpenSCAD_Model
  facet normal -1 0 0
    outer loop
      vertex -80.5 0 -1.0625
      vertex -80.5 -35.65 1.51096
      vertex -80.5 35.65 -3.5
    endloop
  endfacet
  facet normal -1 0 0
    outer loop
      vertex -80.5 35.65 -3.5
      vertex -80.5 -35.65 1.51096
      vertex -80.5 -35.4409 1.51096
    endloop
  endfacet
  facet normal -1 0 0
    outer loop
      vertex -80.5 35.65 -3.5
      vertex -80.5 -35.4409 1.51096
      vertex -80.5 35.4409 1.51096
    endloop
  endfacet
  facet normal -1 0 0
    outer loop
      vertex -80.5 35.65 -3.5
      vertex -80.5 35.4409 1.51096
      vertex -80.5 35.65 1.51096
    endloop
  endfacet
  facet normal -1 0 0
    outer loop
      vertex -80.5 -35.65 -3.5
      vertex -80.5 -35.65 1.51096
      vertex -80.5 0 -1.0625
    endloop
  endfacet
  facet normal -1 0 0
    outer loop
      vertex -80.5 3.2476 -2.46875
      vertex -80.5 0 -1.0625
      vertex -80.5 35.65 -3.5
    endloop
  endfacet
  facet normal -1 0 0
    outer loop
      vertex -80.5 -35.65 -3.5
      vertex -80.5 0 -1.0625
      vertex -80.5 -3.2476 -2.46875
    endloop
  endfacet
  facet normal -1 0 0
    outer loop
      vertex -80.5 -35.65 -3.5
      vertex -80.5 -3.2476 -2.46875
      vertex -80.5 35.65 -3.5
    endloop
  endfacet
  facet normal -1 0 0
    outer loop
      vertex -80.5 -3.2476 -2.46875
      vertex -80.5 3.2476 -2.46875
      vertex -80.5 35.65 -3.5
    endloop
  endfacet
  facet normal 0 -1 0
    outer loop
      vertex -80.5 -35.65 1.51096
      vertex -80.5 -35.65 -3.5
      vertex -7.5 -35.65 -3.5
    endloop
  endfacet
  facet normal 0 -1 0
    outer loop
      vertex 7.5 -35.65 -1
      vertex -80.5 -35.65 1.51096
      vertex -7.5 -35.65 -1
    endloop
  endfacet
  facet normal 0 -1 0
    outer loop
      vertex -7.5 -35.65 -1
      vertex -80.5 -35.65 1.51096
      vertex -7.5 -35.65 -3.5
    endloop
  endfacet
  facet normal 0 -1 0
    outer loop
      vertex 80.5 -35.65 1.51096
      vertex -80.5 -35.65 1.51096
      vertex 7.5 -35.65 -1
    endloop
  endfacet
  facet normal 0 -1 0
    outer loop
      vertex 80.5 -35.65 -3.5
      vertex 7.5 -35.65 -1
      vertex 7.5 -35.65 -3.5
    endloop
  endfacet
  facet normal 0 -1 0
    outer loop
      vertex 80.5 -35.65 1.51096
      vertex 7.5 -35.65 -1
      vertex 80.5 -35.65 -3.5
    endloop
  endfacet
  facet normal 0 -1 0
    outer loop
      vertex 80.2909 -35.65 1.51096
      vertex -80.5 -35.65 1.51096
      vertex 80.5 -35.65 1.51096
    endloop
  endfacet
  facet normal 0 0 -1
    outer loop
      vertex -80.5 -35.65 -3.5
      vertex -80.5 35.65 -3.5
      vertex -7.5 -35.65 -3.5
    endloop
  endfacet
  facet normal 0 0 -1
    outer loop
      vertex -7.5 -35.65 -3.5
      vertex -80.5 35.65 -3.5
      vertex 80.5 35.65 -3.5
    endloop
  endfacet
  facet normal 0 0 -1
    outer loop
      vertex 7.5 -35.65 -3.5
      vertex 80.5 35.65 -3.5
      vertex 80.5 -35.65 -3.5
    endloop
  endfacet
  facet normal 0 0 -1
    outer loop
      vertex -7.5 -35.65 -3.5
      vertex 80.5 35.65 -3.5
      vertex 7.5 -35.65 -3.5
    endloop
  endfacet
  facet normal 0 0 -1
    outer loop
      vertex -2.31763 -49.9158 -3.5
      vertex 0.783963 -50.5678 -3.5
      vertex -0.783963 -50.5678 -3.5
    endloop
  endfacet
  facet normal 0 0 -1
    outer loop
      vertex 7.5 -35.65 -3.5
      vertex 7.33611 -38.7687 -3.5
      vertex -7.5 -35.65 -3.5
    endloop
  endfacet
  facet normal 0 0 -1
    outer loop
      vertex -1.5 -43.15 -3.5
      vertex -6.85159 -41.751 -3.5
      vertex -1.46722 -42.8381 -3.5
    endloop
  endfacet
  facet normal 0 0 -1
    outer loop
      vertex -6.85159 -41.751 -3.5
      vertex -1.5 -43.15 -3.5
      vertex -1.46722 -43.4619 -3.5
    endloop
  endfacet
  facet normal 0 0 -1
    outer loop
      vertex -6.06763 -44.4668 -3.5
      vertex 5.01848 -46.7972 -3.5
      vertex -5.01848 -46.7972 -3.5
    endloop
  endfacet
  facet normal 0 0 -1
    outer loop
      vertex -5.01848 -46.7972 -3.5
      vertex 3.75 -48.6404 -3.5
      vertex -3.75 -48.6404 -3.5
    endloop
  endfacet
  facet normal 0 0 -1
    outer loop
      vertex -3.75 -48.6404 -3.5
      vertex 2.31763 -49.9158 -3.5
      vertex -2.31763 -49.9158 -3.5
    endloop
  endfacet
  facet normal 0 0 -1
    outer loop
      vertex 2.31763 -49.9158 -3.5
      vertex 0.783963 -50.5678 -3.5
      vertex -2.31763 -49.9158 -3.5
    endloop
  endfacet
  facet normal 0 0 -1
    outer loop
      vertex 3.75 -48.6404 -3.5
      vertex 2.31763 -49.9158 -3.5
      vertex -3.75 -48.6404 -3.5
    endloop
  endfacet
  facet normal 0 0 -1
    outer loop
      vertex 5.01848 -46.7972 -3.5
      vertex 3.75 -48.6404 -3.5
      vertex -5.01848 -46.7972 -3.5
    endloop
  endfacet
  facet normal 0 0 -1
    outer loop
      vertex -0.463525 -44.5766 -3.5
      vertex 5.01848 -46.7972 -3.5
      vertex -6.06763 -44.4668 -3.5
    endloop
  endfacet
  facet normal 0 0 -1
    outer loop
      vertex -7.33611 -38.7687 -3.5
      vertex -0.463525 -41.7234 -3.5
      vertex -6.85159 -41.751 -3.5
    endloop
  endfacet
  facet normal 0 0 -1
    outer loop
      vertex 7.33611 -38.7687 -3.5
      vertex 6.85159 -41.751 -3.5
      vertex -7.33611 -38.7687 -3.5
    endloop
  endfacet
  facet normal 0 0 -1
    outer loop
      vertex -0.463525 -44.5766 -3.5
      vertex -6.06763 -44.4668 -3.5
      vertex -0.75 -44.449 -3.5
    endloop
  endfacet
  facet normal 0 0 -1
    outer loop
      vertex -7.33611 -38.7687 -3.5
      vertex 6.85159 -41.751 -3.5
      vertex 0.156793 -41.6582 -3.5
    endloop
  endfacet
  facet normal 0 0 -1
    outer loop
      vertex 1.46722 -43.4619 -3.5
      vertex 6.06763 -44.4668 -3.5
      vertex 1.37032 -43.7601 -3.5
    endloop
  endfacet
  facet normal 0 0 -1
    outer loop
      vertex -7.33611 -38.7687 -3.5
      vertex 0.156793 -41.6582 -3.5
      vertex -0.156793 -41.6582 -3.5
    endloop
  endfacet
  facet normal 0 0 -1
    outer loop
      vertex -1.21352 -44.0317 -3.5
      vertex -6.06763 -44.4668 -3.5
      vertex -1.37032 -43.7601 -3.5
    endloop
  endfacet
  facet normal 0 0 -1
    outer loop
      vertex -7.33611 -38.7687 -3.5
      vertex -0.156793 -41.6582 -3.5
      vertex -0.463525 -41.7234 -3.5
    endloop
  endfacet
  facet normal 0 0 -1
    outer loop
      vertex -1.0037 -44.2647 -3.5
      vertex -6.06763 -44.4668 -3.5
      vertex -1.21352 -44.0317 -3.5
    endloop
  endfacet
  facet normal 0 0 -1
    outer loop
      vertex -0.75 -44.449 -3.5
      vertex -6.06763 -44.4668 -3.5
      vertex -1.0037 -44.2647 -3.5
    endloop
  endfacet
  facet normal 0 0 -1
    outer loop
      vertex -0.156793 -44.6418 -3.5
      vertex 5.01848 -46.7972 -3.5
      vertex -0.463525 -44.5766 -3.5
    endloop
  endfacet
  facet normal 0 0 -1
    outer loop
      vertex 0.463525 -44.5766 -3.5
      vertex 6.06763 -44.4668 -3.5
      vertex 0.156793 -44.6418 -3.5
    endloop
  endfacet
  facet normal 0 0 -1
    outer loop
      vertex 0.156793 -44.6418 -3.5
      vertex 5.01848 -46.7972 -3.5
      vertex -0.156793 -44.6418 -3.5
    endloop
  endfacet
  facet normal 0 0 -1
    outer loop
      vertex 6.06763 -44.4668 -3.5
      vertex 5.01848 -46.7972 -3.5
      vertex 0.156793 -44.6418 -3.5
    endloop
  endfacet
  facet normal 0 0 -1
    outer loop
      vertex 0.75 -44.449 -3.5
      vertex 6.06763 -44.4668 -3.5
      vertex 0.463525 -44.5766 -3.5
    endloop
  endfacet
  facet normal 0 0 -1
    outer loop
      vertex 1.0037 -44.2647 -3.5
      vertex 6.06763 -44.4668 -3.5
      vertex 0.75 -44.449 -3.5
    endloop
  endfacet
  facet normal 0 0 -1
    outer loop
      vertex 1.21352 -44.0317 -3.5
      vertex 6.06763 -44.4668 -3.5
      vertex 1.0037 -44.2647 -3.5
    endloop
  endfacet
  facet normal 0 0 -1
    outer loop
      vertex 1.37032 -43.7601 -3.5
      vertex 6.06763 -44.4668 -3.5
      vertex 1.21352 -44.0317 -3.5
    endloop
  endfacet
  facet normal 0 0 -1
    outer loop
      vertex 6.85159 -41.751 -3.5
      vertex 6.06763 -44.4668 -3.5
      vertex 1.46722 -43.4619 -3.5
    endloop
  endfacet
  facet normal 0 0 -1
    outer loop
      vertex 6.85159 -41.751 -3.5
      vertex 1.46722 -43.4619 -3.5
      vertex 1.5 -43.15 -3.5
    endloop
  endfacet
  facet normal 0 0 -1
    outer loop
      vertex 6.85159 -41.751 -3.5
      vertex 1.5 -43.15 -3.5
      vertex 1.46722 -42.8381 -3.5
    endloop
  endfacet
  facet normal 0 0 -1
    outer loop
      vertex 6.85159 -41.751 -3.5
      vertex 1.46722 -42.8381 -3.5
      vertex 1.37032 -42.5399 -3.5
    endloop
  endfacet
  facet normal 0 0 -1
    outer loop
      vertex 6.85159 -41.751 -3.5
      vertex 1.37032 -42.5399 -3.5
      vertex 1.21352 -42.2683 -3.5
    endloop
  endfacet
  facet normal 0 0 -1
    outer loop
      vertex 6.85159 -41.751 -3.5
      vertex 1.21352 -42.2683 -3.5
      vertex 1.0037 -42.0353 -3.5
    endloop
  endfacet
  facet normal 0 0 -1
    outer loop
      vertex 6.85159 -41.751 -3.5
      vertex 1.0037 -42.0353 -3.5
      vertex 0.75 -41.851 -3.5
    endloop
  endfacet
  facet normal 0 0 -1
    outer loop
      vertex -0.75 -41.851 -3.5
      vertex -6.85159 -41.751 -3.5
      vertex -0.463525 -41.7234 -3.5
    endloop
  endfacet
  facet normal 0 0 -1
    outer loop
      vertex 6.85159 -41.751 -3.5
      vertex 0.463525 -41.7234 -3.5
      vertex 0.156793 -41.6582 -3.5
    endloop
  endfacet
  facet normal 0 0 -1
    outer loop
      vertex 0.463525 -41.7234 -3.5
      vertex 6.85159 -41.751 -3.5
      vertex 0.75 -41.851 -3.5
    endloop
  endfacet
  facet normal 0 0 -1
    outer loop
      vertex -1.0037 -42.0353 -3.5
      vertex -6.85159 -41.751 -3.5
      vertex -0.75 -41.851 -3.5
    endloop
  endfacet
  facet normal 0 0 -1
    outer loop
      vertex -1.21352 -42.2683 -3.5
      vertex -6.85159 -41.751 -3.5
      vertex -1.0037 -42.0353 -3.5
    endloop
  endfacet
  facet normal 0 0 -1
    outer loop
      vertex -1.37032 -42.5399 -3.5
      vertex -6.85159 -41.751 -3.5
      vertex -1.21352 -42.2683 -3.5
    endloop
  endfacet
  facet normal 0 0 -1
    outer loop
      vertex -1.46722 -42.8381 -3.5
      vertex -6.85159 -41.751 -3.5
      vertex -1.37032 -42.5399 -3.5
    endloop
  endfacet
  facet normal 0 0 -1
    outer loop
      vertex -7.5 -35.65 -3.5
      vertex 7.33611 -38.7687 -3.5
      vertex -7.33611 -38.7687 -3.5
    endloop
  endfacet
  facet normal 0 0 -1
    outer loop
      vertex -6.85159 -41.751 -3.5
      vertex -1.46722 -43.4619 -3.5
      vertex -1.37032 -43.7601 -3.5
    endloop
  endfacet
  facet normal 0 0 -1
    outer loop
      vertex -6.85159 -41.751 -3.5
      vertex -1.37032 -43.7601 -3.5
      vertex -6.06763 -44.4668 -3.5
    endloop
  endfacet
  facet normal 0 1 0
    outer loop
      vertex 4.62223e-32 35.65 -1.0625
      vertex -80.5 35.65 1.51096
      vertex 80.5 35.65 -3.5
    endloop
  endfacet
  facet normal 0 1 0
    outer loop
      vertex 80.5 35.65 -3.5
      vertex -80.5 35.65 1.51096
      vertex 80.2909 35.65 1.51096
    endloop
  endfacet
  facet normal 0 1 0
    outer loop
      vertex 80.5 35.65 -3.5
      vertex 80.2909 35.65 1.51096
      vertex 80.5 35.65 1.51096
    endloop
  endfacet
  facet normal 0 1 0
    outer loop
      vertex -80.5 35.65 -3.5
      vertex -80.5 35.65 1.51096
      vertex 4.62223e-32 35.65 -1.0625
    endloop
  endfacet
  facet normal 0 1 0
    outer loop
      vertex 3.2476 35.65 -2.46875
      vertex 4.62223e-32 35.65 -1.0625
      vertex 80.5 35.65 -3.5
    endloop
  endfacet
  facet normal 0 1 0
    outer loop
      vertex -80.5 35.65 -3.5
      vertex 4.62223e-32 35.65 -1.0625
      vertex -3.2476 35.65 -2.46875
    endloop
  endfacet
  facet normal 0 1 0
    outer loop
      vertex -80.5 35.65 -3.5
      vertex -3.2476 35.65 -2.46875
      vertex 80.5 35.65 -3.5
    endloop
  endfacet
  facet normal 0 1 0
    outer loop
      vertex -3.2476 35.65 -2.46875
      vertex 3.2476 35.65 -2.46875
      vertex 80.5 35.65 -3.5
    endloop
  endfacet
  facet normal -2.22045e-16 4.93038e-32 1
    outer loop
      vertex 80.2909 35.4409 1.51096
      vertex 80.2909 35.65 1.51096
      vertex -80.5 35.65 1.51096
    endloop
  endfacet
  facet normal -2.22045e-16 4.93038e-32 1
    outer loop
      vertex -80.5 35.4409 1.51096
      vertex 80.2909 35.4409 1.51096
      vertex -80.5 35.65 1.51096
    endloop
  endfacet
  facet normal -1.71027e-16 0.207912 0.978147
    outer loop
      vertex -80.2909 35.4409 1.51096
      vertex -79.882 35.032 1.59789
      vertex 79.882 35.032 1.59789
    endloop
  endfacet
  facet normal -1.71027e-16 0.207912 0.978147
    outer loop
      vertex 80.2909 35.4409 1.51096
      vertex -80.2909 35.4409 1.51096
      vertex 79.882 35.032 1.59789
    endloop
  endfacet
  facet normal -1.71027e-16 0.207912 0.978147
    outer loop
      vertex -80.5 35.4409 1.51096
      vertex -80.2909 35.4409 1.51096
      vertex 80.2909 35.4409 1.51096
    endloop
  endfacet
  facet normal 0 2.22045e-16 1
    outer loop
      vertex -80.2909 -35.4409 1.51096
      vertex -80.2909 35.4409 1.51096
      vertex -80.5 35.4409 1.51096
    endloop
  endfacet
  facet normal 0 2.22045e-16 1
    outer loop
      vertex -80.5 -35.4409 1.51096
      vertex -80.2909 -35.4409 1.51096
      vertex -80.5 35.4409 1.51096
    endloop
  endfacet
  facet normal -2.63358e-16 -0.207912 0.978147
    outer loop
      vertex 80.2909 -35.4409 1.51096
      vertex 79.882 -35.032 1.59789
      vertex -79.882 -35.032 1.59789
    endloop
  endfacet
  facet normal -2.63358e-16 -0.207912 0.978147
    outer loop
      vertex 80.2909 -35.4409 1.51096
      vertex -80.2909 -35.4409 1.51096
      vertex -80.5 -35.4409 1.51096
    endloop
  endfacet
  facet normal -2.63358e-16 -0.207912 0.978147
    outer loop
      vertex 80.2909 -35.4409 1.51096
      vertex -79.882 -35.032 1.59789
      vertex -80.2909 -35.4409 1.51096
    endloop
  endfacet
  facet normal -2.22045e-16 4.93038e-32 1
    outer loop
      vertex 80.2909 -35.65 1.51096
      vertex 80.2909 -35.4409 1.51096
      vertex -80.5 -35.4409 1.51096
    endloop
  endfacet
  facet normal -2.22045e-16 4.93038e-32 1
    outer loop
      vertex -80.5 -35.65 1.51096
      vertex 80.2909 -35.65 1.51096
      vertex -80.5 -35.4409 1.51096
    endloop
  endfacet
  facet normal 2.03762e-16 -0.39736 -0.917663
    outer loop
      vertex -75.5 3.2476 -2.46875
      vertex -75.5 0 -1.0625
      vertex -80.5 3.2476 -2.46875
    endloop
  endfacet
  facet normal 2.03762e-16 -0.39736 -0.917663
    outer loop
      vertex -80.5 3.2476 -2.46875
      vertex -75.5 0 -1.0625
      vertex -80.5 0 -1.0625
    endloop
  endfacet
  facet normal 2.03762e-16 0.39736 -0.917663
    outer loop
      vertex -75.5 0 -1.0625
      vertex -75.5 -3.2476 -2.46875
      vertex -80.5 0 -1.0625
    endloop
  endfacet
  facet normal 2.03762e-16 0.39736 -0.917663
    outer loop
      vertex -80.5 0 -1.0625
      vertex -75.5 -3.2476 -2.46875
      vertex -80.5 -3.2476 -2.46875
    endloop
  endfacet
  facet normal -2.22045e-16 0 1
    outer loop
      vertex -75.5 -3.2476 -2.46875
      vertex -75.5 3.2476 -2.46875
      vertex -80.5 3.2476 -2.46875
    endloop
  endfacet
  facet normal -2.22045e-16 0 1
    outer loop
      vertex -80.5 -3.2476 -2.46875
      vertex -75.5 -3.2476 -2.46875
      vertex -80.5 3.2476 -2.46875
    endloop
  endfacet
  facet normal 0.207912 2.17192e-16 0.978147
    outer loop
      vertex 80.2909 35.65 1.51096
      vertex 80.2909 -35.4409 1.51096
      vertex 80.2909 -35.65 1.51096
    endloop
  endfacet
  facet normal 0.207912 2.17192e-16 0.978147
    outer loop
      vertex 79.882 -35.032 1.59789
      vertex 80.2909 35.4409 1.51096
      vertex 79.882 35.032 1.59789
    endloop
  endfacet
  facet normal 0.207912 2.17192e-16 0.978147
    outer loop
      vertex 80.2909 35.4409 1.51096
      vertex 80.2909 -35.4409 1.51096
      vertex 80.2909 35.65 1.51096
    endloop
  endfacet
  facet normal 0.207912 2.17192e-16 0.978147
    outer loop
      vertex 79.882 -35.032 1.59789
      vertex 80.2909 -35.4409 1.51096
      vertex 80.2909 35.4409 1.51096
    endloop
  endfacet
  facet normal 0 2.22045e-16 1
    outer loop
      vertex 80.5 -35.65 1.51096
      vertex 80.5 35.65 1.51096
      vertex 80.2909 35.65 1.51096
    endloop
  endfacet
  facet normal 0 2.22045e-16 1
    outer loop
      vertex 80.2909 -35.65 1.51096
      vertex 80.5 -35.65 1.51096
      vertex 80.2909 35.65 1.51096
    endloop
  endfacet
  facet normal 1 0 0
    outer loop
      vertex 80.5 -3.2476 -2.46875
      vertex 80.5 -35.65 -3.5
      vertex 80.5 35.65 -3.5
    endloop
  endfacet
  facet normal 1 0 0
    outer loop
      vertex 80.5 35.65 1.51096
      vertex 80.5 -35.65 1.51096
      vertex 80.5 35.65 -3.5
    endloop
  endfacet
  facet normal 1 0 0
    outer loop
      vertex 80.5 3.2476 -2.46875
      vertex 80.5 -3.2476 -2.46875
      vertex 80.5 35.65 -3.5
    endloop
  endfacet
  facet normal 1 0 0
    outer loop
      vertex 80.5 -35.65 1.51096
      vertex 80.5 -35.65 -3.5
      vertex 80.5 -3.2476 -2.46875
    endloop
  endfacet
  facet normal 1 0 0
    outer loop
      vertex 80.5 -35.65 1.51096
      vertex 80.5 0 -1.0625
      vertex 80.5 35.65 -3.5
    endloop
  endfacet
  facet normal 1 0 0
    outer loop
      vertex 80.5 -35.65 1.51096
      vertex 80.5 -3.2476 -2.46875
      vertex 80.5 0 -1.0625
    endloop
  endfacet
  facet normal 1 0 0
    outer loop
      vertex 80.5 0 -1.0625
      vertex 80.5 3.2476 -2.46875
      vertex 80.5 35.65 -3.5
    endloop
  endfacet
  facet normal 0.998622 -0.0524797 0
    outer loop
      vertex 7.33611 -38.7687 -1
      vertex 7.33611 -38.7687 -3.5
      vertex 7.5 -35.65 -3.5
    endloop
  endfacet
  facet normal 0.998622 -0.0524797 0
    outer loop
      vertex 7.5 -35.65 -1
      vertex 7.33611 -38.7687 -1
      vertex 7.5 -35.65 -3.5
    endloop
  endfacet
  facet normal 0 0 1
    outer loop
      vertex 7.5 -35.65 -1
      vertex -7.5 -35.65 -1
      vertex -7.33611 -38.7687 -1
    endloop
  endfacet
  facet normal 0 0 1
    outer loop
      vertex -6.06763 -44.4668 -1
      vertex 7.5 -35.65 -1
      vertex -6.85159 -41.751 -1
    endloop
  endfacet
  facet normal 0 0 1
    outer loop
      vertex -6.85159 -41.751 -1
      vertex 7.5 -35.65 -1
      vertex -7.33611 -38.7687 -1
    endloop
  endfacet
  facet normal 0 0 1
    outer loop
      vertex -1.0037 -42.0353 -1
      vertex 7.5 -35.65 -1
      vertex -6.06763 -44.4668 -1
    endloop
  endfacet
  facet normal 0 0 1
    outer loop
      vertex -0.75 -41.851 -1
      vertex -0.463525 -41.7234 -1
      vertex 7.5 -35.65 -1
    endloop
  endfacet
  facet normal 0 0 1
    outer loop
      vertex 1.21352 -44.0317 -1
      vertex 1.0037 -44.2647 -1
      vertex -2.31763 -49.9158 -1
    endloop
  endfacet
  facet normal 0 0 1
    outer loop
      vertex -0.783963 -50.5678 -1
      vertex 7.5 -35.65 -1
      vertex -2.31763 -49.9158 -1
    endloop
  endfacet
  facet normal 0 0 1
    outer loop
      vertex 0.783963 -50.5678 -1
      vertex 7.5 -35.65 -1
      vertex -0.783963 -50.5678 -1
    endloop
  endfacet
  facet normal 0 0 1
    outer loop
      vertex 2.31763 -49.9158 -1
      vertex 7.5 -35.65 -1
      vertex 0.783963 -50.5678 -1
    endloop
  endfacet
  facet normal 0 0 1
    outer loop
      vertex 3.75 -48.6404 -1
      vertex 7.5 -35.65 -1
      vertex 2.31763 -49.9158 -1
    endloop
  endfacet
  facet normal 0 0 1
    outer loop
      vertex 5.01848 -46.7972 -1
      vertex 7.5 -35.65 -1
      vertex 3.75 -48.6404 -1
    endloop
  endfacet
  facet normal 0 0 1
    outer loop
      vertex 6.06763 -44.4668 -1
      vertex 7.5 -35.65 -1
      vertex 5.01848 -46.7972 -1
    endloop
  endfacet
  facet normal 0 0 1
    outer loop
      vertex 6.85159 -41.751 -1
      vertex 7.5 -35.65 -1
      vertex 6.06763 -44.4668 -1
    endloop
  endfacet
  facet normal 0 0 1
    outer loop
      vertex 7.33611 -38.7687 -1
      vertex 7.5 -35.65 -1
      vertex 6.85159 -41.751 -1
    endloop
  endfacet
  facet normal 0 0 1
    outer loop
      vertex -5.01848 -46.7972 -1
      vertex -1.46722 -43.4619 -1
      vertex -6.06763 -44.4668 -1
    endloop
  endfacet
  facet normal 0 0 1
    outer loop
      vertex -1.46722 -43.4619 -1
      vertex -1.5 -43.15 -1
      vertex -6.06763 -44.4668 -1
    endloop
  endfacet
  facet normal 0 0 1
    outer loop
      vertex -1.5 -43.15 -1
      vertex -1.46722 -42.8381 -1
      vertex -6.06763 -44.4668 -1
    endloop
  endfacet
  facet normal 0 0 1
    outer loop
      vertex -1.46722 -42.8381 -1
      vertex -1.37032 -42.5399 -1
      vertex -6.06763 -44.4668 -1
    endloop
  endfacet
  facet normal 0 0 1
    outer loop
      vertex -1.37032 -42.5399 -1
      vertex -1.21352 -42.2683 -1
      vertex -6.06763 -44.4668 -1
    endloop
  endfacet
  facet normal 0 0 1
    outer loop
      vertex -1.21352 -42.2683 -1
      vertex -1.0037 -42.0353 -1
      vertex -6.06763 -44.4668 -1
    endloop
  endfacet
  facet normal 0 0 1
    outer loop
      vertex -0.75 -41.851 -1
      vertex 7.5 -35.65 -1
      vertex -1.0037 -42.0353 -1
    endloop
  endfacet
  facet normal 0 0 1
    outer loop
      vertex -0.463525 -41.7234 -1
      vertex -0.156793 -41.6582 -1
      vertex 7.5 -35.65 -1
    endloop
  endfacet
  facet normal 0 0 1
    outer loop
      vertex -0.156793 -41.6582 -1
      vertex 0.156793 -41.6582 -1
      vertex 7.5 -35.65 -1
    endloop
  endfacet
  facet normal 0 0 1
    outer loop
      vertex 0.156793 -41.6582 -1
      vertex 0.463525 -41.7234 -1
      vertex 7.5 -35.65 -1
    endloop
  endfacet
  facet normal 0 0 1
    outer loop
      vertex 0.463525 -41.7234 -1
      vertex 0.75 -41.851 -1
      vertex 7.5 -35.65 -1
    endloop
  endfacet
  facet normal 0 0 1
    outer loop
      vertex 1.37032 -42.5399 -1
      vertex 1.46722 -42.8381 -1
      vertex 7.5 -35.65 -1
    endloop
  endfacet
  facet normal 0 0 1
    outer loop
      vertex 1.0037 -42.0353 -1
      vertex 7.5 -35.65 -1
      vertex 0.75 -41.851 -1
    endloop
  endfacet
  facet normal 0 0 1
    outer loop
      vertex 1.21352 -42.2683 -1
      vertex 7.5 -35.65 -1
      vertex 1.0037 -42.0353 -1
    endloop
  endfacet
  facet normal 0 0 1
    outer loop
      vertex -0.75 -44.449 -1
      vertex -1.0037 -44.2647 -1
      vertex -3.75 -48.6404 -1
    endloop
  endfacet
  facet normal 0 0 1
    outer loop
      vertex 1.37032 -42.5399 -1
      vertex 7.5 -35.65 -1
      vertex 1.21352 -42.2683 -1
    endloop
  endfacet
  facet normal 0 0 1
    outer loop
      vertex 1.0037 -44.2647 -1
      vertex 0.75 -44.449 -1
      vertex -2.31763 -49.9158 -1
    endloop
  endfacet
  facet normal 0 0 1
    outer loop
      vertex -0.156793 -44.6418 -1
      vertex -0.463525 -44.5766 -1
      vertex -3.75 -48.6404 -1
    endloop
  endfacet
  facet normal 0 0 1
    outer loop
      vertex 1.5 -43.15 -1
      vertex 7.5 -35.65 -1
      vertex 1.46722 -42.8381 -1
    endloop
  endfacet
  facet normal 0 0 1
    outer loop
      vertex 1.46722 -43.4619 -1
      vertex 7.5 -35.65 -1
      vertex 1.5 -43.15 -1
    endloop
  endfacet
  facet normal 0 0 1
    outer loop
      vertex 0.75 -44.449 -1
      vertex 0.463525 -44.5766 -1
      vertex -2.31763 -49.9158 -1
    endloop
  endfacet
  facet normal 0 0 1
    outer loop
      vertex 1.37032 -43.7601 -1
      vertex 7.5 -35.65 -1
      vertex 1.46722 -43.4619 -1
    endloop
  endfacet
  facet normal 0 0 1
    outer loop
      vertex 1.21352 -44.0317 -1
      vertex 7.5 -35.65 -1
      vertex 1.37032 -43.7601 -1
    endloop
  endfacet
  facet normal 0 0 1
    outer loop
      vertex -2.31763 -49.9158 -1
      vertex 7.5 -35.65 -1
      vertex 1.21352 -44.0317 -1
    endloop
  endfacet
  facet normal 0 0 1
    outer loop
      vertex -0.463525 -44.5766 -1
      vertex -0.75 -44.449 -1
      vertex -3.75 -48.6404 -1
    endloop
  endfacet
  facet normal 0 0 1
    outer loop
      vertex 0.156793 -44.6418 -1
      vertex -0.156793 -44.6418 -1
      vertex -3.75 -48.6404 -1
    endloop
  endfacet
  facet normal 0 0 1
    outer loop
      vertex -2.31763 -49.9158 -1
      vertex 0.463525 -44.5766 -1
      vertex -3.75 -48.6404 -1
    endloop
  endfacet
  facet normal 0 0 1
    outer loop
      vertex 0.463525 -44.5766 -1
      vertex 0.156793 -44.6418 -1
      vertex -3.75 -48.6404 -1
    endloop
  endfacet
  facet normal 0 0 1
    outer loop
      vertex -3.75 -48.6404 -1
      vertex -1.0037 -44.2647 -1
      vertex -5.01848 -46.7972 -1
    endloop
  endfacet
  facet normal 0 0 1
    outer loop
      vertex -1.0037 -44.2647 -1
      vertex -1.21352 -44.0317 -1
      vertex -5.01848 -46.7972 -1
    endloop
  endfacet
  facet normal 0 0 1
    outer loop
      vertex -1.21352 -44.0317 -1
      vertex -1.37032 -43.7601 -1
      vertex -5.01848 -46.7972 -1
    endloop
  endfacet
  facet normal 0 0 1
    outer loop
      vertex -1.37032 -43.7601 -1
      vertex -1.46722 -43.4619 -1
      vertex -5.01848 -46.7972 -1
    endloop
  endfacet
  facet normal -0.998622 -0.0524797 0
    outer loop
      vertex -7.5 -35.65 -3.5
      vertex -7.33611 -38.7687 -3.5
      vertex -7.5 -35.65 -1
    endloop
  endfacet
  facet normal -0.998622 -0.0524797 0
    outer loop
      vertex -7.5 -35.65 -1
      vertex -7.33611 -38.7687 -3.5
      vertex -7.33611 -38.7687 -1
    endloop
  endfacet
  facet normal -0.987059 -0.160357 0
    outer loop
      vertex -7.33611 -38.7687 -3.5
      vertex -6.85159 -41.751 -3.5
      vertex -7.33611 -38.7687 -1
    endloop
  endfacet
  facet normal -0.987059 -0.160357 0
    outer loop
      vertex -7.33611 -38.7687 -1
      vertex -6.85159 -41.751 -3.5
      vertex -6.85159 -41.751 -1
    endloop
  endfacet
  facet normal -0.960769 -0.27735 0
    outer loop
      vertex -6.85159 -41.751 -3.5
      vertex -6.06763 -44.4668 -3.5
      vertex -6.85159 -41.751 -1
    endloop
  endfacet
  facet normal -0.960769 -0.27735 0
    outer loop
      vertex -6.85159 -41.751 -1
      vertex -6.06763 -44.4668 -3.5
      vertex -6.06763 -44.4668 -1
    endloop
  endfacet
  facet normal -0.911853 -0.410518 0
    outer loop
      vertex -6.06763 -44.4668 -3.5
      vertex -5.01848 -46.7972 -3.5
      vertex -6.06763 -44.4668 -1
    endloop
  endfacet
  facet normal -0.911853 -0.410518 0
    outer loop
      vertex -6.06763 -44.4668 -1
      vertex -5.01848 -46.7972 -3.5
      vertex -5.01848 -46.7972 -1
    endloop
  endfacet
  facet normal -0.823776 -0.566915 0
    outer loop
      vertex -5.01848 -46.7972 -3.5
      vertex -3.75 -48.6404 -3.5
      vertex -5.01848 -46.7972 -1
    endloop
  endfacet
  facet normal -0.823776 -0.566915 0
    outer loop
      vertex -5.01848 -46.7972 -1
      vertex -3.75 -48.6404 -3.5
      vertex -3.75 -48.6404 -1
    endloop
  endfacet
  facet normal -0.665018 -0.746828 0
    outer loop
      vertex -3.75 -48.6404 -1
      vertex -3.75 -48.6404 -3.5
      vertex -2.31763 -49.9158 -3.5
    endloop
  endfacet
  facet normal -0.665018 -0.746828 0
    outer loop
      vertex -2.31763 -49.9158 -1
      vertex -3.75 -48.6404 -1
      vertex -2.31763 -49.9158 -3.5
    endloop
  endfacet
  facet normal -0.391228 -0.920294 0
    outer loop
      vertex -2.31763 -49.9158 -1
      vertex -2.31763 -49.9158 -3.5
      vertex -0.783963 -50.5678 -3.5
    endloop
  endfacet
  facet normal -0.391228 -0.920294 0
    outer loop
      vertex -0.783963 -50.5678 -1
      vertex -2.31763 -49.9158 -1
      vertex -0.783963 -50.5678 -3.5
    endloop
  endfacet
  facet normal 0 -1 0
    outer loop
      vertex -0.783963 -50.5678 -1
      vertex -0.783963 -50.5678 -3.5
      vertex 0.783963 -50.5678 -3.5
    endloop
  endfacet
  facet normal 0 -1 0
    outer loop
      vertex 0.783963 -50.5678 -1
      vertex -0.783963 -50.5678 -1
      vertex 0.783963 -50.5678 -3.5
    endloop
  endfacet
  facet normal 0.391228 -0.920294 0
    outer loop
      vertex 0.783963 -50.5678 -1
      vertex 0.783963 -50.5678 -3.5
      vertex 2.31763 -49.9158 -3.5
    endloop
  endfacet
  facet normal 0.391228 -0.920294 0
    outer loop
      vertex 2.31763 -49.9158 -1
      vertex 0.783963 -50.5678 -1
      vertex 2.31763 -49.9158 -3.5
    endloop
  endfacet
  facet normal 0.665018 -0.746828 0
    outer loop
      vertex 2.31763 -49.9158 -1
      vertex 2.31763 -49.9158 -3.5
      vertex 3.75 -48.6404 -3.5
    endloop
  endfacet
  facet normal 0.665018 -0.746828 0
    outer loop
      vertex 3.75 -48.6404 -1
      vertex 2.31763 -49.9158 -1
      vertex 3.75 -48.6404 -3.5
    endloop
  endfacet
  facet normal 0.823776 -0.566915 0
    outer loop
      vertex 3.75 -48.6404 -1
      vertex 3.75 -48.6404 -3.5
      vertex 5.01848 -46.7972 -3.5
    endloop
  endfacet
  facet normal 0.823776 -0.566915 0
    outer loop
      vertex 5.01848 -46.7972 -1
      vertex 3.75 -48.6404 -1
      vertex 5.01848 -46.7972 -3.5
    endloop
  endfacet
  facet normal 0.911853 -0.410518 0
    outer loop
      vertex 5.01848 -46.7972 -1
      vertex 5.01848 -46.7972 -3.5
      vertex 6.06763 -44.4668 -3.5
    endloop
  endfacet
  facet normal 0.911853 -0.410518 0
    outer loop
      vertex 6.06763 -44.4668 -1
      vertex 5.01848 -46.7972 -1
      vertex 6.06763 -44.4668 -3.5
    endloop
  endfacet
  facet normal 0.960769 -0.27735 0
    outer loop
      vertex 6.06763 -44.4668 -1
      vertex 6.06763 -44.4668 -3.5
      vertex 6.85159 -41.751 -3.5
    endloop
  endfacet
  facet normal 0.960769 -0.27735 0
    outer loop
      vertex 6.85159 -41.751 -1
      vertex 6.06763 -44.4668 -1
      vertex 6.85159 -41.751 -3.5
    endloop
  endfacet
  facet normal 0.987059 -0.160357 0
    outer loop
      vertex 6.85159 -41.751 -1
      vertex 6.85159 -41.751 -3.5
      vertex 7.33611 -38.7687 -3.5
    endloop
  endfacet
  facet normal 0.987059 -0.160357 0
    outer loop
      vertex 7.33611 -38.7687 -1
      vertex 6.85159 -41.751 -1
      vertex 7.33611 -38.7687 -3.5
    endloop
  endfacet
  facet normal 0.994522 -0.10453 0
    outer loop
      vertex -1.46722 -42.8381 -3.5
      vertex -1.46722 -42.8381 -1
      vertex -1.5 -43.15 -1
    endloop
  endfacet
  facet normal 0.994522 -0.10453 0
    outer loop
      vertex -1.5 -43.15 -3.5
      vertex -1.46722 -42.8381 -3.5
      vertex -1.5 -43.15 -1
    endloop
  endfacet
  facet normal 0.994522 0.10453 0
    outer loop
      vertex -1.5 -43.15 -1
      vertex -1.46722 -43.4619 -1
      vertex -1.46722 -43.4619 -3.5
    endloop
  endfacet
  facet normal 0.994522 0.10453 0
    outer loop
      vertex -1.5 -43.15 -3.5
      vertex -1.5 -43.15 -1
      vertex -1.46722 -43.4619 -3.5
    endloop
  endfacet
  facet normal 0.951057 -0.309017 0
    outer loop
      vertex -1.37032 -42.5399 -3.5
      vertex -1.37032 -42.5399 -1
      vertex -1.46722 -42.8381 -1
    endloop
  endfacet
  facet normal 0.951057 -0.309017 0
    outer loop
      vertex -1.46722 -42.8381 -3.5
      vertex -1.37032 -42.5399 -3.5
      vertex -1.46722 -42.8381 -1
    endloop
  endfacet
  facet normal 0.866025 -0.500001 0
    outer loop
      vertex -1.21352 -42.2683 -3.5
      vertex -1.21352 -42.2683 -1
      vertex -1.37032 -42.5399 -1
    endloop
  endfacet
  facet normal 0.866025 -0.500001 0
    outer loop
      vertex -1.37032 -42.5399 -3.5
      vertex -1.21352 -42.2683 -3.5
      vertex -1.37032 -42.5399 -1
    endloop
  endfacet
  facet normal 0.743145 -0.66913 0
    outer loop
      vertex -1.0037 -42.0353 -3.5
      vertex -1.0037 -42.0353 -1
      vertex -1.21352 -42.2683 -1
    endloop
  endfacet
  facet normal 0.743145 -0.66913 0
    outer loop
      vertex -1.21352 -42.2683 -3.5
      vertex -1.0037 -42.0353 -3.5
      vertex -1.21352 -42.2683 -1
    endloop
  endfacet
  facet normal 0.587785 -0.809017 0
    outer loop
      vertex -0.75 -41.851 -3.5
      vertex -0.75 -41.851 -1
      vertex -1.0037 -42.0353 -1
    endloop
  endfacet
  facet normal 0.587785 -0.809017 0
    outer loop
      vertex -1.0037 -42.0353 -3.5
      vertex -0.75 -41.851 -3.5
      vertex -1.0037 -42.0353 -1
    endloop
  endfacet
  facet normal 0.406737 -0.913545 0
    outer loop
      vertex -0.463525 -41.7234 -3.5
      vertex -0.463525 -41.7234 -1
      vertex -0.75 -41.851 -1
    endloop
  endfacet
  facet normal 0.406737 -0.913545 0
    outer loop
      vertex -0.75 -41.851 -3.5
      vertex -0.463525 -41.7234 -3.5
      vertex -0.75 -41.851 -1
    endloop
  endfacet
  facet normal 0.207912 -0.978148 0
    outer loop
      vertex -0.156793 -41.6582 -3.5
      vertex -0.156793 -41.6582 -1
      vertex -0.463525 -41.7234 -1
    endloop
  endfacet
  facet normal 0.207912 -0.978148 0
    outer loop
      vertex -0.463525 -41.7234 -3.5
      vertex -0.156793 -41.6582 -3.5
      vertex -0.463525 -41.7234 -1
    endloop
  endfacet
  facet normal 0 -1 0
    outer loop
      vertex 0.156793 -41.6582 -3.5
      vertex 0.156793 -41.6582 -1
      vertex -0.156793 -41.6582 -1
    endloop
  endfacet
  facet normal 0 -1 0
    outer loop
      vertex -0.156793 -41.6582 -3.5
      vertex 0.156793 -41.6582 -3.5
      vertex -0.156793 -41.6582 -1
    endloop
  endfacet
  facet normal -0.207912 -0.978148 0
    outer loop
      vertex 0.463525 -41.7234 -3.5
      vertex 0.463525 -41.7234 -1
      vertex 0.156793 -41.6582 -1
    endloop
  endfacet
  facet normal -0.207912 -0.978148 0
    outer loop
      vertex 0.156793 -41.6582 -3.5
      vertex 0.463525 -41.7234 -3.5
      vertex 0.156793 -41.6582 -1
    endloop
  endfacet
  facet normal -0.406737 -0.913545 0
    outer loop
      vertex 0.75 -41.851 -3.5
      vertex 0.75 -41.851 -1
      vertex 0.463525 -41.7234 -1
    endloop
  endfacet
  facet normal -0.406737 -0.913545 0
    outer loop
      vertex 0.463525 -41.7234 -3.5
      vertex 0.75 -41.851 -3.5
      vertex 0.463525 -41.7234 -1
    endloop
  endfacet
  facet normal -0.587785 -0.809017 0
    outer loop
      vertex 1.0037 -42.0353 -3.5
      vertex 1.0037 -42.0353 -1
      vertex 0.75 -41.851 -1
    endloop
  endfacet
  facet normal -0.587785 -0.809017 0
    outer loop
      vertex 0.75 -41.851 -3.5
      vertex 1.0037 -42.0353 -3.5
      vertex 0.75 -41.851 -1
    endloop
  endfacet
  facet normal -0.743145 -0.66913 0
    outer loop
      vertex 1.21352 -42.2683 -1
      vertex 1.0037 -42.0353 -1
      vertex 1.21352 -42.2683 -3.5
    endloop
  endfacet
  facet normal -0.743145 -0.66913 0
    outer loop
      vertex 1.21352 -42.2683 -3.5
      vertex 1.0037 -42.0353 -1
      vertex 1.0037 -42.0353 -3.5
    endloop
  endfacet
  facet normal -0.866025 -0.500001 0
    outer loop
      vertex 1.37032 -42.5399 -1
      vertex 1.21352 -42.2683 -1
      vertex 1.37032 -42.5399 -3.5
    endloop
  endfacet
  facet normal -0.866025 -0.500001 0
    outer loop
      vertex 1.37032 -42.5399 -3.5
      vertex 1.21352 -42.2683 -1
      vertex 1.21352 -42.2683 -3.5
    endloop
  endfacet
  facet normal -0.951057 -0.309017 0
    outer loop
      vertex 1.46722 -42.8381 -1
      vertex 1.37032 -42.5399 -1
      vertex 1.46722 -42.8381 -3.5
    endloop
  endfacet
  facet normal -0.951057 -0.309017 0
    outer loop
      vertex 1.46722 -42.8381 -3.5
      vertex 1.37032 -42.5399 -1
      vertex 1.37032 -42.5399 -3.5
    endloop
  endfacet
  facet normal -0.994522 -0.10453 0
    outer loop
      vertex 1.5 -43.15 -1
      vertex 1.46722 -42.8381 -1
      vertex 1.5 -43.15 -3.5
    endloop
  endfacet
  facet normal -0.994522 -0.10453 0
    outer loop
      vertex 1.5 -43.15 -3.5
      vertex 1.46722 -42.8381 -1
      vertex 1.46722 -42.8381 -3.5
    endloop
  endfacet
  facet normal -0.994522 0.10453 0
    outer loop
      vertex 1.5 -43.15 -1
      vertex 1.5 -43.15 -3.5
      vertex 1.46722 -43.4619 -1
    endloop
  endfacet
  facet normal -0.994522 0.10453 0
    outer loop
      vertex 1.46722 -43.4619 -1
      vertex 1.5 -43.15 -3.5
      vertex 1.46722 -43.4619 -3.5
    endloop
  endfacet
  facet normal -0.951057 0.309017 0
    outer loop
      vertex 1.46722 -43.4619 -1
      vertex 1.46722 -43.4619 -3.5
      vertex 1.37032 -43.7601 -1
    endloop
  endfacet
  facet normal -0.951057 0.309017 0
    outer loop
      vertex 1.37032 -43.7601 -1
      vertex 1.46722 -43.4619 -3.5
      vertex 1.37032 -43.7601 -3.5
    endloop
  endfacet
  facet normal -0.866025 0.500001 0
    outer loop
      vertex 1.37032 -43.7601 -1
      vertex 1.37032 -43.7601 -3.5
      vertex 1.21352 -44.0317 -1
    endloop
  endfacet
  facet normal -0.866025 0.500001 0
    outer loop
      vertex 1.21352 -44.0317 -1
      vertex 1.37032 -43.7601 -3.5
      vertex 1.21352 -44.0317 -3.5
    endloop
  endfacet
  facet normal -0.743145 0.66913 0
    outer loop
      vertex 1.21352 -44.0317 -1
      vertex 1.21352 -44.0317 -3.5
      vertex 1.0037 -44.2647 -1
    endloop
  endfacet
  facet normal -0.743145 0.66913 0
    outer loop
      vertex 1.0037 -44.2647 -1
      vertex 1.21352 -44.0317 -3.5
      vertex 1.0037 -44.2647 -3.5
    endloop
  endfacet
  facet normal -0.587785 0.809017 0
    outer loop
      vertex 1.0037 -44.2647 -1
      vertex 1.0037 -44.2647 -3.5
      vertex 0.75 -44.449 -1
    endloop
  endfacet
  facet normal -0.587785 0.809017 0
    outer loop
      vertex 0.75 -44.449 -1
      vertex 1.0037 -44.2647 -3.5
      vertex 0.75 -44.449 -3.5
    endloop
  endfacet
  facet normal -0.406737 0.913545 0
    outer loop
      vertex 0.75 -44.449 -1
      vertex 0.75 -44.449 -3.5
      vertex 0.463525 -44.5766 -1
    endloop
  endfacet
  facet normal -0.406737 0.913545 0
    outer loop
      vertex 0.463525 -44.5766 -1
      vertex 0.75 -44.449 -3.5
      vertex 0.463525 -44.5766 -3.5
    endloop
  endfacet
  facet normal -0.207912 0.978148 0
    outer loop
      vertex 0.463525 -44.5766 -1
      vertex 0.463525 -44.5766 -3.5
      vertex 0.156793 -44.6418 -1
    endloop
  endfacet
  facet normal -0.207912 0.978148 0
    outer loop
      vertex 0.156793 -44.6418 -1
      vertex 0.463525 -44.5766 -3.5
      vertex 0.156793 -44.6418 -3.5
    endloop
  endfacet
  facet normal 0 1 0
    outer loop
      vertex 0.156793 -44.6418 -1
      vertex 0.156793 -44.6418 -3.5
      vertex -0.156793 -44.6418 -1
    endloop
  endfacet
  facet normal 0 1 0
    outer loop
      vertex -0.156793 -44.6418 -1
      vertex 0.156793 -44.6418 -3.5
      vertex -0.156793 -44.6418 -3.5
    endloop
  endfacet
  facet normal 0.207912 0.978148 0
    outer loop
      vertex -0.156793 -44.6418 -1
      vertex -0.156793 -44.6418 -3.5
      vertex -0.463525 -44.5766 -1
    endloop
  endfacet
  facet normal 0.207912 0.978148 0
    outer loop
      vertex -0.463525 -44.5766 -1
      vertex -0.156793 -44.6418 -3.5
      vertex -0.463525 -44.5766 -3.5
    endloop
  endfacet
  facet normal 0.406737 0.913545 0
    outer loop
      vertex -0.463525 -44.5766 -1
      vertex -0.463525 -44.5766 -3.5
      vertex -0.75 -44.449 -1
    endloop
  endfacet
  facet normal 0.406737 0.913545 0
    outer loop
      vertex -0.75 -44.449 -1
      vertex -0.463525 -44.5766 -3.5
      vertex -0.75 -44.449 -3.5
    endloop
  endfacet
  facet normal 0.587785 0.809017 0
    outer loop
      vertex -0.75 -44.449 -1
      vertex -0.75 -44.449 -3.5
      vertex -1.0037 -44.2647 -1
    endloop
  endfacet
  facet normal 0.587785 0.809017 0
    outer loop
      vertex -1.0037 -44.2647 -1
      vertex -0.75 -44.449 -3.5
      vertex -1.0037 -44.2647 -3.5
    endloop
  endfacet
  facet normal 0.743145 0.66913 0
    outer loop
      vertex -1.21352 -44.0317 -1
      vertex -1.0037 -44.2647 -1
      vertex -1.0037 -44.2647 -3.5
    endloop
  endfacet
  facet normal 0.743145 0.66913 0
    outer loop
      vertex -1.21352 -44.0317 -3.5
      vertex -1.21352 -44.0317 -1
      vertex -1.0037 -44.2647 -3.5
    endloop
  endfacet
  facet normal 0.866025 0.500001 0
    outer loop
      vertex -1.37032 -43.7601 -1
      vertex -1.21352 -44.0317 -1
      vertex -1.21352 -44.0317 -3.5
    endloop
  endfacet
  facet normal 0.866025 0.500001 0
    outer loop
      vertex -1.37032 -43.7601 -3.5
      vertex -1.37032 -43.7601 -1
      vertex -1.21352 -44.0317 -3.5
    endloop
  endfacet
  facet normal 0.951057 0.309017 0
    outer loop
      vertex -1.46722 -43.4619 -1
      vertex -1.37032 -43.7601 -1
      vertex -1.37032 -43.7601 -3.5
    endloop
  endfacet
  facet normal 0.951057 0.309017 0
    outer loop
      vertex -1.46722 -43.4619 -3.5
      vertex -1.46722 -43.4619 -1
      vertex -1.37032 -43.7601 -3.5
    endloop
  endfacet
  facet normal 0.39736 1.15531e-16 -0.917663
    outer loop
      vertex 4.62223e-32 35.65 -1.0625
      vertex -1.11022e-15 30.65 -1.0625
      vertex -3.2476 35.65 -2.46875
    endloop
  endfacet
  facet normal 0.39736 1.15531e-16 -0.917663
    outer loop
      vertex -3.2476 35.65 -2.46875
      vertex -1.11022e-15 30.65 -1.0625
      vertex -3.2476 30.65 -2.46875
    endloop
  endfacet
  facet normal -0.39736 2.91994e-16 -0.917663
    outer loop
      vertex 3.2476 35.65 -2.46875
      vertex 3.24759 30.65 -2.46875
      vertex 4.62223e-32 35.65 -1.0625
    endloop
  endfacet
  facet normal -0.39736 2.91994e-16 -0.917663
    outer loop
      vertex 4.62223e-32 35.65 -1.0625
      vertex 3.24759 30.65 -2.46875
      vertex -1.11022e-15 30.65 -1.0625
    endloop
  endfacet
  facet normal -4.93038e-32 -2.22045e-16 1
    outer loop
      vertex 3.24759 30.65 -2.46875
      vertex 3.2476 35.65 -2.46875
      vertex -3.2476 35.65 -2.46875
    endloop
  endfacet
  facet normal -4.93038e-32 -2.22045e-16 1
    outer loop
      vertex -3.2476 30.65 -2.46875
      vertex 3.24759 30.65 -2.46875
      vertex -3.2476 35.65 -2.46875
    endloop
  endfacet
  facet normal -0.207912 2.17192e-16 0.978147
    outer loop
      vertex -80.2909 35.4409 1.51096
      vertex -79.882 -35.032 1.59789
      vertex -79.882 35.032 1.59789
    endloop
  endfacet
  facet normal -0.207912 2.17192e-16 0.978147
    outer loop
      vertex -80.2909 -35.4409 1.51096
      vertex -79.882 -35.032 1.59789
      vertex -80.2909 35.4409 1.51096
    endloop
  endfacet
  facet normal 0.406736 2.02848e-16 0.913546
    outer loop
      vertex 79.5 34.65 1.76795
      vertex 79.882 -35.032 1.59789
      vertex 79.882 35.032 1.59789
    endloop
  endfacet
  facet normal 0.406736 2.02848e-16 0.913546
    outer loop
      vertex 79.5 -34.65 1.76795
      vertex 79.882 -35.032 1.59789
      vertex 79.5 34.65 1.76795
    endloop
  endfacet
  facet normal -1.12534e-16 0.406736 0.913546
    outer loop
      vertex -79.882 35.032 1.59789
      vertex -79.5 34.65 1.76795
      vertex 79.5 34.65 1.76795
    endloop
  endfacet
  facet normal -1.12534e-16 0.406736 0.913546
    outer loop
      vertex 79.882 35.032 1.59789
      vertex -79.882 35.032 1.59789
      vertex 79.5 34.65 1.76795
    endloop
  endfacet
  facet normal -2.93161e-16 -0.406736 0.913546
    outer loop
      vertex 79.882 -35.032 1.59789
      vertex 79.5 -34.65 1.76795
      vertex -79.5 -34.65 1.76795
    endloop
  endfacet
  facet normal -2.93161e-16 -0.406736 0.913546
    outer loop
      vertex 79.882 -35.032 1.59789
      vertex -79.5 -34.65 1.76795
      vertex -79.882 -35.032 1.59789
    endloop
  endfacet
  facet normal -1 0 -2.22045e-16
    outer loop
      vertex -75.5 3.2476 -2.46875
      vertex -75.5 -3.2476 -2.46875
      vertex -75.5 0 -1.0625
    endloop
  endfacet
  facet normal 2.03762e-16 0.39736 -0.917663
    outer loop
      vertex 80.5 -3.2476 -2.46875
      vertex 75.5 -3.2476 -2.46875
      vertex 80.5 0 -1.0625
    endloop
  endfacet
  facet normal 2.03762e-16 0.39736 -0.917663
    outer loop
      vertex 80.5 0 -1.0625
      vertex 75.5 -3.2476 -2.46875
      vertex 75.5 0 -1.0625
    endloop
  endfacet
  facet normal -2.22045e-16 0 1
    outer loop
      vertex 80.5 -3.2476 -2.46875
      vertex 80.5 3.2476 -2.46875
      vertex 75.5 3.2476 -2.46875
    endloop
  endfacet
  facet normal -2.22045e-16 0 1
    outer loop
      vertex 75.5 -3.2476 -2.46875
      vertex 80.5 -3.2476 -2.46875
      vertex 75.5 3.2476 -2.46875
    endloop
  endfacet
  facet normal 2.03762e-16 -0.39736 -0.917663
    outer loop
      vertex 80.5 3.2476 -2.46875
      vertex 80.5 0 -1.0625
      vertex 75.5 3.2476 -2.46875
    endloop
  endfacet
  facet normal 2.03762e-16 -0.39736 -0.917663
    outer loop
      vertex 75.5 3.2476 -2.46875
      vertex 80.5 0 -1.0625
      vertex 75.5 0 -1.0625
    endloop
  endfacet
  facet normal 2.22045e-16 1 2.22045e-16
    outer loop
      vertex -1.11022e-15 30.65 -1.0625
      vertex 3.24759 30.65 -2.46875
      vertex -3.2476 30.65 -2.46875
    endloop
  endfacet
  facet normal -0.406736 2.02848e-16 0.913546
    outer loop
      vertex -79.882 35.032 1.59789
      vertex -79.5 -34.65 1.76795
      vertex -79.5 34.65 1.76795
    endloop
  endfacet
  facet normal -0.406736 2.02848e-16 0.913546
    outer loop
      vertex -79.882 -35.032 1.59789
      vertex -79.5 -34.65 1.76795
      vertex -79.882 35.032 1.59789
    endloop
  endfacet
  facet normal 0.587785 1.79638e-16 0.809017
    outer loop
      vertex 79.1617 34.3117 2.01371
      vertex 79.5 -34.65 1.76795
      vertex 79.5 34.65 1.76795
    endloop
  endfacet
  facet normal 0.587785 1.79638e-16 0.809017
    outer loop
      vertex 79.1617 -34.3117 2.01371
      vertex 79.5 -34.65 1.76795
      vertex 79.1617 34.3117 2.01371
    endloop
  endfacet
  facet normal -4.91233e-17 0.587785 0.809017
    outer loop
      vertex -79.5 34.65 1.76795
      vertex -79.1617 34.3117 2.01371
      vertex 79.1617 34.3117 2.01371
    endloop
  endfacet
  facet normal -4.91233e-17 0.587785 0.809017
    outer loop
      vertex 79.5 34.65 1.76795
      vertex -79.5 34.65 1.76795
      vertex 79.1617 34.3117 2.01371
    endloop
  endfacet
  facet normal -3.10152e-16 -0.587785 0.809017
    outer loop
      vertex 79.5 -34.65 1.76795
      vertex 79.1617 -34.3117 2.01371
      vertex -79.1617 -34.3117 2.01371
    endloop
  endfacet
  facet normal -3.10152e-16 -0.587785 0.809017
    outer loop
      vertex 79.5 -34.65 1.76795
      vertex -79.1617 -34.3117 2.01371
      vertex -79.5 -34.65 1.76795
    endloop
  endfacet
  facet normal 1 0 2.22045e-16
    outer loop
      vertex 75.5 -3.2476 -2.46875
      vertex 75.5 3.2476 -2.46875
      vertex 75.5 0 -1.0625
    endloop
  endfacet
  facet normal -0.587785 1.79638e-16 0.809017
    outer loop
      vertex -79.5 34.65 1.76795
      vertex -79.1617 -34.3117 2.01371
      vertex -79.1617 34.3117 2.01371
    endloop
  endfacet
  facet normal -0.587785 1.79638e-16 0.809017
    outer loop
      vertex -79.5 -34.65 1.76795
      vertex -79.1617 -34.3117 2.01371
      vertex -79.5 34.65 1.76795
    endloop
  endfacet
  facet normal 0.743144 1.48577e-16 0.669131
    outer loop
      vertex 78.882 34.032 2.32443
      vertex 79.1617 -34.3117 2.01371
      vertex 79.1617 34.3117 2.01371
    endloop
  endfacet
  facet normal 0.743144 1.48577e-16 0.669131
    outer loop
      vertex 78.882 -34.032 2.32443
      vertex 79.1617 -34.3117 2.01371
      vertex 78.882 34.032 2.32443
    endloop
  endfacet
  facet normal 1.64343e-17 0.743144 0.669131
    outer loop
      vertex -78.882 34.032 2.32443
      vertex 78.882 34.032 2.32443
      vertex -79.1617 34.3117 2.01371
    endloop
  endfacet
  facet normal 1.64343e-17 0.743144 0.669131
    outer loop
      vertex -79.1617 34.3117 2.01371
      vertex 78.882 34.032 2.32443
      vertex 79.1617 34.3117 2.01371
    endloop
  endfacet
  facet normal -3.13588e-16 -0.743144 0.669131
    outer loop
      vertex 79.1617 -34.3117 2.01371
      vertex 78.882 -34.032 2.32443
      vertex -78.882 -34.032 2.32443
    endloop
  endfacet
  facet normal -3.13588e-16 -0.743144 0.669131
    outer loop
      vertex 79.1617 -34.3117 2.01371
      vertex -78.882 -34.032 2.32443
      vertex -79.1617 -34.3117 2.01371
    endloop
  endfacet
  facet normal -0.743144 1.48577e-16 0.669131
    outer loop
      vertex -78.882 -34.032 2.32443
      vertex -78.882 34.032 2.32443
      vertex -79.1617 34.3117 2.01371
    endloop
  endfacet
  facet normal -0.743144 1.48577e-16 0.669131
    outer loop
      vertex -78.882 -34.032 2.32443
      vertex -79.1617 34.3117 2.01371
      vertex -79.1617 -34.3117 2.01371
    endloop
  endfacet
  facet normal 0.866026 1.11022e-16 0.499999
    outer loop
      vertex 78.6729 33.8229 2.68653
      vertex 78.882 -34.032 2.32443
      vertex 78.882 34.032 2.32443
    endloop
  endfacet
  facet normal 0.866026 1.11022e-16 0.499999
    outer loop
      vertex 78.6729 -33.8229 2.68653
      vertex 78.882 -34.032 2.32443
      vertex 78.6729 33.8229 2.68653
    endloop
  endfacet
  facet normal 8.12742e-17 0.866026 0.499999
    outer loop
      vertex -78.6729 33.8229 2.68653
      vertex 78.6729 33.8229 2.68653
      vertex -78.882 34.032 2.32443
    endloop
  endfacet
  facet normal 8.12742e-17 0.866026 0.499999
    outer loop
      vertex -78.882 34.032 2.32443
      vertex 78.6729 33.8229 2.68653
      vertex 78.882 34.032 2.32443
    endloop
  endfacet
  facet normal -3.03319e-16 -0.866026 0.499999
    outer loop
      vertex 78.882 -34.032 2.32443
      vertex 78.6729 -33.8229 2.68653
      vertex -78.6729 -33.8229 2.68653
    endloop
  endfacet
  facet normal -3.03319e-16 -0.866026 0.499999
    outer loop
      vertex 78.882 -34.032 2.32443
      vertex -78.6729 -33.8229 2.68653
      vertex -78.882 -34.032 2.32443
    endloop
  endfacet
  facet normal -0.866026 1.11022e-16 0.499999
    outer loop
      vertex -78.6729 -33.8229 2.68653
      vertex -78.6729 33.8229 2.68653
      vertex -78.882 34.032 2.32443
    endloop
  endfacet
  facet normal -0.866026 1.11022e-16 0.499999
    outer loop
      vertex -78.6729 -33.8229 2.68653
      vertex -78.882 34.032 2.32443
      vertex -78.882 -34.032 2.32443
    endloop
  endfacet
  facet normal 0.951057 6.86154e-17 0.309016
    outer loop
      vertex 78.5437 33.6937 3.08418
      vertex 78.6729 -33.8229 2.68653
      vertex 78.6729 33.8229 2.68653
    endloop
  endfacet
  facet normal 0.951057 6.86154e-17 0.309016
    outer loop
      vertex 78.5437 -33.6937 3.08418
      vertex 78.6729 -33.8229 2.68653
      vertex 78.5437 33.6937 3.08418
    endloop
  endfacet
  facet normal 1.42562e-16 0.951057 0.309016
    outer loop
      vertex -78.5437 33.6937 3.08418
      vertex 78.5437 33.6937 3.08418
      vertex -78.6729 33.8229 2.68653
    endloop
  endfacet
  facet normal 1.42562e-16 0.951057 0.309016
    outer loop
      vertex -78.6729 33.8229 2.68653
      vertex 78.5437 33.6937 3.08418
      vertex 78.6729 33.8229 2.68653
    endloop
  endfacet
  facet normal -2.79792e-16 -0.951057 0.309016
    outer loop
      vertex 78.6729 -33.8229 2.68653
      vertex 78.5437 -33.6937 3.08418
      vertex -78.5437 -33.6937 3.08418
    endloop
  endfacet
  facet normal -2.79792e-16 -0.951057 0.309016
    outer loop
      vertex 78.6729 -33.8229 2.68653
      vertex -78.5437 -33.6937 3.08418
      vertex -78.6729 -33.8229 2.68653
    endloop
  endfacet
  facet normal -0.951057 6.86154e-17 0.309016
    outer loop
      vertex -78.5437 -33.6937 3.08418
      vertex -78.5437 33.6937 3.08418
      vertex -78.6729 33.8229 2.68653
    endloop
  endfacet
  facet normal -0.951057 6.86154e-17 0.309016
    outer loop
      vertex -78.5437 -33.6937 3.08418
      vertex -78.6729 33.8229 2.68653
      vertex -78.6729 -33.8229 2.68653
    endloop
  endfacet
  facet normal 0.994522 2.32101e-17 0.104529
    outer loop
      vertex 78.5 -33.65 3.5
      vertex 78.5437 -33.6937 3.08418
      vertex 78.5437 33.6937 3.08418
    endloop
  endfacet
  facet normal 0.994522 2.32101e-17 0.104529
    outer loop
      vertex 78.5 -33.65 3.5
      vertex 78.5437 33.6937 3.08418
      vertex 78.5 33.65 3.5
    endloop
  endfacet
  facet normal 0.994522 2.32101e-17 0.104529
    outer loop
      vertex 78.5 -33.65 3.5
      vertex 78.5 33.65 3.5
      vertex 78.5 0 3.5
    endloop
  endfacet
  facet normal 1.97618e-16 0.994522 0.104529
    outer loop
      vertex -78.5 33.65 3.5
      vertex -4.44089e-16 33.65 3.5
      vertex -78.5437 33.6937 3.08418
    endloop
  endfacet
  facet normal 1.97618e-16 0.994522 0.104529
    outer loop
      vertex -78.5437 33.6937 3.08418
      vertex -4.44089e-16 33.65 3.5
      vertex 78.5 33.65 3.5
    endloop
  endfacet
  facet normal 1.97618e-16 0.994522 0.104529
    outer loop
      vertex -78.5437 33.6937 3.08418
      vertex 78.5 33.65 3.5
      vertex 78.5437 33.6937 3.08418
    endloop
  endfacet
  facet normal -2.44038e-16 -0.994522 0.104529
    outer loop
      vertex 78.5437 -33.6937 3.08418
      vertex 78.5 -33.65 3.5
      vertex 4.44089e-16 -33.65 3.5
    endloop
  endfacet
  facet normal -2.44038e-16 -0.994522 0.104529
    outer loop
      vertex -78.5437 -33.6937 3.08418
      vertex 78.5437 -33.6937 3.08418
      vertex -78.5 -33.65 3.5
    endloop
  endfacet
  facet normal -2.44038e-16 -0.994522 0.104529
    outer loop
      vertex -78.5 -33.65 3.5
      vertex 78.5437 -33.6937 3.08418
      vertex 4.44089e-16 -33.65 3.5
    endloop
  endfacet
  facet normal -0.994522 2.32101e-17 0.104529
    outer loop
      vertex -78.5 -33.65 3.5
      vertex -78.5 0 3.5
      vertex -78.5 33.65 3.5
    endloop
  endfacet
  facet normal -0.994522 2.32101e-17 0.104529
    outer loop
      vertex -78.5 -33.65 3.5
      vertex -78.5 33.65 3.5
      vertex -78.5437 33.6937 3.08418
    endloop
  endfacet
  facet normal -0.994522 2.32101e-17 0.104529
    outer loop
      vertex -78.5 -33.65 3.5
      vertex -78.5437 33.6937 3.08418
      vertex -78.5437 -33.6937 3.08418
    endloop
  endfacet
  facet normal 0 0 1
    outer loop
      vertex -78 33.15 3.5
      vertex -78.5 33.65 3.5
      vertex -78.5 0 3.5
    endloop
  endfacet
  facet normal 0 0 1
    outer loop
      vertex -78 -33.15 3.5
      vertex -78 33.15 3.5
      vertex -78.5 0 3.5
    endloop
  endfacet
  facet normal 0 0 1
    outer loop
      vertex 78 33.15 3.5
      vertex 78.5 33.65 3.5
      vertex -4.44089e-16 33.65 3.5
    endloop
  endfacet
  facet normal 0 0 1
    outer loop
      vertex -78.5 -33.65 3.5
      vertex -78 -33.15 3.5
      vertex -78.5 0 3.5
    endloop
  endfacet
  facet normal 0 0 1
    outer loop
      vertex 78 33.15 3.5
      vertex 78 -33.15 3.5
      vertex 78.5 0 3.5
    endloop
  endfacet
  facet normal 0 0 1
    outer loop
      vertex -4.44089e-16 33.65 3.5
      vertex -78.5 33.65 3.5
      vertex -78 33.15 3.5
    endloop
  endfacet
  facet normal 0 0 1
    outer loop
      vertex 78.5 0 3.5
      vertex 78.5 33.65 3.5
      vertex 78 33.15 3.5
    endloop
  endfacet
  facet normal 0 0 1
    outer loop
      vertex -78 33.15 3.5
      vertex 78 33.15 3.5
      vertex -4.44089e-16 33.65 3.5
    endloop
  endfacet
  facet normal 0 0 1
    outer loop
      vertex 78.5 -33.65 3.5
      vertex 78.5 0 3.5
      vertex 78 -33.15 3.5
    endloop
  endfacet
  facet normal 0 0 1
    outer loop
      vertex 78 -33.15 3.5
      vertex 4.44089e-16 -33.65 3.5
      vertex 78.5 -33.65 3.5
    endloop
  endfacet
  facet normal 0 0 1
    outer loop
      vertex 78 -33.15 3.5
      vertex -78.5 -33.65 3.5
      vertex 4.44089e-16 -33.65 3.5
    endloop
  endfacet
  facet normal 0 0 1
    outer loop
      vertex 78 -33.15 3.5
      vertex -78 -33.15 3.5
      vertex -78.5 -33.65 3.5
    endloop
  endfacet
  facet normal 1 0 0
    outer loop
      vertex -78 33.15 -0.5
      vertex -78 33.15 3.5
      vertex -78 -33.15 3.5
    endloop
  endfacet
  facet normal 1 0 0
    outer loop
      vertex -78 -33.15 -0.5
      vertex -78 33.15 -0.5
      vertex -78 -33.15 3.5
    endloop
  endfacet
  facet normal 0 1 0
    outer loop
      vertex 78 -33.15 3.5
      vertex 78 -33.15 -0.5
      vertex -78 -33.15 3.5
    endloop
  endfacet
  facet normal 0 1 0
    outer loop
      vertex -78 -33.15 3.5
      vertex 78 -33.15 -0.5
      vertex -78 -33.15 -0.5
    endloop
  endfacet
  facet normal -1 0 0
    outer loop
      vertex 78 33.15 3.5
      vertex 78 33.15 -0.5
      vertex 78 -33.15 3.5
    endloop
  endfacet
  facet normal -1 0 0
    outer loop
      vertex 78 -33.15 3.5
      vertex 78 33.15 -0.5
      vertex 78 -33.15 -0.5
    endloop
  endfacet
  facet normal 0 -1 0
    outer loop
      vertex 78 33.15 -0.5
      vertex 78 33.15 3.5
      vertex -78 33.15 3.5
    endloop
  endfacet
  facet normal 0 -1 0
    outer loop
      vertex -78 33.15 -0.5
      vertex 78 33.15 -0.5
      vertex -78 33.15 3.5
    endloop
  endfacet
  facet normal 0 0 1
    outer loop
      vertex 78 -33.15 -0.5
      vertex 78 33.15 -0.5
      vertex -78 33.15 -0.5
    endloop
  endfacet
  facet normal 0 0 1
    outer loop
      vertex -78 -33.15 -0.5
      vertex 78 -33.15 -0.5
      vertex -78 33.15 -0.5
    endloop
  endfacet
  facet normal 4.93038e-32 2.22045e-16 -1
    outer loop
      vertex -3.2476 -35.65 -2.46875
      vertex -3.24759 -30.65 -2.46875
      vertex 3.2476 -35.65 -2.46875
    endloop
  endfacet
  facet normal 4.93038e-32 2.22045e-16 -1
    outer loop
      vertex 3.2476 -35.65 -2.46875
      vertex -3.24759 -30.65 -2.46875
      vertex 3.2476 -30.65 -2.46875
    endloop
  endfacet
  facet normal -0.39736 -1.15531e-16 0.917663
    outer loop
      vertex -3.24759 -30.65 -2.46875
      vertex -3.2476 -35.65 -2.46875
      vertex 4.62223e-32 -35.65 -1.0625
    endloop
  endfacet
  facet normal -0.39736 -1.15531e-16 0.917663
    outer loop
      vertex 1.11022e-15 -30.65 -1.0625
      vertex -3.24759 -30.65 -2.46875
      vertex 4.62223e-32 -35.65 -1.0625
    endloop
  endfacet
  facet normal 0 -1 0
    outer loop
      vertex 4.62223e-32 -35.65 -1.0625
      vertex -3.2476 -35.65 -2.46875
      vertex 3.2476 -35.65 -2.46875
    endloop
  endfacet
  facet normal 0.39736 -2.91994e-16 0.917663
    outer loop
      vertex 1.11022e-15 -30.65 -1.0625
      vertex 4.62223e-32 -35.65 -1.0625
      vertex 3.2476 -35.65 -2.46875
    endloop
  endfacet
  facet normal 0.39736 -2.91994e-16 0.917663
    outer loop
      vertex 3.2476 -30.65 -2.46875
      vertex 1.11022e-15 -30.65 -1.0625
      vertex 3.2476 -35.65 -2.46875
    endloop
  endfacet
  facet normal 2.22045e-16 1 2.22045e-16
    outer loop
      vertex 3.2476 -30.65 -2.46875
      vertex -3.24759 -30.65 -2.46875
      vertex 1.11022e-15 -30.65 -1.0625
    endloop
  endfacet
endsolid OpenSCAD_Model
