solid OpenSCAD_Model
  facet normal -1 0 0
    outer loop
      vertex -80.5 -3.2476 -2.46875
      vertex -80.5 -35.4867 0.94606
      vertex -80.5 0 -1.0625
    endloop
  endfacet
  facet normal -1 0 0
    outer loop
      vertex -80.5 0 -1.0625
      vertex -80.5 -35.4867 0.94606
      vertex -80.5 35.4867 0.94606
    endloop
  endfacet
  facet normal -1 0 0
    outer loop
      vertex -80.5 35.65 -3.5
      vertex -80.5 35.4867 0.94606
      vertex -80.5 35.65 0.94606
    endloop
  endfacet
  facet normal -1 0 0
    outer loop
      vertex -80.5 -3.2476 -2.46875
      vertex -80.5 -35.65 0.94606
      vertex -80.5 -35.4867 0.94606
    endloop
  endfacet
  facet normal -1 0 0
    outer loop
      vertex -80.5 35.65 -3.5
      vertex -80.5 0 -1.0625
      vertex -80.5 35.4867 0.94606
    endloop
  endfacet
  facet normal -1 0 0
    outer loop
      vertex -80.5 -35.65 -3.5
      vertex -80.5 -35.65 0.94606
      vertex -80.5 -3.2476 -2.46875
    endloop
  endfacet
  facet normal -1 0 0
    outer loop
      vertex -80.5 -35.65 -3.5
      vertex -80.5 -3.2476 -2.46875
      vertex -80.5 35.65 -3.5
    endloop
  endfacet
  facet normal -1 0 0
    outer loop
      vertex -80.5 -3.2476 -2.46875
      vertex -80.5 3.2476 -2.46875
      vertex -80.5 35.65 -3.5
    endloop
  endfacet
  facet normal -1 0 0
    outer loop
      vertex -80.5 0 -1.0625
      vertex -80.5 35.65 -3.5
      vertex -80.5 3.2476 -2.46875
    endloop
  endfacet
  facet normal 0 -1 0
    outer loop
      vertex -80.5 -35.65 0.94606
      vertex -80.5 -35.65 -3.5
      vertex -7.5 -35.65 -3.5
    endloop
  endfacet
  facet normal 0 -1 0
    outer loop
      vertex 7.5 -35.65 -1
      vertex -80.5 -35.65 0.94606
      vertex -7.5 -35.65 -1
    endloop
  endfacet
  facet normal 0 -1 0
    outer loop
      vertex -7.5 -35.65 -1
      vertex -80.5 -35.65 0.94606
      vertex -7.5 -35.65 -3.5
    endloop
  endfacet
  facet normal 0 -1 0
    outer loop
      vertex 80.5 -35.65 0.94606
      vertex -80.5 -35.65 0.94606
      vertex 7.5 -35.65 -1
    endloop
  endfacet
  facet normal 0 -1 0
    outer loop
      vertex 80.5 -35.65 -3.5
      vertex 7.5 -35.65 -1
      vertex 7.5 -35.65 -3.5
    endloop
  endfacet
  facet normal 0 -1 0
    outer loop
      vertex 80.5 -35.65 0.94606
      vertex 7.5 -35.65 -1
      vertex 80.5 -35.65 -3.5
    endloop
  endfacet
  facet normal 0 -1 0
    outer loop
      vertex 80.3367 -35.65 0.94606
      vertex -80.5 -35.65 0.94606
      vertex 80.5 -35.65 0.94606
    endloop
  endfacet
  facet normal 0 0 -1
    outer loop
      vertex -80.5 -35.65 -3.5
      vertex -80.5 35.65 -3.5
      vertex -7.5 -35.65 -3.5
    endloop
  endfacet
  facet normal 0 0 -1
    outer loop
      vertex -7.5 -35.65 -3.5
      vertex -80.5 35.65 -3.5
      vertex 80.5 35.65 -3.5
    endloop
  endfacet
  facet normal 0 0 -1
    outer loop
      vertex 7.5 -35.65 -3.5
      vertex 80.5 35.65 -3.5
      vertex 80.5 -35.65 -3.5
    endloop
  endfacet
  facet normal 0 0 -1
    outer loop
      vertex -7.5 -35.65 -3.5
      vertex 80.5 35.65 -3.5
      vertex 7.5 -35.65 -3.5
    endloop
  endfacet
  facet normal 0 0 -1
    outer loop
      vertex -2.31763 -49.9158 -3.5
      vertex 0.783963 -50.5678 -3.5
      vertex -0.783963 -50.5678 -3.5
    endloop
  endfacet
  facet normal 0 0 -1
    outer loop
      vertex 7.5 -35.65 -3.5
      vertex 7.33611 -38.7687 -3.5
      vertex -7.5 -35.65 -3.5
    endloop
  endfacet
  facet normal 0 0 -1
    outer loop
      vertex -1.5 -43.15 -3.5
      vertex -6.85159 -41.751 -3.5
      vertex -1.46722 -42.8381 -3.5
    endloop
  endfacet
  facet normal 0 0 -1
    outer loop
      vertex -6.85159 -41.751 -3.5
      vertex -1.5 -43.15 -3.5
      vertex -1.46722 -43.4619 -3.5
    endloop
  endfacet
  facet normal 0 0 -1
    outer loop
      vertex -6.06763 -44.4668 -3.5
      vertex 5.01848 -46.7972 -3.5
      vertex -5.01848 -46.7972 -3.5
    endloop
  endfacet
  facet normal 0 0 -1
    outer loop
      vertex -5.01848 -46.7972 -3.5
      vertex 3.75 -48.6404 -3.5
      vertex -3.75 -48.6404 -3.5
    endloop
  endfacet
  facet normal 0 0 -1
    outer loop
      vertex -3.75 -48.6404 -3.5
      vertex 2.31763 -49.9158 -3.5
      vertex -2.31763 -49.9158 -3.5
    endloop
  endfacet
  facet normal 0 0 -1
    outer loop
      vertex 2.31763 -49.9158 -3.5
      vertex 0.783963 -50.5678 -3.5
      vertex -2.31763 -49.9158 -3.5
    endloop
  endfacet
  facet normal 0 0 -1
    outer loop
      vertex 3.75 -48.6404 -3.5
      vertex 2.31763 -49.9158 -3.5
      vertex -3.75 -48.6404 -3.5
    endloop
  endfacet
  facet normal 0 0 -1
    outer loop
      vertex 5.01848 -46.7972 -3.5
      vertex 3.75 -48.6404 -3.5
      vertex -5.01848 -46.7972 -3.5
    endloop
  endfacet
  facet normal 0 0 -1
    outer loop
      vertex -0.463525 -44.5766 -3.5
      vertex 5.01848 -46.7972 -3.5
      vertex -6.06763 -44.4668 -3.5
    endloop
  endfacet
  facet normal 0 0 -1
    outer loop
      vertex -7.33611 -38.7687 -3.5
      vertex -0.463525 -41.7234 -3.5
      vertex -6.85159 -41.751 -3.5
    endloop
  endfacet
  facet normal 0 0 -1
    outer loop
      vertex 7.33611 -38.7687 -3.5
      vertex 6.85159 -41.751 -3.5
      vertex -7.33611 -38.7687 -3.5
    endloop
  endfacet
  facet normal 0 0 -1
    outer loop
      vertex -0.463525 -44.5766 -3.5
      vertex -6.06763 -44.4668 -3.5
      vertex -0.75 -44.449 -3.5
    endloop
  endfacet
  facet normal 0 0 -1
    outer loop
      vertex -7.33611 -38.7687 -3.5
      vertex 6.85159 -41.751 -3.5
      vertex 0.156793 -41.6582 -3.5
    endloop
  endfacet
  facet normal 0 0 -1
    outer loop
      vertex 1.46722 -43.4619 -3.5
      vertex 6.06763 -44.4668 -3.5
      vertex 1.37032 -43.7601 -3.5
    endloop
  endfacet
  facet normal 0 0 -1
    outer loop
      vertex -7.33611 -38.7687 -3.5
      vertex 0.156793 -41.6582 -3.5
      vertex -0.156793 -41.6582 -3.5
    endloop
  endfacet
  facet normal 0 0 -1
    outer loop
      vertex -1.21352 -44.0317 -3.5
      vertex -6.06763 -44.4668 -3.5
      vertex -1.37032 -43.7601 -3.5
    endloop
  endfacet
  facet normal 0 0 -1
    outer loop
      vertex -7.33611 -38.7687 -3.5
      vertex -0.156793 -41.6582 -3.5
      vertex -0.463525 -41.7234 -3.5
    endloop
  endfacet
  facet normal 0 0 -1
    outer loop
      vertex -1.0037 -44.2647 -3.5
      vertex -6.06763 -44.4668 -3.5
      vertex -1.21352 -44.0317 -3.5
    endloop
  endfacet
  facet normal 0 0 -1
    outer loop
      vertex -0.75 -44.449 -3.5
      vertex -6.06763 -44.4668 -3.5
      vertex -1.0037 -44.2647 -3.5
    endloop
  endfacet
  facet normal 0 0 -1
    outer loop
      vertex -0.156793 -44.6418 -3.5
      vertex 5.01848 -46.7972 -3.5
      vertex -0.463525 -44.5766 -3.5
    endloop
  endfacet
  facet normal 0 0 -1
    outer loop
      vertex 0.463525 -44.5766 -3.5
      vertex 6.06763 -44.4668 -3.5
      vertex 0.156793 -44.6418 -3.5
    endloop
  endfacet
  facet normal 0 0 -1
    outer loop
      vertex 0.156793 -44.6418 -3.5
      vertex 5.01848 -46.7972 -3.5
      vertex -0.156793 -44.6418 -3.5
    endloop
  endfacet
  facet normal 0 0 -1
    outer loop
      vertex 6.06763 -44.4668 -3.5
      vertex 5.01848 -46.7972 -3.5
      vertex 0.156793 -44.6418 -3.5
    endloop
  endfacet
  facet normal 0 0 -1
    outer loop
      vertex 0.75 -44.449 -3.5
      vertex 6.06763 -44.4668 -3.5
      vertex 0.463525 -44.5766 -3.5
    endloop
  endfacet
  facet normal 0 0 -1
    outer loop
      vertex 1.0037 -44.2647 -3.5
      vertex 6.06763 -44.4668 -3.5
      vertex 0.75 -44.449 -3.5
    endloop
  endfacet
  facet normal 0 0 -1
    outer loop
      vertex 1.21352 -44.0317 -3.5
      vertex 6.06763 -44.4668 -3.5
      vertex 1.0037 -44.2647 -3.5
    endloop
  endfacet
  facet normal 0 0 -1
    outer loop
      vertex 1.37032 -43.7601 -3.5
      vertex 6.06763 -44.4668 -3.5
      vertex 1.21352 -44.0317 -3.5
    endloop
  endfacet
  facet normal 0 0 -1
    outer loop
      vertex 6.85159 -41.751 -3.5
      vertex 6.06763 -44.4668 -3.5
      vertex 1.46722 -43.4619 -3.5
    endloop
  endfacet
  facet normal 0 0 -1
    outer loop
      vertex 6.85159 -41.751 -3.5
      vertex 1.46722 -43.4619 -3.5
      vertex 1.5 -43.15 -3.5
    endloop
  endfacet
  facet normal 0 0 -1
    outer loop
      vertex 6.85159 -41.751 -3.5
      vertex 1.5 -43.15 -3.5
      vertex 1.46722 -42.8381 -3.5
    endloop
  endfacet
  facet normal 0 0 -1
    outer loop
      vertex 6.85159 -41.751 -3.5
      vertex 1.46722 -42.8381 -3.5
      vertex 1.37032 -42.5399 -3.5
    endloop
  endfacet
  facet normal 0 0 -1
    outer loop
      vertex 6.85159 -41.751 -3.5
      vertex 1.37032 -42.5399 -3.5
      vertex 1.21352 -42.2683 -3.5
    endloop
  endfacet
  facet normal 0 0 -1
    outer loop
      vertex 6.85159 -41.751 -3.5
      vertex 1.21352 -42.2683 -3.5
      vertex 1.0037 -42.0353 -3.5
    endloop
  endfacet
  facet normal 0 0 -1
    outer loop
      vertex 6.85159 -41.751 -3.5
      vertex 1.0037 -42.0353 -3.5
      vertex 0.75 -41.851 -3.5
    endloop
  endfacet
  facet normal 0 0 -1
    outer loop
      vertex -0.75 -41.851 -3.5
      vertex -6.85159 -41.751 -3.5
      vertex -0.463525 -41.7234 -3.5
    endloop
  endfacet
  facet normal 0 0 -1
    outer loop
      vertex 6.85159 -41.751 -3.5
      vertex 0.463525 -41.7234 -3.5
      vertex 0.156793 -41.6582 -3.5
    endloop
  endfacet
  facet normal 0 0 -1
    outer loop
      vertex 0.463525 -41.7234 -3.5
      vertex 6.85159 -41.751 -3.5
      vertex 0.75 -41.851 -3.5
    endloop
  endfacet
  facet normal 0 0 -1
    outer loop
      vertex -1.0037 -42.0353 -3.5
      vertex -6.85159 -41.751 -3.5
      vertex -0.75 -41.851 -3.5
    endloop
  endfacet
  facet normal 0 0 -1
    outer loop
      vertex -1.21352 -42.2683 -3.5
      vertex -6.85159 -41.751 -3.5
      vertex -1.0037 -42.0353 -3.5
    endloop
  endfacet
  facet normal 0 0 -1
    outer loop
      vertex -1.37032 -42.5399 -3.5
      vertex -6.85159 -41.751 -3.5
      vertex -1.21352 -42.2683 -3.5
    endloop
  endfacet
  facet normal 0 0 -1
    outer loop
      vertex -1.46722 -42.8381 -3.5
      vertex -6.85159 -41.751 -3.5
      vertex -1.37032 -42.5399 -3.5
    endloop
  endfacet
  facet normal 0 0 -1
    outer loop
      vertex -7.5 -35.65 -3.5
      vertex 7.33611 -38.7687 -3.5
      vertex -7.33611 -38.7687 -3.5
    endloop
  endfacet
  facet normal 0 0 -1
    outer loop
      vertex -6.85159 -41.751 -3.5
      vertex -1.46722 -43.4619 -3.5
      vertex -1.37032 -43.7601 -3.5
    endloop
  endfacet
  facet normal 0 0 -1
    outer loop
      vertex -6.85159 -41.751 -3.5
      vertex -1.37032 -43.7601 -3.5
      vertex -6.06763 -44.4668 -3.5
    endloop
  endfacet
  facet normal 0 1 0
    outer loop
      vertex 4.62223e-32 35.65 -1.0625
      vertex -80.5 35.65 0.94606
      vertex 80.3367 35.65 0.94606
    endloop
  endfacet
  facet normal 0 1 0
    outer loop
      vertex 80.5 35.65 -3.5
      vertex 80.3367 35.65 0.94606
      vertex 80.5 35.65 0.94606
    endloop
  endfacet
  facet normal 0 1 0
    outer loop
      vertex -3.2476 35.65 -2.46875
      vertex -80.5 35.65 0.94606
      vertex 4.62223e-32 35.65 -1.0625
    endloop
  endfacet
  facet normal 0 1 0
    outer loop
      vertex 80.5 35.65 -3.5
      vertex 4.62223e-32 35.65 -1.0625
      vertex 80.3367 35.65 0.94606
    endloop
  endfacet
  facet normal 0 1 0
    outer loop
      vertex -80.5 35.65 -3.5
      vertex -80.5 35.65 0.94606
      vertex -3.2476 35.65 -2.46875
    endloop
  endfacet
  facet normal 0 1 0
    outer loop
      vertex -80.5 35.65 -3.5
      vertex -3.2476 35.65 -2.46875
      vertex 80.5 35.65 -3.5
    endloop
  endfacet
  facet normal 0 1 0
    outer loop
      vertex -3.2476 35.65 -2.46875
      vertex 3.2476 35.65 -2.46875
      vertex 80.5 35.65 -3.5
    endloop
  endfacet
  facet normal 0 1 0
    outer loop
      vertex 4.62223e-32 35.65 -1.0625
      vertex 80.5 35.65 -3.5
      vertex 3.2476 35.65 -2.46875
    endloop
  endfacet
  facet normal -2.22045e-16 4.93038e-32 1
    outer loop
      vertex 80.3367 35.4867 0.94606
      vertex 80.3367 35.65 0.94606
      vertex -80.5 35.65 0.94606
    endloop
  endfacet
  facet normal -2.22045e-16 4.93038e-32 1
    outer loop
      vertex -80.5 35.4867 0.94606
      vertex 80.3367 35.4867 0.94606
      vertex -80.5 35.65 0.94606
    endloop
  endfacet
  facet normal -1.71027e-16 0.20791 0.978148
    outer loop
      vertex -80.3367 35.4867 0.94606
      vertex -80.0172 35.1672 1.01397
      vertex 80.0172 35.1672 1.01397
    endloop
  endfacet
  facet normal -1.71027e-16 0.20791 0.978148
    outer loop
      vertex 80.3367 35.4867 0.94606
      vertex -80.3367 35.4867 0.94606
      vertex 80.0172 35.1672 1.01397
    endloop
  endfacet
  facet normal -1.71027e-16 0.20791 0.978148
    outer loop
      vertex -80.5 35.4867 0.94606
      vertex -80.3367 35.4867 0.94606
      vertex 80.3367 35.4867 0.94606
    endloop
  endfacet
  facet normal 0 2.22045e-16 1
    outer loop
      vertex -80.3367 -35.4867 0.94606
      vertex -80.3367 35.4867 0.94606
      vertex -80.5 35.4867 0.94606
    endloop
  endfacet
  facet normal 0 2.22045e-16 1
    outer loop
      vertex -80.5 -35.4867 0.94606
      vertex -80.3367 -35.4867 0.94606
      vertex -80.5 35.4867 0.94606
    endloop
  endfacet
  facet normal -2.63358e-16 -0.20791 0.978148
    outer loop
      vertex 80.3367 -35.4867 0.94606
      vertex 80.0172 -35.1672 1.01397
      vertex -80.0172 -35.1672 1.01397
    endloop
  endfacet
  facet normal -2.63358e-16 -0.20791 0.978148
    outer loop
      vertex 80.3367 -35.4867 0.94606
      vertex -80.3367 -35.4867 0.94606
      vertex -80.5 -35.4867 0.94606
    endloop
  endfacet
  facet normal -2.63358e-16 -0.20791 0.978148
    outer loop
      vertex 80.3367 -35.4867 0.94606
      vertex -80.0172 -35.1672 1.01397
      vertex -80.3367 -35.4867 0.94606
    endloop
  endfacet
  facet normal -2.22045e-16 4.93038e-32 1
    outer loop
      vertex 80.3367 -35.65 0.94606
      vertex 80.3367 -35.4867 0.94606
      vertex -80.5 -35.4867 0.94606
    endloop
  endfacet
  facet normal -2.22045e-16 4.93038e-32 1
    outer loop
      vertex -80.5 -35.65 0.94606
      vertex 80.3367 -35.65 0.94606
      vertex -80.5 -35.4867 0.94606
    endloop
  endfacet
  facet normal 2.03762e-16 -0.39736 -0.917663
    outer loop
      vertex -75.5 3.2476 -2.46875
      vertex -75.5 0 -1.0625
      vertex -80.5 3.2476 -2.46875
    endloop
  endfacet
  facet normal 2.03762e-16 -0.39736 -0.917663
    outer loop
      vertex -80.5 3.2476 -2.46875
      vertex -75.5 0 -1.0625
      vertex -80.5 0 -1.0625
    endloop
  endfacet
  facet normal 2.03762e-16 0.39736 -0.917663
    outer loop
      vertex -75.5 0 -1.0625
      vertex -75.5 -3.2476 -2.46875
      vertex -80.5 0 -1.0625
    endloop
  endfacet
  facet normal 2.03762e-16 0.39736 -0.917663
    outer loop
      vertex -80.5 0 -1.0625
      vertex -75.5 -3.2476 -2.46875
      vertex -80.5 -3.2476 -2.46875
    endloop
  endfacet
  facet normal -2.22045e-16 0 1
    outer loop
      vertex -75.5 -3.2476 -2.46875
      vertex -75.5 3.2476 -2.46875
      vertex -80.5 3.2476 -2.46875
    endloop
  endfacet
  facet normal -2.22045e-16 0 1
    outer loop
      vertex -80.5 -3.2476 -2.46875
      vertex -75.5 -3.2476 -2.46875
      vertex -80.5 3.2476 -2.46875
    endloop
  endfacet
  facet normal 0.20791 2.17192e-16 0.978148
    outer loop
      vertex 80.3367 35.65 0.94606
      vertex 80.3367 -35.4867 0.94606
      vertex 80.3367 -35.65 0.94606
    endloop
  endfacet
  facet normal 0.20791 2.17192e-16 0.978148
    outer loop
      vertex 80.0172 -35.1672 1.01397
      vertex 80.3367 35.4867 0.94606
      vertex 80.0172 35.1672 1.01397
    endloop
  endfacet
  facet normal 0.20791 2.17192e-16 0.978148
    outer loop
      vertex 80.3367 35.4867 0.94606
      vertex 80.3367 -35.4867 0.94606
      vertex 80.3367 35.65 0.94606
    endloop
  endfacet
  facet normal 0.20791 2.17192e-16 0.978148
    outer loop
      vertex 80.0172 -35.1672 1.01397
      vertex 80.3367 -35.4867 0.94606
      vertex 80.3367 35.4867 0.94606
    endloop
  endfacet
  facet normal 0 2.22045e-16 1
    outer loop
      vertex 80.5 -35.65 0.94606
      vertex 80.5 35.65 0.94606
      vertex 80.3367 35.65 0.94606
    endloop
  endfacet
  facet normal 0 2.22045e-16 1
    outer loop
      vertex 80.3367 -35.65 0.94606
      vertex 80.5 -35.65 0.94606
      vertex 80.3367 35.65 0.94606
    endloop
  endfacet
  facet normal 1 0 0
    outer loop
      vertex 80.5 -3.2476 -2.46875
      vertex 80.5 -35.65 -3.5
      vertex 80.5 35.65 -3.5
    endloop
  endfacet
  facet normal 1 0 0
    outer loop
      vertex 80.5 3.2476 -2.46875
      vertex 80.5 -3.2476 -2.46875
      vertex 80.5 35.65 -3.5
    endloop
  endfacet
  facet normal 1 0 0
    outer loop
      vertex 80.5 -35.65 0.94606
      vertex 80.5 -35.65 -3.5
      vertex 80.5 -3.2476 -2.46875
    endloop
  endfacet
  facet normal 1 0 0
    outer loop
      vertex 80.5 35.65 0.94606
      vertex 80.5 0 -1.0625
      vertex 80.5 35.65 -3.5
    endloop
  endfacet
  facet normal 1 0 0
    outer loop
      vertex 80.5 35.65 0.94606
      vertex 80.5 -35.65 0.94606
      vertex 80.5 0 -1.0625
    endloop
  endfacet
  facet normal 1 0 0
    outer loop
      vertex 80.5 0 -1.0625
      vertex 80.5 3.2476 -2.46875
      vertex 80.5 35.65 -3.5
    endloop
  endfacet
  facet normal 1 0 0
    outer loop
      vertex 80.5 -3.2476 -2.46875
      vertex 80.5 0 -1.0625
      vertex 80.5 -35.65 0.94606
    endloop
  endfacet
  facet normal 0.998622 -0.0524797 0
    outer loop
      vertex 7.33611 -38.7687 -1
      vertex 7.33611 -38.7687 -3.5
      vertex 7.5 -35.65 -3.5
    endloop
  endfacet
  facet normal 0.998622 -0.0524797 0
    outer loop
      vertex 7.5 -35.65 -1
      vertex 7.33611 -38.7687 -1
      vertex 7.5 -35.65 -3.5
    endloop
  endfacet
  facet normal 0 0 1
    outer loop
      vertex 7.5 -35.65 -1
      vertex -7.5 -35.65 -1
      vertex -7.33611 -38.7687 -1
    endloop
  endfacet
  facet normal 0 0 1
    outer loop
      vertex -6.06763 -44.4668 -1
      vertex 7.5 -35.65 -1
      vertex -6.85159 -41.751 -1
    endloop
  endfacet
  facet normal 0 0 1
    outer loop
      vertex -6.85159 -41.751 -1
      vertex 7.5 -35.65 -1
      vertex -7.33611 -38.7687 -1
    endloop
  endfacet
  facet normal 0 0 1
    outer loop
      vertex -1.0037 -42.0353 -1
      vertex 7.5 -35.65 -1
      vertex -6.06763 -44.4668 -1
    endloop
  endfacet
  facet normal 0 0 1
    outer loop
      vertex -0.75 -41.851 -1
      vertex -0.463525 -41.7234 -1
      vertex 7.5 -35.65 -1
    endloop
  endfacet
  facet normal 0 0 1
    outer loop
      vertex 1.21352 -44.0317 -1
      vertex 1.0037 -44.2647 -1
      vertex -2.31763 -49.9158 -1
    endloop
  endfacet
  facet normal 0 0 1
    outer loop
      vertex -0.783963 -50.5678 -1
      vertex 7.5 -35.65 -1
      vertex -2.31763 -49.9158 -1
    endloop
  endfacet
  facet normal 0 0 1
    outer loop
      vertex 0.783963 -50.5678 -1
      vertex 7.5 -35.65 -1
      vertex -0.783963 -50.5678 -1
    endloop
  endfacet
  facet normal 0 0 1
    outer loop
      vertex 2.31763 -49.9158 -1
      vertex 7.5 -35.65 -1
      vertex 0.783963 -50.5678 -1
    endloop
  endfacet
  facet normal 0 0 1
    outer loop
      vertex 3.75 -48.6404 -1
      vertex 7.5 -35.65 -1
      vertex 2.31763 -49.9158 -1
    endloop
  endfacet
  facet normal 0 0 1
    outer loop
      vertex 5.01848 -46.7972 -1
      vertex 7.5 -35.65 -1
      vertex 3.75 -48.6404 -1
    endloop
  endfacet
  facet normal 0 0 1
    outer loop
      vertex 6.06763 -44.4668 -1
      vertex 7.5 -35.65 -1
      vertex 5.01848 -46.7972 -1
    endloop
  endfacet
  facet normal 0 0 1
    outer loop
      vertex 6.85159 -41.751 -1
      vertex 7.5 -35.65 -1
      vertex 6.06763 -44.4668 -1
    endloop
  endfacet
  facet normal 0 0 1
    outer loop
      vertex 7.33611 -38.7687 -1
      vertex 7.5 -35.65 -1
      vertex 6.85159 -41.751 -1
    endloop
  endfacet
  facet normal 0 0 1
    outer loop
      vertex -5.01848 -46.7972 -1
      vertex -1.46722 -43.4619 -1
      vertex -6.06763 -44.4668 -1
    endloop
  endfacet
  facet normal 0 0 1
    outer loop
      vertex -1.46722 -43.4619 -1
      vertex -1.5 -43.15 -1
      vertex -6.06763 -44.4668 -1
    endloop
  endfacet
  facet normal 0 0 1
    outer loop
      vertex -1.5 -43.15 -1
      vertex -1.46722 -42.8381 -1
      vertex -6.06763 -44.4668 -1
    endloop
  endfacet
  facet normal 0 0 1
    outer loop
      vertex -1.46722 -42.8381 -1
      vertex -1.37032 -42.5399 -1
      vertex -6.06763 -44.4668 -1
    endloop
  endfacet
  facet normal 0 0 1
    outer loop
      vertex -1.37032 -42.5399 -1
      vertex -1.21352 -42.2683 -1
      vertex -6.06763 -44.4668 -1
    endloop
  endfacet
  facet normal 0 0 1
    outer loop
      vertex -1.21352 -42.2683 -1
      vertex -1.0037 -42.0353 -1
      vertex -6.06763 -44.4668 -1
    endloop
  endfacet
  facet normal 0 0 1
    outer loop
      vertex -0.75 -41.851 -1
      vertex 7.5 -35.65 -1
      vertex -1.0037 -42.0353 -1
    endloop
  endfacet
  facet normal 0 0 1
    outer loop
      vertex -0.463525 -41.7234 -1
      vertex -0.156793 -41.6582 -1
      vertex 7.5 -35.65 -1
    endloop
  endfacet
  facet normal 0 0 1
    outer loop
      vertex -0.156793 -41.6582 -1
      vertex 0.156793 -41.6582 -1
      vertex 7.5 -35.65 -1
    endloop
  endfacet
  facet normal 0 0 1
    outer loop
      vertex 0.156793 -41.6582 -1
      vertex 0.463525 -41.7234 -1
      vertex 7.5 -35.65 -1
    endloop
  endfacet
  facet normal 0 0 1
    outer loop
      vertex 0.463525 -41.7234 -1
      vertex 0.75 -41.851 -1
      vertex 7.5 -35.65 -1
    endloop
  endfacet
  facet normal 0 0 1
    outer loop
      vertex 1.37032 -42.5399 -1
      vertex 1.46722 -42.8381 -1
      vertex 7.5 -35.65 -1
    endloop
  endfacet
  facet normal 0 0 1
    outer loop
      vertex 1.0037 -42.0353 -1
      vertex 7.5 -35.65 -1
      vertex 0.75 -41.851 -1
    endloop
  endfacet
  facet normal 0 0 1
    outer loop
      vertex 1.21352 -42.2683 -1
      vertex 7.5 -35.65 -1
      vertex 1.0037 -42.0353 -1
    endloop
  endfacet
  facet normal 0 0 1
    outer loop
      vertex -0.75 -44.449 -1
      vertex -1.0037 -44.2647 -1
      vertex -3.75 -48.6404 -1
    endloop
  endfacet
  facet normal 0 0 1
    outer loop
      vertex 1.37032 -42.5399 -1
      vertex 7.5 -35.65 -1
      vertex 1.21352 -42.2683 -1
    endloop
  endfacet
  facet normal 0 0 1
    outer loop
      vertex 1.0037 -44.2647 -1
      vertex 0.75 -44.449 -1
      vertex -2.31763 -49.9158 -1
    endloop
  endfacet
  facet normal 0 0 1
    outer loop
      vertex -0.156793 -44.6418 -1
      vertex -0.463525 -44.5766 -1
      vertex -3.75 -48.6404 -1
    endloop
  endfacet
  facet normal 0 0 1
    outer loop
      vertex 1.5 -43.15 -1
      vertex 7.5 -35.65 -1
      vertex 1.46722 -42.8381 -1
    endloop
  endfacet
  facet normal 0 0 1
    outer loop
      vertex 1.46722 -43.4619 -1
      vertex 7.5 -35.65 -1
      vertex 1.5 -43.15 -1
    endloop
  endfacet
  facet normal 0 0 1
    outer loop
      vertex 0.75 -44.449 -1
      vertex 0.463525 -44.5766 -1
      vertex -2.31763 -49.9158 -1
    endloop
  endfacet
  facet normal 0 0 1
    outer loop
      vertex 1.37032 -43.7601 -1
      vertex 7.5 -35.65 -1
      vertex 1.46722 -43.4619 -1
    endloop
  endfacet
  facet normal 0 0 1
    outer loop
      vertex 1.21352 -44.0317 -1
      vertex 7.5 -35.65 -1
      vertex 1.37032 -43.7601 -1
    endloop
  endfacet
  facet normal 0 0 1
    outer loop
      vertex -2.31763 -49.9158 -1
      vertex 7.5 -35.65 -1
      vertex 1.21352 -44.0317 -1
    endloop
  endfacet
  facet normal 0 0 1
    outer loop
      vertex -0.463525 -44.5766 -1
      vertex -0.75 -44.449 -1
      vertex -3.75 -48.6404 -1
    endloop
  endfacet
  facet normal 0 0 1
    outer loop
      vertex 0.156793 -44.6418 -1
      vertex -0.156793 -44.6418 -1
      vertex -3.75 -48.6404 -1
    endloop
  endfacet
  facet normal 0 0 1
    outer loop
      vertex -2.31763 -49.9158 -1
      vertex 0.463525 -44.5766 -1
      vertex -3.75 -48.6404 -1
    endloop
  endfacet
  facet normal 0 0 1
    outer loop
      vertex 0.463525 -44.5766 -1
      vertex 0.156793 -44.6418 -1
      vertex -3.75 -48.6404 -1
    endloop
  endfacet
  facet normal 0 0 1
    outer loop
      vertex -3.75 -48.6404 -1
      vertex -1.0037 -44.2647 -1
      vertex -5.01848 -46.7972 -1
    endloop
  endfacet
  facet normal 0 0 1
    outer loop
      vertex -1.0037 -44.2647 -1
      vertex -1.21352 -44.0317 -1
      vertex -5.01848 -46.7972 -1
    endloop
  endfacet
  facet normal 0 0 1
    outer loop
      vertex -1.21352 -44.0317 -1
      vertex -1.37032 -43.7601 -1
      vertex -5.01848 -46.7972 -1
    endloop
  endfacet
  facet normal 0 0 1
    outer loop
      vertex -1.37032 -43.7601 -1
      vertex -1.46722 -43.4619 -1
      vertex -5.01848 -46.7972 -1
    endloop
  endfacet
  facet normal -0.998622 -0.0524797 0
    outer loop
      vertex -7.5 -35.65 -3.5
      vertex -7.33611 -38.7687 -3.5
      vertex -7.5 -35.65 -1
    endloop
  endfacet
  facet normal -0.998622 -0.0524797 0
    outer loop
      vertex -7.5 -35.65 -1
      vertex -7.33611 -38.7687 -3.5
      vertex -7.33611 -38.7687 -1
    endloop
  endfacet
  facet normal -0.987059 -0.160357 0
    outer loop
      vertex -7.33611 -38.7687 -3.5
      vertex -6.85159 -41.751 -3.5
      vertex -7.33611 -38.7687 -1
    endloop
  endfacet
  facet normal -0.987059 -0.160357 0
    outer loop
      vertex -7.33611 -38.7687 -1
      vertex -6.85159 -41.751 -3.5
      vertex -6.85159 -41.751 -1
    endloop
  endfacet
  facet normal -0.960769 -0.27735 0
    outer loop
      vertex -6.85159 -41.751 -3.5
      vertex -6.06763 -44.4668 -3.5
      vertex -6.85159 -41.751 -1
    endloop
  endfacet
  facet normal -0.960769 -0.27735 0
    outer loop
      vertex -6.85159 -41.751 -1
      vertex -6.06763 -44.4668 -3.5
      vertex -6.06763 -44.4668 -1
    endloop
  endfacet
  facet normal -0.911853 -0.410518 0
    outer loop
      vertex -6.06763 -44.4668 -3.5
      vertex -5.01848 -46.7972 -3.5
      vertex -6.06763 -44.4668 -1
    endloop
  endfacet
  facet normal -0.911853 -0.410518 0
    outer loop
      vertex -6.06763 -44.4668 -1
      vertex -5.01848 -46.7972 -3.5
      vertex -5.01848 -46.7972 -1
    endloop
  endfacet
  facet normal -0.823776 -0.566915 0
    outer loop
      vertex -5.01848 -46.7972 -3.5
      vertex -3.75 -48.6404 -3.5
      vertex -5.01848 -46.7972 -1
    endloop
  endfacet
  facet normal -0.823776 -0.566915 0
    outer loop
      vertex -5.01848 -46.7972 -1
      vertex -3.75 -48.6404 -3.5
      vertex -3.75 -48.6404 -1
    endloop
  endfacet
  facet normal -0.665018 -0.746828 0
    outer loop
      vertex -3.75 -48.6404 -1
      vertex -3.75 -48.6404 -3.5
      vertex -2.31763 -49.9158 -3.5
    endloop
  endfacet
  facet normal -0.665018 -0.746828 0
    outer loop
      vertex -2.31763 -49.9158 -1
      vertex -3.75 -48.6404 -1
      vertex -2.31763 -49.9158 -3.5
    endloop
  endfacet
  facet normal -0.391228 -0.920294 0
    outer loop
      vertex -2.31763 -49.9158 -1
      vertex -2.31763 -49.9158 -3.5
      vertex -0.783963 -50.5678 -3.5
    endloop
  endfacet
  facet normal -0.391228 -0.920294 0
    outer loop
      vertex -0.783963 -50.5678 -1
      vertex -2.31763 -49.9158 -1
      vertex -0.783963 -50.5678 -3.5
    endloop
  endfacet
  facet normal 0 -1 0
    outer loop
      vertex -0.783963 -50.5678 -1
      vertex -0.783963 -50.5678 -3.5
      vertex 0.783963 -50.5678 -3.5
    endloop
  endfacet
  facet normal 0 -1 0
    outer loop
      vertex 0.783963 -50.5678 -1
      vertex -0.783963 -50.5678 -1
      vertex 0.783963 -50.5678 -3.5
    endloop
  endfacet
  facet normal 0.391228 -0.920294 0
    outer loop
      vertex 0.783963 -50.5678 -1
      vertex 0.783963 -50.5678 -3.5
      vertex 2.31763 -49.9158 -3.5
    endloop
  endfacet
  facet normal 0.391228 -0.920294 0
    outer loop
      vertex 2.31763 -49.9158 -1
      vertex 0.783963 -50.5678 -1
      vertex 2.31763 -49.9158 -3.5
    endloop
  endfacet
  facet normal 0.665018 -0.746828 0
    outer loop
      vertex 2.31763 -49.9158 -1
      vertex 2.31763 -49.9158 -3.5
      vertex 3.75 -48.6404 -3.5
    endloop
  endfacet
  facet normal 0.665018 -0.746828 0
    outer loop
      vertex 3.75 -48.6404 -1
      vertex 2.31763 -49.9158 -1
      vertex 3.75 -48.6404 -3.5
    endloop
  endfacet
  facet normal 0.823776 -0.566915 0
    outer loop
      vertex 3.75 -48.6404 -1
      vertex 3.75 -48.6404 -3.5
      vertex 5.01848 -46.7972 -3.5
    endloop
  endfacet
  facet normal 0.823776 -0.566915 0
    outer loop
      vertex 5.01848 -46.7972 -1
      vertex 3.75 -48.6404 -1
      vertex 5.01848 -46.7972 -3.5
    endloop
  endfacet
  facet normal 0.911853 -0.410518 0
    outer loop
      vertex 5.01848 -46.7972 -1
      vertex 5.01848 -46.7972 -3.5
      vertex 6.06763 -44.4668 -3.5
    endloop
  endfacet
  facet normal 0.911853 -0.410518 0
    outer loop
      vertex 6.06763 -44.4668 -1
      vertex 5.01848 -46.7972 -1
      vertex 6.06763 -44.4668 -3.5
    endloop
  endfacet
  facet normal 0.960769 -0.27735 0
    outer loop
      vertex 6.06763 -44.4668 -1
      vertex 6.06763 -44.4668 -3.5
      vertex 6.85159 -41.751 -3.5
    endloop
  endfacet
  facet normal 0.960769 -0.27735 0
    outer loop
      vertex 6.85159 -41.751 -1
      vertex 6.06763 -44.4668 -1
      vertex 6.85159 -41.751 -3.5
    endloop
  endfacet
  facet normal 0.987059 -0.160357 0
    outer loop
      vertex 6.85159 -41.751 -1
      vertex 6.85159 -41.751 -3.5
      vertex 7.33611 -38.7687 -3.5
    endloop
  endfacet
  facet normal 0.987059 -0.160357 0
    outer loop
      vertex 7.33611 -38.7687 -1
      vertex 6.85159 -41.751 -1
      vertex 7.33611 -38.7687 -3.5
    endloop
  endfacet
  facet normal 0.994522 -0.10453 0
    outer loop
      vertex -1.46722 -42.8381 -3.5
      vertex -1.46722 -42.8381 -1
      vertex -1.5 -43.15 -1
    endloop
  endfacet
  facet normal 0.994522 -0.10453 0
    outer loop
      vertex -1.5 -43.15 -3.5
      vertex -1.46722 -42.8381 -3.5
      vertex -1.5 -43.15 -1
    endloop
  endfacet
  facet normal 0.994522 0.10453 0
    outer loop
      vertex -1.5 -43.15 -1
      vertex -1.46722 -43.4619 -1
      vertex -1.46722 -43.4619 -3.5
    endloop
  endfacet
  facet normal 0.994522 0.10453 0
    outer loop
      vertex -1.5 -43.15 -3.5
      vertex -1.5 -43.15 -1
      vertex -1.46722 -43.4619 -3.5
    endloop
  endfacet
  facet normal 0.951057 -0.309017 0
    outer loop
      vertex -1.37032 -42.5399 -3.5
      vertex -1.37032 -42.5399 -1
      vertex -1.46722 -42.8381 -1
    endloop
  endfacet
  facet normal 0.951057 -0.309017 0
    outer loop
      vertex -1.46722 -42.8381 -3.5
      vertex -1.37032 -42.5399 -3.5
      vertex -1.46722 -42.8381 -1
    endloop
  endfacet
  facet normal 0.866025 -0.500001 0
    outer loop
      vertex -1.21352 -42.2683 -3.5
      vertex -1.21352 -42.2683 -1
      vertex -1.37032 -42.5399 -1
    endloop
  endfacet
  facet normal 0.866025 -0.500001 0
    outer loop
      vertex -1.37032 -42.5399 -3.5
      vertex -1.21352 -42.2683 -3.5
      vertex -1.37032 -42.5399 -1
    endloop
  endfacet
  facet normal 0.743145 -0.66913 0
    outer loop
      vertex -1.0037 -42.0353 -3.5
      vertex -1.0037 -42.0353 -1
      vertex -1.21352 -42.2683 -1
    endloop
  endfacet
  facet normal 0.743145 -0.66913 0
    outer loop
      vertex -1.21352 -42.2683 -3.5
      vertex -1.0037 -42.0353 -3.5
      vertex -1.21352 -42.2683 -1
    endloop
  endfacet
  facet normal 0.587785 -0.809017 0
    outer loop
      vertex -0.75 -41.851 -3.5
      vertex -0.75 -41.851 -1
      vertex -1.0037 -42.0353 -1
    endloop
  endfacet
  facet normal 0.587785 -0.809017 0
    outer loop
      vertex -1.0037 -42.0353 -3.5
      vertex -0.75 -41.851 -3.5
      vertex -1.0037 -42.0353 -1
    endloop
  endfacet
  facet normal 0.406737 -0.913545 0
    outer loop
      vertex -0.463525 -41.7234 -3.5
      vertex -0.463525 -41.7234 -1
      vertex -0.75 -41.851 -1
    endloop
  endfacet
  facet normal 0.406737 -0.913545 0
    outer loop
      vertex -0.75 -41.851 -3.5
      vertex -0.463525 -41.7234 -3.5
      vertex -0.75 -41.851 -1
    endloop
  endfacet
  facet normal 0.207912 -0.978148 0
    outer loop
      vertex -0.156793 -41.6582 -3.5
      vertex -0.156793 -41.6582 -1
      vertex -0.463525 -41.7234 -1
    endloop
  endfacet
  facet normal 0.207912 -0.978148 0
    outer loop
      vertex -0.463525 -41.7234 -3.5
      vertex -0.156793 -41.6582 -3.5
      vertex -0.463525 -41.7234 -1
    endloop
  endfacet
  facet normal 0 -1 0
    outer loop
      vertex 0.156793 -41.6582 -3.5
      vertex 0.156793 -41.6582 -1
      vertex -0.156793 -41.6582 -1
    endloop
  endfacet
  facet normal 0 -1 0
    outer loop
      vertex -0.156793 -41.6582 -3.5
      vertex 0.156793 -41.6582 -3.5
      vertex -0.156793 -41.6582 -1
    endloop
  endfacet
  facet normal -0.207912 -0.978148 0
    outer loop
      vertex 0.463525 -41.7234 -3.5
      vertex 0.463525 -41.7234 -1
      vertex 0.156793 -41.6582 -1
    endloop
  endfacet
  facet normal -0.207912 -0.978148 0
    outer loop
      vertex 0.156793 -41.6582 -3.5
      vertex 0.463525 -41.7234 -3.5
      vertex 0.156793 -41.6582 -1
    endloop
  endfacet
  facet normal -0.406737 -0.913545 0
    outer loop
      vertex 0.75 -41.851 -3.5
      vertex 0.75 -41.851 -1
      vertex 0.463525 -41.7234 -1
    endloop
  endfacet
  facet normal -0.406737 -0.913545 0
    outer loop
      vertex 0.463525 -41.7234 -3.5
      vertex 0.75 -41.851 -3.5
      vertex 0.463525 -41.7234 -1
    endloop
  endfacet
  facet normal -0.587785 -0.809017 0
    outer loop
      vertex 1.0037 -42.0353 -3.5
      vertex 1.0037 -42.0353 -1
      vertex 0.75 -41.851 -1
    endloop
  endfacet
  facet normal -0.587785 -0.809017 0
    outer loop
      vertex 0.75 -41.851 -3.5
      vertex 1.0037 -42.0353 -3.5
      vertex 0.75 -41.851 -1
    endloop
  endfacet
  facet normal -0.743145 -0.66913 0
    outer loop
      vertex 1.21352 -42.2683 -1
      vertex 1.0037 -42.0353 -1
      vertex 1.21352 -42.2683 -3.5
    endloop
  endfacet
  facet normal -0.743145 -0.66913 0
    outer loop
      vertex 1.21352 -42.2683 -3.5
      vertex 1.0037 -42.0353 -1
      vertex 1.0037 -42.0353 -3.5
    endloop
  endfacet
  facet normal -0.866025 -0.500001 0
    outer loop
      vertex 1.37032 -42.5399 -1
      vertex 1.21352 -42.2683 -1
      vertex 1.37032 -42.5399 -3.5
    endloop
  endfacet
  facet normal -0.866025 -0.500001 0
    outer loop
      vertex 1.37032 -42.5399 -3.5
      vertex 1.21352 -42.2683 -1
      vertex 1.21352 -42.2683 -3.5
    endloop
  endfacet
  facet normal -0.951057 -0.309017 0
    outer loop
      vertex 1.46722 -42.8381 -1
      vertex 1.37032 -42.5399 -1
      vertex 1.46722 -42.8381 -3.5
    endloop
  endfacet
  facet normal -0.951057 -0.309017 0
    outer loop
      vertex 1.46722 -42.8381 -3.5
      vertex 1.37032 -42.5399 -1
      vertex 1.37032 -42.5399 -3.5
    endloop
  endfacet
  facet normal -0.994522 -0.10453 0
    outer loop
      vertex 1.5 -43.15 -1
      vertex 1.46722 -42.8381 -1
      vertex 1.5 -43.15 -3.5
    endloop
  endfacet
  facet normal -0.994522 -0.10453 0
    outer loop
      vertex 1.5 -43.15 -3.5
      vertex 1.46722 -42.8381 -1
      vertex 1.46722 -42.8381 -3.5
    endloop
  endfacet
  facet normal -0.994522 0.10453 0
    outer loop
      vertex 1.5 -43.15 -1
      vertex 1.5 -43.15 -3.5
      vertex 1.46722 -43.4619 -1
    endloop
  endfacet
  facet normal -0.994522 0.10453 0
    outer loop
      vertex 1.46722 -43.4619 -1
      vertex 1.5 -43.15 -3.5
      vertex 1.46722 -43.4619 -3.5
    endloop
  endfacet
  facet normal -0.951057 0.309017 0
    outer loop
      vertex 1.46722 -43.4619 -1
      vertex 1.46722 -43.4619 -3.5
      vertex 1.37032 -43.7601 -1
    endloop
  endfacet
  facet normal -0.951057 0.309017 0
    outer loop
      vertex 1.37032 -43.7601 -1
      vertex 1.46722 -43.4619 -3.5
      vertex 1.37032 -43.7601 -3.5
    endloop
  endfacet
  facet normal -0.866025 0.500001 0
    outer loop
      vertex 1.37032 -43.7601 -1
      vertex 1.37032 -43.7601 -3.5
      vertex 1.21352 -44.0317 -1
    endloop
  endfacet
  facet normal -0.866025 0.500001 0
    outer loop
      vertex 1.21352 -44.0317 -1
      vertex 1.37032 -43.7601 -3.5
      vertex 1.21352 -44.0317 -3.5
    endloop
  endfacet
  facet normal -0.743145 0.66913 0
    outer loop
      vertex 1.21352 -44.0317 -1
      vertex 1.21352 -44.0317 -3.5
      vertex 1.0037 -44.2647 -1
    endloop
  endfacet
  facet normal -0.743145 0.66913 0
    outer loop
      vertex 1.0037 -44.2647 -1
      vertex 1.21352 -44.0317 -3.5
      vertex 1.0037 -44.2647 -3.5
    endloop
  endfacet
  facet normal -0.587785 0.809017 0
    outer loop
      vertex 1.0037 -44.2647 -1
      vertex 1.0037 -44.2647 -3.5
      vertex 0.75 -44.449 -1
    endloop
  endfacet
  facet normal -0.587785 0.809017 0
    outer loop
      vertex 0.75 -44.449 -1
      vertex 1.0037 -44.2647 -3.5
      vertex 0.75 -44.449 -3.5
    endloop
  endfacet
  facet normal -0.406737 0.913545 0
    outer loop
      vertex 0.75 -44.449 -1
      vertex 0.75 -44.449 -3.5
      vertex 0.463525 -44.5766 -1
    endloop
  endfacet
  facet normal -0.406737 0.913545 0
    outer loop
      vertex 0.463525 -44.5766 -1
      vertex 0.75 -44.449 -3.5
      vertex 0.463525 -44.5766 -3.5
    endloop
  endfacet
  facet normal -0.207912 0.978148 0
    outer loop
      vertex 0.463525 -44.5766 -1
      vertex 0.463525 -44.5766 -3.5
      vertex 0.156793 -44.6418 -1
    endloop
  endfacet
  facet normal -0.207912 0.978148 0
    outer loop
      vertex 0.156793 -44.6418 -1
      vertex 0.463525 -44.5766 -3.5
      vertex 0.156793 -44.6418 -3.5
    endloop
  endfacet
  facet normal 0 1 0
    outer loop
      vertex 0.156793 -44.6418 -1
      vertex 0.156793 -44.6418 -3.5
      vertex -0.156793 -44.6418 -1
    endloop
  endfacet
  facet normal 0 1 0
    outer loop
      vertex -0.156793 -44.6418 -1
      vertex 0.156793 -44.6418 -3.5
      vertex -0.156793 -44.6418 -3.5
    endloop
  endfacet
  facet normal 0.207912 0.978148 0
    outer loop
      vertex -0.156793 -44.6418 -1
      vertex -0.156793 -44.6418 -3.5
      vertex -0.463525 -44.5766 -1
    endloop
  endfacet
  facet normal 0.207912 0.978148 0
    outer loop
      vertex -0.463525 -44.5766 -1
      vertex -0.156793 -44.6418 -3.5
      vertex -0.463525 -44.5766 -3.5
    endloop
  endfacet
  facet normal 0.406737 0.913545 0
    outer loop
      vertex -0.463525 -44.5766 -1
      vertex -0.463525 -44.5766 -3.5
      vertex -0.75 -44.449 -1
    endloop
  endfacet
  facet normal 0.406737 0.913545 0
    outer loop
      vertex -0.75 -44.449 -1
      vertex -0.463525 -44.5766 -3.5
      vertex -0.75 -44.449 -3.5
    endloop
  endfacet
  facet normal 0.587785 0.809017 0
    outer loop
      vertex -0.75 -44.449 -1
      vertex -0.75 -44.449 -3.5
      vertex -1.0037 -44.2647 -1
    endloop
  endfacet
  facet normal 0.587785 0.809017 0
    outer loop
      vertex -1.0037 -44.2647 -1
      vertex -0.75 -44.449 -3.5
      vertex -1.0037 -44.2647 -3.5
    endloop
  endfacet
  facet normal 0.743145 0.66913 0
    outer loop
      vertex -1.21352 -44.0317 -1
      vertex -1.0037 -44.2647 -1
      vertex -1.0037 -44.2647 -3.5
    endloop
  endfacet
  facet normal 0.743145 0.66913 0
    outer loop
      vertex -1.21352 -44.0317 -3.5
      vertex -1.21352 -44.0317 -1
      vertex -1.0037 -44.2647 -3.5
    endloop
  endfacet
  facet normal 0.866025 0.500001 0
    outer loop
      vertex -1.37032 -43.7601 -1
      vertex -1.21352 -44.0317 -1
      vertex -1.21352 -44.0317 -3.5
    endloop
  endfacet
  facet normal 0.866025 0.500001 0
    outer loop
      vertex -1.37032 -43.7601 -3.5
      vertex -1.37032 -43.7601 -1
      vertex -1.21352 -44.0317 -3.5
    endloop
  endfacet
  facet normal 0.951057 0.309017 0
    outer loop
      vertex -1.46722 -43.4619 -1
      vertex -1.37032 -43.7601 -1
      vertex -1.37032 -43.7601 -3.5
    endloop
  endfacet
  facet normal 0.951057 0.309017 0
    outer loop
      vertex -1.46722 -43.4619 -3.5
      vertex -1.46722 -43.4619 -1
      vertex -1.37032 -43.7601 -3.5
    endloop
  endfacet
  facet normal 0.39736 1.15531e-16 -0.917663
    outer loop
      vertex 4.62223e-32 35.65 -1.0625
      vertex -1.11022e-15 30.65 -1.0625
      vertex -3.2476 35.65 -2.46875
    endloop
  endfacet
  facet normal 0.39736 1.15531e-16 -0.917663
    outer loop
      vertex -3.2476 35.65 -2.46875
      vertex -1.11022e-15 30.65 -1.0625
      vertex -3.2476 30.65 -2.46875
    endloop
  endfacet
  facet normal -0.39736 2.91994e-16 -0.917663
    outer loop
      vertex 3.2476 35.65 -2.46875
      vertex 3.24759 30.65 -2.46875
      vertex 4.62223e-32 35.65 -1.0625
    endloop
  endfacet
  facet normal -0.39736 2.91994e-16 -0.917663
    outer loop
      vertex 4.62223e-32 35.65 -1.0625
      vertex 3.24759 30.65 -2.46875
      vertex -1.11022e-15 30.65 -1.0625
    endloop
  endfacet
  facet normal -4.93038e-32 -2.22045e-16 1
    outer loop
      vertex 3.24759 30.65 -2.46875
      vertex 3.2476 35.65 -2.46875
      vertex -3.2476 35.65 -2.46875
    endloop
  endfacet
  facet normal -4.93038e-32 -2.22045e-16 1
    outer loop
      vertex -3.2476 30.65 -2.46875
      vertex 3.24759 30.65 -2.46875
      vertex -3.2476 35.65 -2.46875
    endloop
  endfacet
  facet normal -0.20791 2.17192e-16 0.978148
    outer loop
      vertex -80.3367 35.4867 0.94606
      vertex -80.0172 -35.1672 1.01397
      vertex -80.0172 35.1672 1.01397
    endloop
  endfacet
  facet normal -0.20791 2.17192e-16 0.978148
    outer loop
      vertex -80.3367 -35.4867 0.94606
      vertex -80.0172 -35.1672 1.01397
      vertex -80.3367 35.4867 0.94606
    endloop
  endfacet
  facet normal 0.406736 2.02848e-16 0.913546
    outer loop
      vertex 79.7188 34.8688 1.14683
      vertex 80.0172 -35.1672 1.01397
      vertex 80.0172 35.1672 1.01397
    endloop
  endfacet
  facet normal 0.406736 2.02848e-16 0.913546
    outer loop
      vertex 79.7188 -34.8688 1.14684
      vertex 80.0172 -35.1672 1.01397
      vertex 79.7188 34.8688 1.14683
    endloop
  endfacet
  facet normal -1.12534e-16 0.406736 0.913546
    outer loop
      vertex -80.0172 35.1672 1.01397
      vertex -79.7188 34.8688 1.14683
      vertex 79.7187 34.8687 1.14684
    endloop
  endfacet
  facet normal -1.12534e-16 0.406736 0.913546
    outer loop
      vertex 80.0172 35.1672 1.01397
      vertex -80.0172 35.1672 1.01397
      vertex 79.7188 34.8688 1.14683
    endloop
  endfacet
  facet normal -1.12534e-16 0.406736 0.913546
    outer loop
      vertex 79.7188 34.8688 1.14683
      vertex -80.0172 35.1672 1.01397
      vertex 79.7187 34.8687 1.14684
    endloop
  endfacet
  facet normal -2.93161e-16 -0.406736 0.913546
    outer loop
      vertex 80.0172 -35.1672 1.01397
      vertex 79.7188 -34.8688 1.14684
      vertex -79.7188 -34.8687 1.14683
    endloop
  endfacet
  facet normal -2.93161e-16 -0.406736 0.913546
    outer loop
      vertex -79.7188 -34.8687 1.14683
      vertex 79.7188 -34.8688 1.14684
      vertex 79.7187 -34.8688 1.14684
    endloop
  endfacet
  facet normal -2.93161e-16 -0.406736 0.913546
    outer loop
      vertex 80.0172 -35.1672 1.01397
      vertex -79.7188 -34.8687 1.14683
      vertex -80.0172 -35.1672 1.01397
    endloop
  endfacet
  facet normal -1 0 -2.22045e-16
    outer loop
      vertex -75.5 3.2476 -2.46875
      vertex -75.5 -3.2476 -2.46875
      vertex -75.5 0 -1.0625
    endloop
  endfacet
  facet normal 2.03762e-16 0.39736 -0.917663
    outer loop
      vertex 80.5 -3.2476 -2.46875
      vertex 75.5 -3.2476 -2.46875
      vertex 80.5 0 -1.0625
    endloop
  endfacet
  facet normal 2.03762e-16 0.39736 -0.917663
    outer loop
      vertex 80.5 0 -1.0625
      vertex 75.5 -3.2476 -2.46875
      vertex 75.5 0 -1.0625
    endloop
  endfacet
  facet normal -2.22045e-16 0 1
    outer loop
      vertex 80.5 -3.2476 -2.46875
      vertex 80.5 3.2476 -2.46875
      vertex 75.5 3.2476 -2.46875
    endloop
  endfacet
  facet normal -2.22045e-16 0 1
    outer loop
      vertex 75.5 -3.2476 -2.46875
      vertex 80.5 -3.2476 -2.46875
      vertex 75.5 3.2476 -2.46875
    endloop
  endfacet
  facet normal 2.03762e-16 -0.39736 -0.917663
    outer loop
      vertex 80.5 3.2476 -2.46875
      vertex 80.5 0 -1.0625
      vertex 75.5 3.2476 -2.46875
    endloop
  endfacet
  facet normal 2.03762e-16 -0.39736 -0.917663
    outer loop
      vertex 75.5 3.2476 -2.46875
      vertex 80.5 0 -1.0625
      vertex 75.5 0 -1.0625
    endloop
  endfacet
  facet normal 2.22045e-16 1 2.22045e-16
    outer loop
      vertex -1.11022e-15 30.65 -1.0625
      vertex 3.24759 30.65 -2.46875
      vertex -3.2476 30.65 -2.46875
    endloop
  endfacet
  facet normal -0.406736 2.02848e-16 0.913546
    outer loop
      vertex -79.7188 -34.8687 1.14683
      vertex -79.7188 -34.8687 1.14684
      vertex -79.7188 34.8687 1.14683
    endloop
  endfacet
  facet normal -0.406736 2.02848e-16 0.913546
    outer loop
      vertex -80.0172 35.1672 1.01397
      vertex -79.7188 -34.8687 1.14683
      vertex -79.7188 34.8688 1.14683
    endloop
  endfacet
  facet normal -0.406736 2.02848e-16 0.913546
    outer loop
      vertex -79.7188 34.8688 1.14683
      vertex -79.7188 -34.8687 1.14683
      vertex -79.7188 34.8687 1.14683
    endloop
  endfacet
  facet normal -0.406736 2.02848e-16 0.913546
    outer loop
      vertex -80.0172 -35.1672 1.01397
      vertex -79.7188 -34.8687 1.14683
      vertex -80.0172 35.1672 1.01397
    endloop
  endfacet
  facet normal 0.587785 1.79638e-16 0.809017
    outer loop
      vertex 79.7187 -34.8688 1.14684
      vertex 79.7188 -34.8688 1.14684
      vertex 79.7188 34.8688 1.14683
    endloop
  endfacet
  facet normal 0.587785 1.79638e-16 0.809017
    outer loop
      vertex 79.4545 34.6045 1.33884
      vertex 79.7187 -34.8688 1.14684
      vertex 79.7187 34.8687 1.14684
    endloop
  endfacet
  facet normal 0.587785 1.79638e-16 0.809017
    outer loop
      vertex 79.7187 34.8687 1.14684
      vertex 79.7187 -34.8688 1.14684
      vertex 79.7188 34.8688 1.14683
    endloop
  endfacet
  facet normal 0.587785 1.79638e-16 0.809017
    outer loop
      vertex 79.4545 -34.6045 1.33884
      vertex 79.7187 -34.8688 1.14684
      vertex 79.4545 34.6045 1.33884
    endloop
  endfacet
  facet normal -4.91235e-17 0.587785 0.809017
    outer loop
      vertex -79.7188 34.8687 1.14683
      vertex -79.4545 34.6045 1.33884
      vertex 79.4545 34.6045 1.33884
    endloop
  endfacet
  facet normal -4.91235e-17 0.587785 0.809017
    outer loop
      vertex 79.7187 34.8687 1.14684
      vertex -79.7188 34.8687 1.14683
      vertex 79.4545 34.6045 1.33884
    endloop
  endfacet
  facet normal -4.91235e-17 0.587785 0.809017
    outer loop
      vertex -79.7188 34.8688 1.14683
      vertex -79.7188 34.8687 1.14683
      vertex 79.7187 34.8687 1.14684
    endloop
  endfacet
  facet normal -3.10152e-16 -0.587785 0.809017
    outer loop
      vertex 79.7187 -34.8688 1.14684
      vertex 79.4545 -34.6045 1.33884
      vertex -79.4545 -34.6045 1.33884
    endloop
  endfacet
  facet normal -3.10152e-16 -0.587785 0.809017
    outer loop
      vertex 79.7187 -34.8688 1.14684
      vertex -79.7188 -34.8687 1.14684
      vertex -79.7188 -34.8687 1.14683
    endloop
  endfacet
  facet normal -3.10152e-16 -0.587785 0.809017
    outer loop
      vertex 79.7187 -34.8688 1.14684
      vertex -79.4545 -34.6045 1.33884
      vertex -79.7188 -34.8687 1.14684
    endloop
  endfacet
  facet normal 1 0 2.22045e-16
    outer loop
      vertex 75.5 -3.2476 -2.46875
      vertex 75.5 3.2476 -2.46875
      vertex 75.5 0 -1.0625
    endloop
  endfacet
  facet normal -0.587785 1.79638e-16 0.809017
    outer loop
      vertex -79.7188 34.8687 1.14683
      vertex -79.4545 -34.6045 1.33884
      vertex -79.4545 34.6045 1.33884
    endloop
  endfacet
  facet normal -0.587785 1.79638e-16 0.809017
    outer loop
      vertex -79.7188 -34.8687 1.14684
      vertex -79.4545 -34.6045 1.33884
      vertex -79.7188 34.8687 1.14683
    endloop
  endfacet
  facet normal 0.743146 1.48576e-16 0.669129
    outer loop
      vertex 79.2359 34.3859 1.58159
      vertex 79.4545 -34.6045 1.33884
      vertex 79.4545 34.6045 1.33884
    endloop
  endfacet
  facet normal 0.743146 1.48576e-16 0.669129
    outer loop
      vertex 79.2359 -34.3859 1.58159
      vertex 79.4545 -34.6045 1.33884
      vertex 79.2359 34.3859 1.58159
    endloop
  endfacet
  facet normal 1.64352e-17 0.743146 0.669129
    outer loop
      vertex -79.2359 34.3859 1.58159
      vertex 79.2359 34.3859 1.58159
      vertex -79.4545 34.6045 1.33884
    endloop
  endfacet
  facet normal 1.64352e-17 0.743146 0.669129
    outer loop
      vertex -79.4545 34.6045 1.33884
      vertex 79.2359 34.3859 1.58159
      vertex 79.4545 34.6045 1.33884
    endloop
  endfacet
  facet normal -3.13588e-16 -0.743146 0.669129
    outer loop
      vertex 79.4545 -34.6045 1.33884
      vertex 79.2359 -34.3859 1.58159
      vertex -79.2359 -34.3859 1.58159
    endloop
  endfacet
  facet normal -3.13588e-16 -0.743146 0.669129
    outer loop
      vertex 79.4545 -34.6045 1.33884
      vertex -79.2359 -34.3859 1.58159
      vertex -79.4545 -34.6045 1.33884
    endloop
  endfacet
  facet normal -0.743146 1.48576e-16 0.669129
    outer loop
      vertex -79.2359 -34.3859 1.58159
      vertex -79.2359 34.3859 1.58159
      vertex -79.4545 34.6045 1.33884
    endloop
  endfacet
  facet normal -0.743146 1.48576e-16 0.669129
    outer loop
      vertex -79.2359 -34.3859 1.58159
      vertex -79.4545 34.6045 1.33884
      vertex -79.4545 -34.6045 1.33884
    endloop
  endfacet
  facet normal 0.866025 1.11023e-16 0.500001
    outer loop
      vertex 79.0726 34.2226 1.86447
      vertex 79.2359 -34.3859 1.58159
      vertex 79.2359 34.3859 1.58159
    endloop
  endfacet
  facet normal 0.866025 1.11023e-16 0.500001
    outer loop
      vertex 79.0726 -34.2226 1.86447
      vertex 79.2359 -34.3859 1.58159
      vertex 79.0726 34.2226 1.86447
    endloop
  endfacet
  facet normal 8.12735e-17 0.866025 0.500001
    outer loop
      vertex -79.0726 34.2226 1.86447
      vertex 79.0726 34.2226 1.86447
      vertex -79.2359 34.3859 1.58159
    endloop
  endfacet
  facet normal 8.12735e-17 0.866025 0.500001
    outer loop
      vertex -79.2359 34.3859 1.58159
      vertex 79.0726 34.2226 1.86447
      vertex 79.2359 34.3859 1.58159
    endloop
  endfacet
  facet normal -3.03319e-16 -0.866025 0.500001
    outer loop
      vertex 79.2359 -34.3859 1.58159
      vertex 79.0726 -34.2226 1.86447
      vertex -79.0726 -34.2226 1.86447
    endloop
  endfacet
  facet normal -3.03319e-16 -0.866025 0.500001
    outer loop
      vertex 79.2359 -34.3859 1.58159
      vertex -79.0726 -34.2226 1.86447
      vertex -79.2359 -34.3859 1.58159
    endloop
  endfacet
  facet normal -0.866025 1.11023e-16 0.500001
    outer loop
      vertex -79.0726 -34.2226 1.86447
      vertex -79.0726 34.2226 1.86447
      vertex -79.2359 34.3859 1.58159
    endloop
  endfacet
  facet normal -0.866025 1.11023e-16 0.500001
    outer loop
      vertex -79.0726 -34.2226 1.86447
      vertex -79.2359 34.3859 1.58159
      vertex -79.2359 -34.3859 1.58159
    endloop
  endfacet
  facet normal 0.951056 6.86156e-17 0.309017
    outer loop
      vertex 78.9716 34.1216 2.17514
      vertex 79.0726 -34.2226 1.86447
      vertex 79.0726 34.2226 1.86447
    endloop
  endfacet
  facet normal 0.951056 6.86156e-17 0.309017
    outer loop
      vertex 78.9716 -34.1216 2.17514
      vertex 79.0726 -34.2226 1.86447
      vertex 78.9716 34.1216 2.17514
    endloop
  endfacet
  facet normal 1.42561e-16 0.951056 0.309017
    outer loop
      vertex -78.9716 34.1216 2.17514
      vertex 78.9716 34.1216 2.17514
      vertex -79.0726 34.2226 1.86447
    endloop
  endfacet
  facet normal 1.42561e-16 0.951056 0.309017
    outer loop
      vertex -79.0726 34.2226 1.86447
      vertex 78.9716 34.1216 2.17514
      vertex 79.0726 34.2226 1.86447
    endloop
  endfacet
  facet normal -2.79793e-16 -0.951056 0.309017
    outer loop
      vertex 79.0726 -34.2226 1.86447
      vertex 78.9716 -34.1216 2.17514
      vertex -78.9716 -34.1216 2.17514
    endloop
  endfacet
  facet normal -2.79793e-16 -0.951056 0.309017
    outer loop
      vertex 79.0726 -34.2226 1.86447
      vertex -78.9716 -34.1216 2.17514
      vertex -79.0726 -34.2226 1.86447
    endloop
  endfacet
  facet normal -0.951056 6.86156e-17 0.309017
    outer loop
      vertex -78.9716 -34.1216 2.17514
      vertex -78.9716 34.1216 2.17514
      vertex -79.0726 34.2226 1.86447
    endloop
  endfacet
  facet normal -0.951056 6.86156e-17 0.309017
    outer loop
      vertex -78.9716 -34.1216 2.17514
      vertex -79.0726 34.2226 1.86447
      vertex -79.0726 -34.2226 1.86447
    endloop
  endfacet
  facet normal 0.994522 2.32097e-17 0.104527
    outer loop
      vertex 78.9375 34.0875 2.5
      vertex 78.9716 -34.1216 2.17514
      vertex 78.9716 34.1216 2.17514
    endloop
  endfacet
  facet normal 0.994522 2.32097e-17 0.104527
    outer loop
      vertex 78.9375 -34.0875 2.5
      vertex 78.9716 -34.1216 2.17514
      vertex 78.9375 34.0875 2.5
    endloop
  endfacet
  facet normal 1.97619e-16 0.994522 0.104527
    outer loop
      vertex -78.9375 34.0875 2.5
      vertex 78.9375 34.0875 2.5
      vertex -78.9716 34.1216 2.17514
    endloop
  endfacet
  facet normal 1.97619e-16 0.994522 0.104527
    outer loop
      vertex -78.9716 34.1216 2.17514
      vertex 78.9375 34.0875 2.5
      vertex 78.9716 34.1216 2.17514
    endloop
  endfacet
  facet normal -2.44038e-16 -0.994522 0.104527
    outer loop
      vertex 78.9716 -34.1216 2.17514
      vertex 78.9375 -34.0875 2.5
      vertex -78.9375 -34.0875 2.5
    endloop
  endfacet
  facet normal -2.44038e-16 -0.994522 0.104527
    outer loop
      vertex 78.9716 -34.1216 2.17514
      vertex -78.9375 -34.0875 2.5
      vertex -78.9716 -34.1216 2.17514
    endloop
  endfacet
  facet normal -0.994522 2.32097e-17 0.104527
    outer loop
      vertex -78.9375 -34.0875 2.5
      vertex -78.9375 34.0875 2.5
      vertex -78.9716 34.1216 2.17514
    endloop
  endfacet
  facet normal -0.994522 2.32097e-17 0.104527
    outer loop
      vertex -78.9375 -34.0875 2.5
      vertex -78.9716 34.1216 2.17514
      vertex -78.9716 -34.1216 2.17514
    endloop
  endfacet
  facet normal 0.994522 -2.32097e-17 -0.104527
    outer loop
      vertex 78.9716 -34.1216 2.82486
      vertex 78.9375 34.0875 2.5
      vertex 78.9716 34.1216 2.82486
    endloop
  endfacet
  facet normal 0.994522 -2.32097e-17 -0.104527
    outer loop
      vertex 78.9375 34.0875 2.5
      vertex 78.9716 -34.1216 2.82486
      vertex 78.9375 -34.0875 2.5
    endloop
  endfacet
  facet normal 2.44038e-16 0.994522 -0.104527
    outer loop
      vertex 78.9716 34.1216 2.82486
      vertex 78.9375 34.0875 2.5
      vertex -78.9375 34.0875 2.5
    endloop
  endfacet
  facet normal 2.44038e-16 0.994522 -0.104527
    outer loop
      vertex -78.9375 34.0875 2.5
      vertex -78.9716 34.1216 2.82486
      vertex 78.9716 34.1216 2.82486
    endloop
  endfacet
  facet normal -1.97619e-16 -0.994522 -0.104527
    outer loop
      vertex 78.9716 -34.1216 2.82486
      vertex -78.9375 -34.0875 2.5
      vertex 78.9375 -34.0875 2.5
    endloop
  endfacet
  facet normal -1.97619e-16 -0.994522 -0.104527
    outer loop
      vertex -78.9716 -34.1216 2.82486
      vertex -78.9375 -34.0875 2.5
      vertex 78.9716 -34.1216 2.82486
    endloop
  endfacet
  facet normal -0.994522 -2.32097e-17 -0.104527
    outer loop
      vertex -78.9716 34.1216 2.82486
      vertex -78.9375 34.0875 2.5
      vertex -78.9375 -34.0875 2.5
    endloop
  endfacet
  facet normal -0.994522 -2.32097e-17 -0.104527
    outer loop
      vertex -78.9375 -34.0875 2.5
      vertex -78.9716 -34.1216 2.82486
      vertex -78.9716 34.1216 2.82486
    endloop
  endfacet
  facet normal 0.951056 -6.86156e-17 -0.309017
    outer loop
      vertex 79.0726 -34.2226 3.13553
      vertex 78.9716 34.1216 2.82486
      vertex 79.0726 34.2226 3.13553
    endloop
  endfacet
  facet normal 0.951056 -6.86156e-17 -0.309017
    outer loop
      vertex 78.9716 34.1216 2.82486
      vertex 79.0726 -34.2226 3.13553
      vertex 78.9716 -34.1216 2.82486
    endloop
  endfacet
  facet normal 2.79793e-16 0.951056 -0.309017
    outer loop
      vertex 79.0726 34.2226 3.13553
      vertex 78.9716 34.1216 2.82486
      vertex -78.9716 34.1216 2.82486
    endloop
  endfacet
  facet normal 2.79793e-16 0.951056 -0.309017
    outer loop
      vertex -78.9716 34.1216 2.82486
      vertex -79.0726 34.2226 3.13553
      vertex 79.0726 34.2226 3.13553
    endloop
  endfacet
  facet normal -1.42561e-16 -0.951056 -0.309017
    outer loop
      vertex 79.0726 -34.2226 3.13553
      vertex -78.9716 -34.1216 2.82486
      vertex 78.9716 -34.1216 2.82486
    endloop
  endfacet
  facet normal -1.42561e-16 -0.951056 -0.309017
    outer loop
      vertex -79.0726 -34.2226 3.13553
      vertex -78.9716 -34.1216 2.82486
      vertex 79.0726 -34.2226 3.13553
    endloop
  endfacet
  facet normal -0.951056 -6.86156e-17 -0.309017
    outer loop
      vertex -79.0726 34.2226 3.13553
      vertex -78.9716 34.1216 2.82486
      vertex -78.9716 -34.1216 2.82486
    endloop
  endfacet
  facet normal -0.951056 -6.86156e-17 -0.309017
    outer loop
      vertex -78.9716 -34.1216 2.82486
      vertex -79.0726 -34.2226 3.13553
      vertex -79.0726 34.2226 3.13553
    endloop
  endfacet
  facet normal 0.866025 -1.11023e-16 -0.500001
    outer loop
      vertex 79.2359 -34.3859 3.41841
      vertex 79.0726 34.2226 3.13553
      vertex 79.2359 34.3859 3.41841
    endloop
  endfacet
  facet normal 0.866025 -1.11023e-16 -0.500001
    outer loop
      vertex 79.0726 34.2226 3.13553
      vertex 79.2359 -34.3859 3.41841
      vertex 79.0726 -34.2226 3.13553
    endloop
  endfacet
  facet normal 3.03319e-16 0.866025 -0.500001
    outer loop
      vertex 79.2359 34.3859 3.41841
      vertex 79.0726 34.2226 3.13553
      vertex -79.0726 34.2226 3.13553
    endloop
  endfacet
  facet normal 3.03319e-16 0.866025 -0.500001
    outer loop
      vertex -79.0726 34.2226 3.13553
      vertex -79.2359 34.3859 3.41841
      vertex 79.2359 34.3859 3.41841
    endloop
  endfacet
  facet normal -8.12735e-17 -0.866025 -0.500001
    outer loop
      vertex 79.2359 -34.3859 3.41841
      vertex -79.0726 -34.2226 3.13553
      vertex 79.0726 -34.2226 3.13553
    endloop
  endfacet
  facet normal -8.12735e-17 -0.866025 -0.500001
    outer loop
      vertex -79.2359 -34.3859 3.41841
      vertex -79.0726 -34.2226 3.13553
      vertex 79.2359 -34.3859 3.41841
    endloop
  endfacet
  facet normal -0.866025 -1.11023e-16 -0.500001
    outer loop
      vertex -79.2359 34.3859 3.41841
      vertex -79.0726 34.2226 3.13553
      vertex -79.0726 -34.2226 3.13553
    endloop
  endfacet
  facet normal -0.866025 -1.11023e-16 -0.500001
    outer loop
      vertex -79.0726 -34.2226 3.13553
      vertex -79.2359 -34.3859 3.41841
      vertex -79.2359 34.3859 3.41841
    endloop
  endfacet
  facet normal 0.743146 -1.48576e-16 -0.669129
    outer loop
      vertex 79.3094 -34.4594 3.5
      vertex 79.2359 34.3859 3.41841
      vertex 79.3094 34.4594 3.5
    endloop
  endfacet
  facet normal 0.743146 -1.48576e-16 -0.669129
    outer loop
      vertex 79.2359 34.3859 3.41841
      vertex 79.3094 -34.4594 3.5
      vertex 79.2359 -34.3859 3.41841
    endloop
  endfacet
  facet normal 3.13588e-16 0.743146 -0.669129
    outer loop
      vertex 79.2359 34.3859 3.41841
      vertex -79.2359 34.3859 3.41841
      vertex 79.3094 34.4594 3.5
    endloop
  endfacet
  facet normal 3.13588e-16 0.743146 -0.669129
    outer loop
      vertex 79.3094 34.4594 3.5
      vertex -79.2359 34.3859 3.41841
      vertex -79.3094 34.4594 3.5
    endloop
  endfacet
  facet normal -1.64352e-17 -0.743146 -0.669129
    outer loop
      vertex -79.3094 -34.4594 3.5
      vertex -79.2359 -34.3859 3.41841
      vertex 79.3094 -34.4594 3.5
    endloop
  endfacet
  facet normal -1.64352e-17 -0.743146 -0.669129
    outer loop
      vertex 79.3094 -34.4594 3.5
      vertex -79.2359 -34.3859 3.41841
      vertex 79.2359 -34.3859 3.41841
    endloop
  endfacet
  facet normal -0.743146 -1.48576e-16 -0.669129
    outer loop
      vertex -79.2359 -34.3859 3.41841
      vertex -79.3094 -34.4594 3.5
      vertex -79.2359 34.3859 3.41841
    endloop
  endfacet
  facet normal -0.743146 -1.48576e-16 -0.669129
    outer loop
      vertex -79.2359 34.3859 3.41841
      vertex -79.3094 -34.4594 3.5
      vertex -79.3094 34.4594 3.5
    endloop
  endfacet
  facet normal 0 0 1
    outer loop
      vertex -78 -33.15 3.5
      vertex -79.3094 34.4594 3.5
      vertex -79.3094 -34.4594 3.5
    endloop
  endfacet
  facet normal 0 0 1
    outer loop
      vertex -78 33.15 3.5
      vertex 78 33.15 3.5
      vertex 79.3094 34.4594 3.5
    endloop
  endfacet
  facet normal 0 0 1
    outer loop
      vertex -78 33.15 3.5
      vertex -79.3094 34.4594 3.5
      vertex -78 -33.15 3.5
    endloop
  endfacet
  facet normal 0 0 1
    outer loop
      vertex 79.3094 34.4594 3.5
      vertex -79.3094 34.4594 3.5
      vertex -78 33.15 3.5
    endloop
  endfacet
  facet normal 0 0 1
    outer loop
      vertex 79.3094 -34.4594 3.5
      vertex 79.3094 34.4594 3.5
      vertex 78 33.15 3.5
    endloop
  endfacet
  facet normal 0 0 1
    outer loop
      vertex 79.3094 -34.4594 3.5
      vertex 78 -33.15 3.5
      vertex -79.3094 -34.4594 3.5
    endloop
  endfacet
  facet normal 0 0 1
    outer loop
      vertex 79.3094 -34.4594 3.5
      vertex 78 33.15 3.5
      vertex 78 -33.15 3.5
    endloop
  endfacet
  facet normal 0 0 1
    outer loop
      vertex 78 -33.15 3.5
      vertex -78 -33.15 3.5
      vertex -79.3094 -34.4594 3.5
    endloop
  endfacet
  facet normal 1 0 0
    outer loop
      vertex -78 33.15 -0.5
      vertex -78 33.15 3.5
      vertex -78 -33.15 3.5
    endloop
  endfacet
  facet normal 1 0 0
    outer loop
      vertex -78 -33.15 -0.5
      vertex -78 33.15 -0.5
      vertex -78 -33.15 3.5
    endloop
  endfacet
  facet normal 0 1 0
    outer loop
      vertex 78 -33.15 3.5
      vertex 78 -33.15 -0.5
      vertex -78 -33.15 3.5
    endloop
  endfacet
  facet normal 0 1 0
    outer loop
      vertex -78 -33.15 3.5
      vertex 78 -33.15 -0.5
      vertex -78 -33.15 -0.5
    endloop
  endfacet
  facet normal -1 0 0
    outer loop
      vertex 78 33.15 3.5
      vertex 78 33.15 -0.5
      vertex 78 -33.15 3.5
    endloop
  endfacet
  facet normal -1 0 0
    outer loop
      vertex 78 -33.15 3.5
      vertex 78 33.15 -0.5
      vertex 78 -33.15 -0.5
    endloop
  endfacet
  facet normal 0 -1 0
    outer loop
      vertex 78 33.15 -0.5
      vertex 78 33.15 3.5
      vertex -78 33.15 3.5
    endloop
  endfacet
  facet normal 0 -1 0
    outer loop
      vertex -78 33.15 -0.5
      vertex 78 33.15 -0.5
      vertex -78 33.15 3.5
    endloop
  endfacet
  facet normal 0 0 1
    outer loop
      vertex 78 -33.15 -0.5
      vertex 78 33.15 -0.5
      vertex -78 33.15 -0.5
    endloop
  endfacet
  facet normal 0 0 1
    outer loop
      vertex -78 -33.15 -0.5
      vertex 78 -33.15 -0.5
      vertex -78 33.15 -0.5
    endloop
  endfacet
  facet normal 4.93038e-32 2.22045e-16 -1
    outer loop
      vertex -3.2476 -35.65 -2.46875
      vertex -3.24759 -30.65 -2.46875
      vertex 3.2476 -35.65 -2.46875
    endloop
  endfacet
  facet normal 4.93038e-32 2.22045e-16 -1
    outer loop
      vertex 3.2476 -35.65 -2.46875
      vertex -3.24759 -30.65 -2.46875
      vertex 3.2476 -30.65 -2.46875
    endloop
  endfacet
  facet normal -0.39736 -1.15531e-16 0.917663
    outer loop
      vertex -3.24759 -30.65 -2.46875
      vertex -3.2476 -35.65 -2.46875
      vertex 4.62223e-32 -35.65 -1.0625
    endloop
  endfacet
  facet normal -0.39736 -1.15531e-16 0.917663
    outer loop
      vertex 1.11022e-15 -30.65 -1.0625
      vertex -3.24759 -30.65 -2.46875
      vertex 4.62223e-32 -35.65 -1.0625
    endloop
  endfacet
  facet normal 0 -1 0
    outer loop
      vertex 4.62223e-32 -35.65 -1.0625
      vertex -3.2476 -35.65 -2.46875
      vertex 3.2476 -35.65 -2.46875
    endloop
  endfacet
  facet normal 0.39736 -2.91994e-16 0.917663
    outer loop
      vertex 1.11022e-15 -30.65 -1.0625
      vertex 4.62223e-32 -35.65 -1.0625
      vertex 3.2476 -35.65 -2.46875
    endloop
  endfacet
  facet normal 0.39736 -2.91994e-16 0.917663
    outer loop
      vertex 3.2476 -30.65 -2.46875
      vertex 1.11022e-15 -30.65 -1.0625
      vertex 3.2476 -35.65 -2.46875
    endloop
  endfacet
  facet normal 2.22045e-16 1 2.22045e-16
    outer loop
      vertex 3.2476 -30.65 -2.46875
      vertex -3.24759 -30.65 -2.46875
      vertex 1.11022e-15 -30.65 -1.0625
    endloop
  endfacet
endsolid OpenSCAD_Model
