solid OpenSCAD_Model
  facet normal -1 0 0
    outer loop
      vertex -81.25 -36.4 -3.5
      vertex -81.25 -36.4 0.239723
      vertex -81.25 36.4 -3.5
    endloop
  endfacet
  facet normal -1 0 0
    outer loop
      vertex -81.25 36.4 -3.5
      vertex -81.25 -36.4 0.239723
      vertex -81.25 -36.1624 0.239723
    endloop
  endfacet
  facet normal -1 0 0
    outer loop
      vertex -81.25 36.4 -3.5
      vertex -81.25 -36.1624 0.239723
      vertex -81.25 36.1624 0.239723
    endloop
  endfacet
  facet normal -1 0 0
    outer loop
      vertex -81.25 36.4 -3.5
      vertex -81.25 36.1624 0.239723
      vertex -81.25 36.4 0.239723
    endloop
  endfacet
  facet normal 0 -1 0
    outer loop
      vertex -81.25 -36.4 0.239723
      vertex -81.25 -36.4 -3.5
      vertex -11.25 -36.4 -3.5
    endloop
  endfacet
  facet normal 0 -1 0
    outer loop
      vertex 11.25 -36.4 -1
      vertex -81.25 -36.4 0.239723
      vertex -11.25 -36.4 -1
    endloop
  endfacet
  facet normal 0 -1 0
    outer loop
      vertex -11.25 -36.4 -1
      vertex -81.25 -36.4 0.239723
      vertex -11.25 -36.4 -3.5
    endloop
  endfacet
  facet normal 0 -1 0
    outer loop
      vertex 81.25 -36.4 0.239723
      vertex -81.25 -36.4 0.239723
      vertex 11.25 -36.4 -1
    endloop
  endfacet
  facet normal 0 -1 0
    outer loop
      vertex 81.25 -36.4 -3.5
      vertex 11.25 -36.4 -1
      vertex 11.25 -36.4 -3.5
    endloop
  endfacet
  facet normal 0 -1 0
    outer loop
      vertex 81.25 -36.4 0.239723
      vertex 11.25 -36.4 -1
      vertex 81.25 -36.4 -3.5
    endloop
  endfacet
  facet normal 0 -1 0
    outer loop
      vertex 81.0124 -36.4 0.239723
      vertex -81.25 -36.4 0.239723
      vertex 81.25 -36.4 0.239723
    endloop
  endfacet
  facet normal 0 0 -1
    outer loop
      vertex -81.25 -36.4 -3.5
      vertex -81.25 36.4 -3.5
      vertex -11.25 -36.4 -3.5
    endloop
  endfacet
  facet normal 0 0 -1
    outer loop
      vertex -11.25 -36.4 -3.5
      vertex -81.25 36.4 -3.5
      vertex 81.25 36.4 -3.5
    endloop
  endfacet
  facet normal 0 0 -1
    outer loop
      vertex 11.25 -36.4 -3.5
      vertex 81.25 36.4 -3.5
      vertex 81.25 -36.4 -3.5
    endloop
  endfacet
  facet normal 0 0 -1
    outer loop
      vertex -11.25 -36.4 -3.5
      vertex 81.25 36.4 -3.5
      vertex 11.25 -36.4 -3.5
    endloop
  endfacet
  facet normal 0 0 -1
    outer loop
      vertex -5.625 -55.8856 -3.5
      vertex 1.17595 -58.7767 -3.5
      vertex -3.47644 -57.7988 -3.5
    endloop
  endfacet
  facet normal 0 0 -1
    outer loop
      vertex 11.25 -36.4 -3.5
      vertex 11.0042 -41.078 -3.5
      vertex -11.25 -36.4 -3.5
    endloop
  endfacet
  facet normal 0 0 -1
    outer loop
      vertex -1.5 -47.65 -3.5
      vertex -10.2774 -45.5516 -3.5
      vertex -1.46722 -47.3381 -3.5
    endloop
  endfacet
  facet normal 0 0 -1
    outer loop
      vertex -10.2774 -45.5516 -3.5
      vertex -1.5 -47.65 -3.5
      vertex -1.46722 -47.9619 -3.5
    endloop
  endfacet
  facet normal 0 0 -1
    outer loop
      vertex -9.10144 -49.6252 -3.5
      vertex 7.52772 -53.1208 -3.5
      vertex 5.625 -55.8856 -3.5
    endloop
  endfacet
  facet normal 0 0 -1
    outer loop
      vertex -7.52772 -53.1208 -3.5
      vertex 3.47644 -57.7988 -3.5
      vertex -5.625 -55.8856 -3.5
    endloop
  endfacet
  facet normal 0 0 -1
    outer loop
      vertex 1.17595 -58.7767 -3.5
      vertex -1.17595 -58.7767 -3.5
      vertex -3.47644 -57.7988 -3.5
    endloop
  endfacet
  facet normal 0 0 -1
    outer loop
      vertex 3.47644 -57.7988 -3.5
      vertex 1.17595 -58.7767 -3.5
      vertex -5.625 -55.8856 -3.5
    endloop
  endfacet
  facet normal 0 0 -1
    outer loop
      vertex -9.10144 -49.6252 -3.5
      vertex 5.625 -55.8856 -3.5
      vertex -7.52772 -53.1208 -3.5
    endloop
  endfacet
  facet normal 0 0 -1
    outer loop
      vertex 5.625 -55.8856 -3.5
      vertex 3.47644 -57.7988 -3.5
      vertex -7.52772 -53.1208 -3.5
    endloop
  endfacet
  facet normal 0 0 -1
    outer loop
      vertex 9.10144 -49.6252 -3.5
      vertex 7.52772 -53.1208 -3.5
      vertex -9.10144 -49.6252 -3.5
    endloop
  endfacet
  facet normal 0 0 -1
    outer loop
      vertex -0.463525 -46.2234 -3.5
      vertex -10.2774 -45.5516 -3.5
      vertex -0.156793 -46.1582 -3.5
    endloop
  endfacet
  facet normal 0 0 -1
    outer loop
      vertex 11.0042 -41.078 -3.5
      vertex 10.2774 -45.5516 -3.5
      vertex -11.0042 -41.078 -3.5
    endloop
  endfacet
  facet normal 0 0 -1
    outer loop
      vertex 0.463525 -49.0766 -3.5
      vertex 9.10144 -49.6252 -3.5
      vertex 0.156793 -49.1418 -3.5
    endloop
  endfacet
  facet normal 0 0 -1
    outer loop
      vertex -11.0042 -41.078 -3.5
      vertex 10.2774 -45.5516 -3.5
      vertex -10.2774 -45.5516 -3.5
    endloop
  endfacet
  facet normal 0 0 -1
    outer loop
      vertex 1.46722 -47.9619 -3.5
      vertex 9.10144 -49.6252 -3.5
      vertex 1.37032 -48.2601 -3.5
    endloop
  endfacet
  facet normal 0 0 -1
    outer loop
      vertex -1.21352 -48.5317 -3.5
      vertex -9.10144 -49.6252 -3.5
      vertex -1.37032 -48.2601 -3.5
    endloop
  endfacet
  facet normal 0 0 -1
    outer loop
      vertex -1.0037 -48.7647 -3.5
      vertex -9.10144 -49.6252 -3.5
      vertex -1.21352 -48.5317 -3.5
    endloop
  endfacet
  facet normal 0 0 -1
    outer loop
      vertex -0.75 -48.949 -3.5
      vertex -9.10144 -49.6252 -3.5
      vertex -1.0037 -48.7647 -3.5
    endloop
  endfacet
  facet normal 0 0 -1
    outer loop
      vertex -0.463525 -49.0766 -3.5
      vertex -9.10144 -49.6252 -3.5
      vertex -0.75 -48.949 -3.5
    endloop
  endfacet
  facet normal 0 0 -1
    outer loop
      vertex -0.156793 -49.1418 -3.5
      vertex -9.10144 -49.6252 -3.5
      vertex -0.463525 -49.0766 -3.5
    endloop
  endfacet
  facet normal 0 0 -1
    outer loop
      vertex 9.10144 -49.6252 -3.5
      vertex -9.10144 -49.6252 -3.5
      vertex -0.156793 -49.1418 -3.5
    endloop
  endfacet
  facet normal 0 0 -1
    outer loop
      vertex 9.10144 -49.6252 -3.5
      vertex -0.156793 -49.1418 -3.5
      vertex 0.156793 -49.1418 -3.5
    endloop
  endfacet
  facet normal 0 0 -1
    outer loop
      vertex 0.75 -48.949 -3.5
      vertex 9.10144 -49.6252 -3.5
      vertex 0.463525 -49.0766 -3.5
    endloop
  endfacet
  facet normal 0 0 -1
    outer loop
      vertex 1.0037 -48.7647 -3.5
      vertex 9.10144 -49.6252 -3.5
      vertex 0.75 -48.949 -3.5
    endloop
  endfacet
  facet normal 0 0 -1
    outer loop
      vertex 1.21352 -48.5317 -3.5
      vertex 9.10144 -49.6252 -3.5
      vertex 1.0037 -48.7647 -3.5
    endloop
  endfacet
  facet normal 0 0 -1
    outer loop
      vertex 1.37032 -48.2601 -3.5
      vertex 9.10144 -49.6252 -3.5
      vertex 1.21352 -48.5317 -3.5
    endloop
  endfacet
  facet normal 0 0 -1
    outer loop
      vertex 10.2774 -45.5516 -3.5
      vertex 9.10144 -49.6252 -3.5
      vertex 1.46722 -47.9619 -3.5
    endloop
  endfacet
  facet normal 0 0 -1
    outer loop
      vertex 10.2774 -45.5516 -3.5
      vertex 1.46722 -47.9619 -3.5
      vertex 1.5 -47.65 -3.5
    endloop
  endfacet
  facet normal 0 0 -1
    outer loop
      vertex 10.2774 -45.5516 -3.5
      vertex 1.5 -47.65 -3.5
      vertex 1.46722 -47.3381 -3.5
    endloop
  endfacet
  facet normal 0 0 -1
    outer loop
      vertex 10.2774 -45.5516 -3.5
      vertex 1.46722 -47.3381 -3.5
      vertex 1.37032 -47.0399 -3.5
    endloop
  endfacet
  facet normal 0 0 -1
    outer loop
      vertex 10.2774 -45.5516 -3.5
      vertex 1.37032 -47.0399 -3.5
      vertex 1.21352 -46.7683 -3.5
    endloop
  endfacet
  facet normal 0 0 -1
    outer loop
      vertex 10.2774 -45.5516 -3.5
      vertex 1.21352 -46.7683 -3.5
      vertex 1.0037 -46.5353 -3.5
    endloop
  endfacet
  facet normal 0 0 -1
    outer loop
      vertex 10.2774 -45.5516 -3.5
      vertex 1.0037 -46.5353 -3.5
      vertex 0.75 -46.351 -3.5
    endloop
  endfacet
  facet normal 0 0 -1
    outer loop
      vertex 10.2774 -45.5516 -3.5
      vertex 0.75 -46.351 -3.5
      vertex 0.463525 -46.2234 -3.5
    endloop
  endfacet
  facet normal 0 0 -1
    outer loop
      vertex 10.2774 -45.5516 -3.5
      vertex 0.463525 -46.2234 -3.5
      vertex 0.156793 -46.1582 -3.5
    endloop
  endfacet
  facet normal 0 0 -1
    outer loop
      vertex 10.2774 -45.5516 -3.5
      vertex 0.156793 -46.1582 -3.5
      vertex -10.2774 -45.5516 -3.5
    endloop
  endfacet
  facet normal 0 0 -1
    outer loop
      vertex 0.156793 -46.1582 -3.5
      vertex -0.156793 -46.1582 -3.5
      vertex -10.2774 -45.5516 -3.5
    endloop
  endfacet
  facet normal 0 0 -1
    outer loop
      vertex -0.75 -46.351 -3.5
      vertex -10.2774 -45.5516 -3.5
      vertex -0.463525 -46.2234 -3.5
    endloop
  endfacet
  facet normal 0 0 -1
    outer loop
      vertex -1.0037 -46.5353 -3.5
      vertex -10.2774 -45.5516 -3.5
      vertex -0.75 -46.351 -3.5
    endloop
  endfacet
  facet normal 0 0 -1
    outer loop
      vertex -1.21352 -46.7683 -3.5
      vertex -10.2774 -45.5516 -3.5
      vertex -1.0037 -46.5353 -3.5
    endloop
  endfacet
  facet normal 0 0 -1
    outer loop
      vertex -1.37032 -47.0399 -3.5
      vertex -10.2774 -45.5516 -3.5
      vertex -1.21352 -46.7683 -3.5
    endloop
  endfacet
  facet normal 0 0 -1
    outer loop
      vertex -1.46722 -47.3381 -3.5
      vertex -10.2774 -45.5516 -3.5
      vertex -1.37032 -47.0399 -3.5
    endloop
  endfacet
  facet normal 0 0 -1
    outer loop
      vertex -11.25 -36.4 -3.5
      vertex 11.0042 -41.078 -3.5
      vertex -11.0042 -41.078 -3.5
    endloop
  endfacet
  facet normal 0 0 -1
    outer loop
      vertex -10.2774 -45.5516 -3.5
      vertex -1.46722 -47.9619 -3.5
      vertex -1.37032 -48.2601 -3.5
    endloop
  endfacet
  facet normal 0 0 -1
    outer loop
      vertex -10.2774 -45.5516 -3.5
      vertex -1.37032 -48.2601 -3.5
      vertex -9.10144 -49.6252 -3.5
    endloop
  endfacet
  facet normal 0 1 0
    outer loop
      vertex -81.25 36.4 -3.5
      vertex -81.25 36.4 0.239723
      vertex 81.25 36.4 -3.5
    endloop
  endfacet
  facet normal 0 1 0
    outer loop
      vertex 81.25 36.4 -3.5
      vertex -81.25 36.4 0.239723
      vertex 81.0124 36.4 0.239723
    endloop
  endfacet
  facet normal 0 1 0
    outer loop
      vertex 81.25 36.4 -3.5
      vertex 81.0124 36.4 0.239723
      vertex 81.25 36.4 0.239723
    endloop
  endfacet
  facet normal -2.22045e-16 4.93038e-32 1
    outer loop
      vertex 81.0124 36.1624 0.239723
      vertex 81.0124 36.4 0.239723
      vertex -81.25 36.4 0.239723
    endloop
  endfacet
  facet normal -2.22045e-16 4.93038e-32 1
    outer loop
      vertex -81.25 36.1624 0.239723
      vertex 81.0124 36.1624 0.239723
      vertex -81.25 36.4 0.239723
    endloop
  endfacet
  facet normal -1.71027e-16 0.207912 0.978148
    outer loop
      vertex -81.0124 36.1624 0.239723
      vertex -80.5477 35.6977 0.338508
      vertex 80.5477 35.6977 0.338508
    endloop
  endfacet
  facet normal -1.71027e-16 0.207912 0.978148
    outer loop
      vertex 81.0124 36.1624 0.239723
      vertex -81.0124 36.1624 0.239723
      vertex 80.5477 35.6977 0.338508
    endloop
  endfacet
  facet normal -1.71027e-16 0.207912 0.978148
    outer loop
      vertex -81.25 36.1624 0.239723
      vertex -81.0124 36.1624 0.239723
      vertex 81.0124 36.1624 0.239723
    endloop
  endfacet
  facet normal 0 2.22045e-16 1
    outer loop
      vertex -81.0124 -36.1624 0.239723
      vertex -81.0124 36.1624 0.239723
      vertex -81.25 36.1624 0.239723
    endloop
  endfacet
  facet normal 0 2.22045e-16 1
    outer loop
      vertex -81.25 -36.1624 0.239723
      vertex -81.0124 -36.1624 0.239723
      vertex -81.25 36.1624 0.239723
    endloop
  endfacet
  facet normal -2.63358e-16 -0.207912 0.978148
    outer loop
      vertex 81.0124 -36.1624 0.239723
      vertex 80.5477 -35.6977 0.338508
      vertex -80.5477 -35.6977 0.338508
    endloop
  endfacet
  facet normal -2.63358e-16 -0.207912 0.978148
    outer loop
      vertex 81.0124 -36.1624 0.239723
      vertex -81.0124 -36.1624 0.239723
      vertex -81.25 -36.1624 0.239723
    endloop
  endfacet
  facet normal -2.63358e-16 -0.207912 0.978148
    outer loop
      vertex 81.0124 -36.1624 0.239723
      vertex -80.5477 -35.6977 0.338508
      vertex -81.0124 -36.1624 0.239723
    endloop
  endfacet
  facet normal -2.22045e-16 4.93038e-32 1
    outer loop
      vertex 81.0124 -36.4 0.239723
      vertex 81.0124 -36.1624 0.239723
      vertex -81.25 -36.1624 0.239723
    endloop
  endfacet
  facet normal -2.22045e-16 4.93038e-32 1
    outer loop
      vertex -81.25 -36.4 0.239723
      vertex 81.0124 -36.4 0.239723
      vertex -81.25 -36.1624 0.239723
    endloop
  endfacet
  facet normal 0.207912 2.17192e-16 0.978148
    outer loop
      vertex 81.0124 36.4 0.239723
      vertex 81.0124 -36.1624 0.239723
      vertex 81.0124 -36.4 0.239723
    endloop
  endfacet
  facet normal 0.207912 2.17192e-16 0.978148
    outer loop
      vertex 80.5477 -35.6977 0.338508
      vertex 81.0124 36.1624 0.239723
      vertex 80.5477 35.6977 0.338508
    endloop
  endfacet
  facet normal 0.207912 2.17192e-16 0.978148
    outer loop
      vertex 81.0124 36.1624 0.239723
      vertex 81.0124 -36.1624 0.239723
      vertex 81.0124 36.4 0.239723
    endloop
  endfacet
  facet normal 0.207912 2.17192e-16 0.978148
    outer loop
      vertex 80.5477 -35.6977 0.338508
      vertex 81.0124 -36.1624 0.239723
      vertex 81.0124 36.1624 0.239723
    endloop
  endfacet
  facet normal 0 2.22045e-16 1
    outer loop
      vertex 81.25 -36.4 0.239723
      vertex 81.25 36.4 0.239723
      vertex 81.0124 36.4 0.239723
    endloop
  endfacet
  facet normal 0 2.22045e-16 1
    outer loop
      vertex 81.0124 -36.4 0.239723
      vertex 81.25 -36.4 0.239723
      vertex 81.0124 36.4 0.239723
    endloop
  endfacet
  facet normal 1 0 0
    outer loop
      vertex 81.25 -36.4 0.239723
      vertex 81.25 -36.4 -3.5
      vertex 81.25 36.4 -3.5
    endloop
  endfacet
  facet normal 1 0 0
    outer loop
      vertex 81.25 36.4 0.239723
      vertex 81.25 -36.4 0.239723
      vertex 81.25 36.4 -3.5
    endloop
  endfacet
  facet normal 0.998622 -0.0524796 0
    outer loop
      vertex 11.0042 -41.078 -1
      vertex 11.0042 -41.078 -3.5
      vertex 11.25 -36.4 -3.5
    endloop
  endfacet
  facet normal 0.998622 -0.0524796 0
    outer loop
      vertex 11.25 -36.4 -1
      vertex 11.0042 -41.078 -1
      vertex 11.25 -36.4 -3.5
    endloop
  endfacet
  facet normal 0 0 1
    outer loop
      vertex 11.25 -36.4 -1
      vertex -11.25 -36.4 -1
      vertex -11.0042 -41.078 -1
    endloop
  endfacet
  facet normal 0 0 1
    outer loop
      vertex -9.10144 -49.6252 -1
      vertex 11.25 -36.4 -1
      vertex -10.2774 -45.5516 -1
    endloop
  endfacet
  facet normal 0 0 1
    outer loop
      vertex -10.2774 -45.5516 -1
      vertex 11.25 -36.4 -1
      vertex -11.0042 -41.078 -1
    endloop
  endfacet
  facet normal 0 0 1
    outer loop
      vertex -1.0037 -46.5353 -1
      vertex 11.25 -36.4 -1
      vertex -9.10144 -49.6252 -1
    endloop
  endfacet
  facet normal 0 0 1
    outer loop
      vertex -0.75 -46.351 -1
      vertex -0.463525 -46.2234 -1
      vertex 11.25 -36.4 -1
    endloop
  endfacet
  facet normal 0 0 1
    outer loop
      vertex 1.21352 -48.5317 -1
      vertex 1.0037 -48.7647 -1
      vertex -3.47644 -57.7988 -1
    endloop
  endfacet
  facet normal 0 0 1
    outer loop
      vertex -1.17595 -58.7767 -1
      vertex 11.25 -36.4 -1
      vertex -3.47644 -57.7988 -1
    endloop
  endfacet
  facet normal 0 0 1
    outer loop
      vertex 1.17595 -58.7767 -1
      vertex 11.25 -36.4 -1
      vertex -1.17595 -58.7767 -1
    endloop
  endfacet
  facet normal 0 0 1
    outer loop
      vertex 3.47644 -57.7988 -1
      vertex 11.25 -36.4 -1
      vertex 1.17595 -58.7767 -1
    endloop
  endfacet
  facet normal 0 0 1
    outer loop
      vertex 5.625 -55.8856 -1
      vertex 11.25 -36.4 -1
      vertex 3.47644 -57.7988 -1
    endloop
  endfacet
  facet normal 0 0 1
    outer loop
      vertex 7.52772 -53.1208 -1
      vertex 11.25 -36.4 -1
      vertex 5.625 -55.8856 -1
    endloop
  endfacet
  facet normal 0 0 1
    outer loop
      vertex 9.10144 -49.6252 -1
      vertex 11.25 -36.4 -1
      vertex 7.52772 -53.1208 -1
    endloop
  endfacet
  facet normal 0 0 1
    outer loop
      vertex 10.2774 -45.5516 -1
      vertex 11.25 -36.4 -1
      vertex 9.10144 -49.6252 -1
    endloop
  endfacet
  facet normal 0 0 1
    outer loop
      vertex 11.0042 -41.078 -1
      vertex 11.25 -36.4 -1
      vertex 10.2774 -45.5516 -1
    endloop
  endfacet
  facet normal 0 0 1
    outer loop
      vertex -5.625 -55.8856 -1
      vertex -1.46722 -47.9619 -1
      vertex -7.52772 -53.1208 -1
    endloop
  endfacet
  facet normal 0 0 1
    outer loop
      vertex 0.156793 -49.1418 -1
      vertex -0.156793 -49.1418 -1
      vertex -5.625 -55.8856 -1
    endloop
  endfacet
  facet normal 0 0 1
    outer loop
      vertex -7.52772 -53.1208 -1
      vertex -1.5 -47.65 -1
      vertex -9.10144 -49.6252 -1
    endloop
  endfacet
  facet normal 0 0 1
    outer loop
      vertex -1.5 -47.65 -1
      vertex -1.46722 -47.3381 -1
      vertex -9.10144 -49.6252 -1
    endloop
  endfacet
  facet normal 0 0 1
    outer loop
      vertex -1.46722 -47.3381 -1
      vertex -1.37032 -47.0399 -1
      vertex -9.10144 -49.6252 -1
    endloop
  endfacet
  facet normal 0 0 1
    outer loop
      vertex -1.37032 -47.0399 -1
      vertex -1.21352 -46.7683 -1
      vertex -9.10144 -49.6252 -1
    endloop
  endfacet
  facet normal 0 0 1
    outer loop
      vertex -1.21352 -46.7683 -1
      vertex -1.0037 -46.5353 -1
      vertex -9.10144 -49.6252 -1
    endloop
  endfacet
  facet normal 0 0 1
    outer loop
      vertex -0.75 -46.351 -1
      vertex 11.25 -36.4 -1
      vertex -1.0037 -46.5353 -1
    endloop
  endfacet
  facet normal 0 0 1
    outer loop
      vertex -0.463525 -46.2234 -1
      vertex -0.156793 -46.1582 -1
      vertex 11.25 -36.4 -1
    endloop
  endfacet
  facet normal 0 0 1
    outer loop
      vertex -0.156793 -46.1582 -1
      vertex 0.156793 -46.1582 -1
      vertex 11.25 -36.4 -1
    endloop
  endfacet
  facet normal 0 0 1
    outer loop
      vertex 1.5 -47.65 -1
      vertex 1.46722 -47.9619 -1
      vertex 11.25 -36.4 -1
    endloop
  endfacet
  facet normal 0 0 1
    outer loop
      vertex 0.75 -46.351 -1
      vertex 11.25 -36.4 -1
      vertex 0.463525 -46.2234 -1
    endloop
  endfacet
  facet normal 0 0 1
    outer loop
      vertex 1.0037 -46.5353 -1
      vertex 11.25 -36.4 -1
      vertex 0.75 -46.351 -1
    endloop
  endfacet
  facet normal 0 0 1
    outer loop
      vertex 1.21352 -46.7683 -1
      vertex 11.25 -36.4 -1
      vertex 1.0037 -46.5353 -1
    endloop
  endfacet
  facet normal 0 0 1
    outer loop
      vertex -0.75 -48.949 -1
      vertex -1.0037 -48.7647 -1
      vertex -5.625 -55.8856 -1
    endloop
  endfacet
  facet normal 0 0 1
    outer loop
      vertex 1.37032 -47.0399 -1
      vertex 11.25 -36.4 -1
      vertex 1.21352 -46.7683 -1
    endloop
  endfacet
  facet normal 0 0 1
    outer loop
      vertex 1.46722 -47.3381 -1
      vertex 11.25 -36.4 -1
      vertex 1.37032 -47.0399 -1
    endloop
  endfacet
  facet normal 0 0 1
    outer loop
      vertex 1.5 -47.65 -1
      vertex 11.25 -36.4 -1
      vertex 1.46722 -47.3381 -1
    endloop
  endfacet
  facet normal 0 0 1
    outer loop
      vertex -0.463525 -49.0766 -1
      vertex -0.75 -48.949 -1
      vertex -5.625 -55.8856 -1
    endloop
  endfacet
  facet normal 0 0 1
    outer loop
      vertex 0.463525 -49.0766 -1
      vertex 0.156793 -49.1418 -1
      vertex -5.625 -55.8856 -1
    endloop
  endfacet
  facet normal 0 0 1
    outer loop
      vertex 1.37032 -48.2601 -1
      vertex 11.25 -36.4 -1
      vertex 1.46722 -47.9619 -1
    endloop
  endfacet
  facet normal 0 0 1
    outer loop
      vertex -3.47644 -57.7988 -1
      vertex 11.25 -36.4 -1
      vertex 1.37032 -48.2601 -1
    endloop
  endfacet
  facet normal 0 0 1
    outer loop
      vertex 0.75 -48.949 -1
      vertex 0.463525 -49.0766 -1
      vertex -5.625 -55.8856 -1
    endloop
  endfacet
  facet normal 0 0 1
    outer loop
      vertex -3.47644 -57.7988 -1
      vertex 1.37032 -48.2601 -1
      vertex 1.21352 -48.5317 -1
    endloop
  endfacet
  facet normal 0 0 1
    outer loop
      vertex -3.47644 -57.7988 -1
      vertex 1.0037 -48.7647 -1
      vertex -5.625 -55.8856 -1
    endloop
  endfacet
  facet normal 0 0 1
    outer loop
      vertex 1.0037 -48.7647 -1
      vertex 0.75 -48.949 -1
      vertex -5.625 -55.8856 -1
    endloop
  endfacet
  facet normal 0 0 1
    outer loop
      vertex -0.156793 -49.1418 -1
      vertex -0.463525 -49.0766 -1
      vertex -5.625 -55.8856 -1
    endloop
  endfacet
  facet normal 0 0 1
    outer loop
      vertex -1.0037 -48.7647 -1
      vertex -1.21352 -48.5317 -1
      vertex -5.625 -55.8856 -1
    endloop
  endfacet
  facet normal 0 0 1
    outer loop
      vertex -5.625 -55.8856 -1
      vertex -1.37032 -48.2601 -1
      vertex -1.46722 -47.9619 -1
    endloop
  endfacet
  facet normal 0 0 1
    outer loop
      vertex -5.625 -55.8856 -1
      vertex -1.21352 -48.5317 -1
      vertex -1.37032 -48.2601 -1
    endloop
  endfacet
  facet normal 0 0 1
    outer loop
      vertex -1.46722 -47.9619 -1
      vertex -1.5 -47.65 -1
      vertex -7.52772 -53.1208 -1
    endloop
  endfacet
  facet normal 0 0 1
    outer loop
      vertex 0.156793 -46.1582 -1
      vertex 0.463525 -46.2234 -1
      vertex 11.25 -36.4 -1
    endloop
  endfacet
  facet normal -0.998622 -0.0524796 0
    outer loop
      vertex -11.25 -36.4 -3.5
      vertex -11.0042 -41.078 -3.5
      vertex -11.25 -36.4 -1
    endloop
  endfacet
  facet normal -0.998622 -0.0524796 0
    outer loop
      vertex -11.25 -36.4 -1
      vertex -11.0042 -41.078 -3.5
      vertex -11.0042 -41.078 -1
    endloop
  endfacet
  facet normal -0.987059 -0.160358 0
    outer loop
      vertex -11.0042 -41.078 -3.5
      vertex -10.2774 -45.5516 -3.5
      vertex -11.0042 -41.078 -1
    endloop
  endfacet
  facet normal -0.987059 -0.160358 0
    outer loop
      vertex -11.0042 -41.078 -1
      vertex -10.2774 -45.5516 -3.5
      vertex -10.2774 -45.5516 -1
    endloop
  endfacet
  facet normal -0.960769 -0.27735 0
    outer loop
      vertex -10.2774 -45.5516 -3.5
      vertex -9.10144 -49.6252 -3.5
      vertex -10.2774 -45.5516 -1
    endloop
  endfacet
  facet normal -0.960769 -0.27735 0
    outer loop
      vertex -10.2774 -45.5516 -1
      vertex -9.10144 -49.6252 -3.5
      vertex -9.10144 -49.6252 -1
    endloop
  endfacet
  facet normal -0.911853 -0.410518 0
    outer loop
      vertex -9.10144 -49.6252 -3.5
      vertex -7.52772 -53.1208 -3.5
      vertex -9.10144 -49.6252 -1
    endloop
  endfacet
  facet normal -0.911853 -0.410518 0
    outer loop
      vertex -9.10144 -49.6252 -1
      vertex -7.52772 -53.1208 -3.5
      vertex -7.52772 -53.1208 -1
    endloop
  endfacet
  facet normal -0.823776 -0.566915 0
    outer loop
      vertex -7.52772 -53.1208 -3.5
      vertex -5.625 -55.8856 -3.5
      vertex -7.52772 -53.1208 -1
    endloop
  endfacet
  facet normal -0.823776 -0.566915 0
    outer loop
      vertex -7.52772 -53.1208 -1
      vertex -5.625 -55.8856 -3.5
      vertex -5.625 -55.8856 -1
    endloop
  endfacet
  facet normal -0.665018 -0.746827 0
    outer loop
      vertex -5.625 -55.8856 -1
      vertex -5.625 -55.8856 -3.5
      vertex -3.47644 -57.7988 -3.5
    endloop
  endfacet
  facet normal -0.665018 -0.746827 0
    outer loop
      vertex -3.47644 -57.7988 -1
      vertex -5.625 -55.8856 -1
      vertex -3.47644 -57.7988 -3.5
    endloop
  endfacet
  facet normal -0.391228 -0.920294 0
    outer loop
      vertex -3.47644 -57.7988 -1
      vertex -3.47644 -57.7988 -3.5
      vertex -1.17595 -58.7767 -3.5
    endloop
  endfacet
  facet normal -0.391228 -0.920294 0
    outer loop
      vertex -1.17595 -58.7767 -1
      vertex -3.47644 -57.7988 -1
      vertex -1.17595 -58.7767 -3.5
    endloop
  endfacet
  facet normal 0 -1 0
    outer loop
      vertex -1.17595 -58.7767 -1
      vertex -1.17595 -58.7767 -3.5
      vertex 1.17595 -58.7767 -3.5
    endloop
  endfacet
  facet normal 0 -1 0
    outer loop
      vertex 1.17595 -58.7767 -1
      vertex -1.17595 -58.7767 -1
      vertex 1.17595 -58.7767 -3.5
    endloop
  endfacet
  facet normal 0.391228 -0.920294 0
    outer loop
      vertex 1.17595 -58.7767 -1
      vertex 1.17595 -58.7767 -3.5
      vertex 3.47644 -57.7988 -3.5
    endloop
  endfacet
  facet normal 0.391228 -0.920294 0
    outer loop
      vertex 3.47644 -57.7988 -1
      vertex 1.17595 -58.7767 -1
      vertex 3.47644 -57.7988 -3.5
    endloop
  endfacet
  facet normal 0.665018 -0.746827 0
    outer loop
      vertex 3.47644 -57.7988 -1
      vertex 3.47644 -57.7988 -3.5
      vertex 5.625 -55.8856 -3.5
    endloop
  endfacet
  facet normal 0.665018 -0.746827 0
    outer loop
      vertex 5.625 -55.8856 -1
      vertex 3.47644 -57.7988 -1
      vertex 5.625 -55.8856 -3.5
    endloop
  endfacet
  facet normal 0.823776 -0.566915 0
    outer loop
      vertex 5.625 -55.8856 -1
      vertex 5.625 -55.8856 -3.5
      vertex 7.52772 -53.1208 -3.5
    endloop
  endfacet
  facet normal 0.823776 -0.566915 0
    outer loop
      vertex 7.52772 -53.1208 -1
      vertex 5.625 -55.8856 -1
      vertex 7.52772 -53.1208 -3.5
    endloop
  endfacet
  facet normal 0.911853 -0.410518 0
    outer loop
      vertex 7.52772 -53.1208 -1
      vertex 7.52772 -53.1208 -3.5
      vertex 9.10144 -49.6252 -3.5
    endloop
  endfacet
  facet normal 0.911853 -0.410518 0
    outer loop
      vertex 9.10144 -49.6252 -1
      vertex 7.52772 -53.1208 -1
      vertex 9.10144 -49.6252 -3.5
    endloop
  endfacet
  facet normal 0.960769 -0.27735 0
    outer loop
      vertex 9.10144 -49.6252 -1
      vertex 9.10144 -49.6252 -3.5
      vertex 10.2774 -45.5516 -3.5
    endloop
  endfacet
  facet normal 0.960769 -0.27735 0
    outer loop
      vertex 10.2774 -45.5516 -1
      vertex 9.10144 -49.6252 -1
      vertex 10.2774 -45.5516 -3.5
    endloop
  endfacet
  facet normal 0.987059 -0.160358 0
    outer loop
      vertex 10.2774 -45.5516 -1
      vertex 10.2774 -45.5516 -3.5
      vertex 11.0042 -41.078 -3.5
    endloop
  endfacet
  facet normal 0.987059 -0.160358 0
    outer loop
      vertex 11.0042 -41.078 -1
      vertex 10.2774 -45.5516 -1
      vertex 11.0042 -41.078 -3.5
    endloop
  endfacet
  facet normal 0.994522 -0.10453 0
    outer loop
      vertex -1.46722 -47.3381 -3.5
      vertex -1.46722 -47.3381 -1
      vertex -1.5 -47.65 -1
    endloop
  endfacet
  facet normal 0.994522 -0.10453 0
    outer loop
      vertex -1.5 -47.65 -3.5
      vertex -1.46722 -47.3381 -3.5
      vertex -1.5 -47.65 -1
    endloop
  endfacet
  facet normal 0.994522 0.10453 0
    outer loop
      vertex -1.5 -47.65 -1
      vertex -1.46722 -47.9619 -1
      vertex -1.46722 -47.9619 -3.5
    endloop
  endfacet
  facet normal 0.994522 0.10453 0
    outer loop
      vertex -1.5 -47.65 -3.5
      vertex -1.5 -47.65 -1
      vertex -1.46722 -47.9619 -3.5
    endloop
  endfacet
  facet normal 0.951057 -0.309017 0
    outer loop
      vertex -1.37032 -47.0399 -3.5
      vertex -1.37032 -47.0399 -1
      vertex -1.46722 -47.3381 -1
    endloop
  endfacet
  facet normal 0.951057 -0.309017 0
    outer loop
      vertex -1.46722 -47.3381 -3.5
      vertex -1.37032 -47.0399 -3.5
      vertex -1.46722 -47.3381 -1
    endloop
  endfacet
  facet normal 0.866025 -0.500001 0
    outer loop
      vertex -1.21352 -46.7683 -3.5
      vertex -1.21352 -46.7683 -1
      vertex -1.37032 -47.0399 -1
    endloop
  endfacet
  facet normal 0.866025 -0.500001 0
    outer loop
      vertex -1.37032 -47.0399 -3.5
      vertex -1.21352 -46.7683 -3.5
      vertex -1.37032 -47.0399 -1
    endloop
  endfacet
  facet normal 0.743145 -0.66913 0
    outer loop
      vertex -1.0037 -46.5353 -3.5
      vertex -1.0037 -46.5353 -1
      vertex -1.21352 -46.7683 -1
    endloop
  endfacet
  facet normal 0.743145 -0.66913 0
    outer loop
      vertex -1.21352 -46.7683 -3.5
      vertex -1.0037 -46.5353 -3.5
      vertex -1.21352 -46.7683 -1
    endloop
  endfacet
  facet normal 0.587785 -0.809017 0
    outer loop
      vertex -0.75 -46.351 -3.5
      vertex -0.75 -46.351 -1
      vertex -1.0037 -46.5353 -1
    endloop
  endfacet
  facet normal 0.587785 -0.809017 0
    outer loop
      vertex -1.0037 -46.5353 -3.5
      vertex -0.75 -46.351 -3.5
      vertex -1.0037 -46.5353 -1
    endloop
  endfacet
  facet normal 0.406737 -0.913545 0
    outer loop
      vertex -0.463525 -46.2234 -3.5
      vertex -0.463525 -46.2234 -1
      vertex -0.75 -46.351 -1
    endloop
  endfacet
  facet normal 0.406737 -0.913545 0
    outer loop
      vertex -0.75 -46.351 -3.5
      vertex -0.463525 -46.2234 -3.5
      vertex -0.75 -46.351 -1
    endloop
  endfacet
  facet normal 0.207912 -0.978148 0
    outer loop
      vertex -0.156793 -46.1582 -3.5
      vertex -0.156793 -46.1582 -1
      vertex -0.463525 -46.2234 -1
    endloop
  endfacet
  facet normal 0.207912 -0.978148 0
    outer loop
      vertex -0.463525 -46.2234 -3.5
      vertex -0.156793 -46.1582 -3.5
      vertex -0.463525 -46.2234 -1
    endloop
  endfacet
  facet normal 0 -1 0
    outer loop
      vertex 0.156793 -46.1582 -3.5
      vertex 0.156793 -46.1582 -1
      vertex -0.156793 -46.1582 -1
    endloop
  endfacet
  facet normal 0 -1 0
    outer loop
      vertex -0.156793 -46.1582 -3.5
      vertex 0.156793 -46.1582 -3.5
      vertex -0.156793 -46.1582 -1
    endloop
  endfacet
  facet normal -0.207912 -0.978148 0
    outer loop
      vertex 0.463525 -46.2234 -3.5
      vertex 0.463525 -46.2234 -1
      vertex 0.156793 -46.1582 -1
    endloop
  endfacet
  facet normal -0.207912 -0.978148 0
    outer loop
      vertex 0.156793 -46.1582 -3.5
      vertex 0.463525 -46.2234 -3.5
      vertex 0.156793 -46.1582 -1
    endloop
  endfacet
  facet normal -0.406737 -0.913545 0
    outer loop
      vertex 0.75 -46.351 -3.5
      vertex 0.75 -46.351 -1
      vertex 0.463525 -46.2234 -1
    endloop
  endfacet
  facet normal -0.406737 -0.913545 0
    outer loop
      vertex 0.463525 -46.2234 -3.5
      vertex 0.75 -46.351 -3.5
      vertex 0.463525 -46.2234 -1
    endloop
  endfacet
  facet normal -0.587785 -0.809017 0
    outer loop
      vertex 1.0037 -46.5353 -3.5
      vertex 1.0037 -46.5353 -1
      vertex 0.75 -46.351 -1
    endloop
  endfacet
  facet normal -0.587785 -0.809017 0
    outer loop
      vertex 0.75 -46.351 -3.5
      vertex 1.0037 -46.5353 -3.5
      vertex 0.75 -46.351 -1
    endloop
  endfacet
  facet normal -0.743145 -0.66913 0
    outer loop
      vertex 1.21352 -46.7683 -1
      vertex 1.0037 -46.5353 -1
      vertex 1.21352 -46.7683 -3.5
    endloop
  endfacet
  facet normal -0.743145 -0.66913 0
    outer loop
      vertex 1.21352 -46.7683 -3.5
      vertex 1.0037 -46.5353 -1
      vertex 1.0037 -46.5353 -3.5
    endloop
  endfacet
  facet normal -0.866025 -0.500001 0
    outer loop
      vertex 1.37032 -47.0399 -1
      vertex 1.21352 -46.7683 -1
      vertex 1.37032 -47.0399 -3.5
    endloop
  endfacet
  facet normal -0.866025 -0.500001 0
    outer loop
      vertex 1.37032 -47.0399 -3.5
      vertex 1.21352 -46.7683 -1
      vertex 1.21352 -46.7683 -3.5
    endloop
  endfacet
  facet normal -0.951057 -0.309017 0
    outer loop
      vertex 1.46722 -47.3381 -1
      vertex 1.37032 -47.0399 -1
      vertex 1.46722 -47.3381 -3.5
    endloop
  endfacet
  facet normal -0.951057 -0.309017 0
    outer loop
      vertex 1.46722 -47.3381 -3.5
      vertex 1.37032 -47.0399 -1
      vertex 1.37032 -47.0399 -3.5
    endloop
  endfacet
  facet normal -0.994522 -0.10453 0
    outer loop
      vertex 1.5 -47.65 -1
      vertex 1.46722 -47.3381 -1
      vertex 1.5 -47.65 -3.5
    endloop
  endfacet
  facet normal -0.994522 -0.10453 0
    outer loop
      vertex 1.5 -47.65 -3.5
      vertex 1.46722 -47.3381 -1
      vertex 1.46722 -47.3381 -3.5
    endloop
  endfacet
  facet normal -0.994522 0.10453 0
    outer loop
      vertex 1.5 -47.65 -1
      vertex 1.5 -47.65 -3.5
      vertex 1.46722 -47.9619 -1
    endloop
  endfacet
  facet normal -0.994522 0.10453 0
    outer loop
      vertex 1.46722 -47.9619 -1
      vertex 1.5 -47.65 -3.5
      vertex 1.46722 -47.9619 -3.5
    endloop
  endfacet
  facet normal -0.951057 0.309017 0
    outer loop
      vertex 1.46722 -47.9619 -1
      vertex 1.46722 -47.9619 -3.5
      vertex 1.37032 -48.2601 -1
    endloop
  endfacet
  facet normal -0.951057 0.309017 0
    outer loop
      vertex 1.37032 -48.2601 -1
      vertex 1.46722 -47.9619 -3.5
      vertex 1.37032 -48.2601 -3.5
    endloop
  endfacet
  facet normal -0.866025 0.500001 0
    outer loop
      vertex 1.37032 -48.2601 -1
      vertex 1.37032 -48.2601 -3.5
      vertex 1.21352 -48.5317 -1
    endloop
  endfacet
  facet normal -0.866025 0.500001 0
    outer loop
      vertex 1.21352 -48.5317 -1
      vertex 1.37032 -48.2601 -3.5
      vertex 1.21352 -48.5317 -3.5
    endloop
  endfacet
  facet normal -0.743145 0.66913 0
    outer loop
      vertex 1.21352 -48.5317 -1
      vertex 1.21352 -48.5317 -3.5
      vertex 1.0037 -48.7647 -1
    endloop
  endfacet
  facet normal -0.743145 0.66913 0
    outer loop
      vertex 1.0037 -48.7647 -1
      vertex 1.21352 -48.5317 -3.5
      vertex 1.0037 -48.7647 -3.5
    endloop
  endfacet
  facet normal -0.587785 0.809017 0
    outer loop
      vertex 1.0037 -48.7647 -1
      vertex 1.0037 -48.7647 -3.5
      vertex 0.75 -48.949 -1
    endloop
  endfacet
  facet normal -0.587785 0.809017 0
    outer loop
      vertex 0.75 -48.949 -1
      vertex 1.0037 -48.7647 -3.5
      vertex 0.75 -48.949 -3.5
    endloop
  endfacet
  facet normal -0.406737 0.913545 0
    outer loop
      vertex 0.75 -48.949 -1
      vertex 0.75 -48.949 -3.5
      vertex 0.463525 -49.0766 -1
    endloop
  endfacet
  facet normal -0.406737 0.913545 0
    outer loop
      vertex 0.463525 -49.0766 -1
      vertex 0.75 -48.949 -3.5
      vertex 0.463525 -49.0766 -3.5
    endloop
  endfacet
  facet normal -0.207912 0.978148 0
    outer loop
      vertex 0.463525 -49.0766 -1
      vertex 0.463525 -49.0766 -3.5
      vertex 0.156793 -49.1418 -1
    endloop
  endfacet
  facet normal -0.207912 0.978148 0
    outer loop
      vertex 0.156793 -49.1418 -1
      vertex 0.463525 -49.0766 -3.5
      vertex 0.156793 -49.1418 -3.5
    endloop
  endfacet
  facet normal 0 1 0
    outer loop
      vertex 0.156793 -49.1418 -1
      vertex 0.156793 -49.1418 -3.5
      vertex -0.156793 -49.1418 -1
    endloop
  endfacet
  facet normal 0 1 0
    outer loop
      vertex -0.156793 -49.1418 -1
      vertex 0.156793 -49.1418 -3.5
      vertex -0.156793 -49.1418 -3.5
    endloop
  endfacet
  facet normal 0.207912 0.978148 0
    outer loop
      vertex -0.156793 -49.1418 -1
      vertex -0.156793 -49.1418 -3.5
      vertex -0.463525 -49.0766 -1
    endloop
  endfacet
  facet normal 0.207912 0.978148 0
    outer loop
      vertex -0.463525 -49.0766 -1
      vertex -0.156793 -49.1418 -3.5
      vertex -0.463525 -49.0766 -3.5
    endloop
  endfacet
  facet normal 0.406737 0.913545 0
    outer loop
      vertex -0.463525 -49.0766 -1
      vertex -0.463525 -49.0766 -3.5
      vertex -0.75 -48.949 -1
    endloop
  endfacet
  facet normal 0.406737 0.913545 0
    outer loop
      vertex -0.75 -48.949 -1
      vertex -0.463525 -49.0766 -3.5
      vertex -0.75 -48.949 -3.5
    endloop
  endfacet
  facet normal 0.587785 0.809017 0
    outer loop
      vertex -0.75 -48.949 -1
      vertex -0.75 -48.949 -3.5
      vertex -1.0037 -48.7647 -1
    endloop
  endfacet
  facet normal 0.587785 0.809017 0
    outer loop
      vertex -1.0037 -48.7647 -1
      vertex -0.75 -48.949 -3.5
      vertex -1.0037 -48.7647 -3.5
    endloop
  endfacet
  facet normal 0.743145 0.66913 0
    outer loop
      vertex -1.21352 -48.5317 -1
      vertex -1.0037 -48.7647 -1
      vertex -1.0037 -48.7647 -3.5
    endloop
  endfacet
  facet normal 0.743145 0.66913 0
    outer loop
      vertex -1.21352 -48.5317 -3.5
      vertex -1.21352 -48.5317 -1
      vertex -1.0037 -48.7647 -3.5
    endloop
  endfacet
  facet normal 0.866025 0.500001 0
    outer loop
      vertex -1.37032 -48.2601 -1
      vertex -1.21352 -48.5317 -1
      vertex -1.21352 -48.5317 -3.5
    endloop
  endfacet
  facet normal 0.866025 0.500001 0
    outer loop
      vertex -1.37032 -48.2601 -3.5
      vertex -1.37032 -48.2601 -1
      vertex -1.21352 -48.5317 -3.5
    endloop
  endfacet
  facet normal 0.951057 0.309017 0
    outer loop
      vertex -1.46722 -47.9619 -1
      vertex -1.37032 -48.2601 -1
      vertex -1.37032 -48.2601 -3.5
    endloop
  endfacet
  facet normal 0.951057 0.309017 0
    outer loop
      vertex -1.46722 -47.9619 -3.5
      vertex -1.46722 -47.9619 -1
      vertex -1.37032 -48.2601 -3.5
    endloop
  endfacet
  facet normal -0.207912 2.17192e-16 0.978148
    outer loop
      vertex -81.0124 36.1624 0.239723
      vertex -80.5477 -35.6977 0.338508
      vertex -80.5477 35.6977 0.338508
    endloop
  endfacet
  facet normal -0.207912 2.17192e-16 0.978148
    outer loop
      vertex -81.0124 -36.1624 0.239723
      vertex -80.5477 -35.6977 0.338508
      vertex -81.0124 36.1624 0.239723
    endloop
  endfacet
  facet normal 0.406735 2.02848e-16 0.913546
    outer loop
      vertex 80.1136 35.2636 0.53176
      vertex 80.5477 -35.6977 0.338508
      vertex 80.5477 35.6977 0.338508
    endloop
  endfacet
  facet normal 0.406735 2.02848e-16 0.913546
    outer loop
      vertex 80.1136 -35.2636 0.53176
      vertex 80.5477 -35.6977 0.338508
      vertex 80.1136 35.2636 0.53176
    endloop
  endfacet
  facet normal -1.12535e-16 0.406735 0.913546
    outer loop
      vertex -80.5477 35.6977 0.338508
      vertex -80.1136 35.2636 0.53176
      vertex 80.1136 35.2636 0.53176
    endloop
  endfacet
  facet normal -1.12535e-16 0.406735 0.913546
    outer loop
      vertex 80.5477 35.6977 0.338508
      vertex -80.5477 35.6977 0.338508
      vertex 80.1136 35.2636 0.53176
    endloop
  endfacet
  facet normal -2.93161e-16 -0.406735 0.913546
    outer loop
      vertex 80.5477 -35.6977 0.338508
      vertex 80.1136 -35.2636 0.53176
      vertex -80.1136 -35.2636 0.53176
    endloop
  endfacet
  facet normal -2.93161e-16 -0.406735 0.913546
    outer loop
      vertex 80.5477 -35.6977 0.338508
      vertex -80.1136 -35.2636 0.53176
      vertex -80.5477 -35.6977 0.338508
    endloop
  endfacet
  facet normal -0.406735 2.02848e-16 0.913546
    outer loop
      vertex -80.5477 35.6977 0.338508
      vertex -80.1136 -35.2636 0.53176
      vertex -80.1136 35.2636 0.53176
    endloop
  endfacet
  facet normal -0.406735 2.02848e-16 0.913546
    outer loop
      vertex -80.5477 -35.6977 0.338508
      vertex -80.1136 -35.2636 0.53176
      vertex -80.5477 35.6977 0.338508
    endloop
  endfacet
  facet normal 0.587786 1.79638e-16 0.809016
    outer loop
      vertex 79.7292 34.8792 0.811034
      vertex 80.1136 -35.2636 0.53176
      vertex 80.1136 35.2636 0.53176
    endloop
  endfacet
  facet normal 0.587786 1.79638e-16 0.809016
    outer loop
      vertex 79.7292 -34.8792 0.811034
      vertex 80.1136 -35.2636 0.53176
      vertex 79.7292 34.8792 0.811034
    endloop
  endfacet
  facet normal -4.91231e-17 0.587786 0.809016
    outer loop
      vertex -80.1136 35.2636 0.53176
      vertex -79.7292 34.8792 0.811034
      vertex 79.7292 34.8792 0.811034
    endloop
  endfacet
  facet normal -4.91231e-17 0.587786 0.809016
    outer loop
      vertex 80.1136 35.2636 0.53176
      vertex -80.1136 35.2636 0.53176
      vertex 79.7292 34.8792 0.811034
    endloop
  endfacet
  facet normal -3.10152e-16 -0.587786 0.809016
    outer loop
      vertex 80.1136 -35.2636 0.53176
      vertex 79.7292 -34.8792 0.811034
      vertex -79.7292 -34.8792 0.811034
    endloop
  endfacet
  facet normal -3.10152e-16 -0.587786 0.809016
    outer loop
      vertex 80.1136 -35.2636 0.53176
      vertex -79.7292 -34.8792 0.811034
      vertex -80.1136 -35.2636 0.53176
    endloop
  endfacet
  facet normal -0.587786 1.79638e-16 0.809016
    outer loop
      vertex -80.1136 35.2636 0.53176
      vertex -79.7292 -34.8792 0.811034
      vertex -79.7292 34.8792 0.811034
    endloop
  endfacet
  facet normal -0.587786 1.79638e-16 0.809016
    outer loop
      vertex -80.1136 -35.2636 0.53176
      vertex -79.7292 -34.8792 0.811034
      vertex -80.1136 35.2636 0.53176
    endloop
  endfacet
  facet normal 0.743144 1.48577e-16 0.669131
    outer loop
      vertex 79.4113 34.5613 1.16412
      vertex 79.7292 -34.8792 0.811034
      vertex 79.7292 34.8792 0.811034
    endloop
  endfacet
  facet normal 0.743144 1.48577e-16 0.669131
    outer loop
      vertex 79.4113 -34.5613 1.16412
      vertex 79.7292 -34.8792 0.811034
      vertex 79.4113 34.5613 1.16412
    endloop
  endfacet
  facet normal 1.64343e-17 0.743144 0.669131
    outer loop
      vertex -79.4113 34.5613 1.16412
      vertex 79.4113 34.5613 1.16412
      vertex -79.7292 34.8792 0.811034
    endloop
  endfacet
  facet normal 1.64343e-17 0.743144 0.669131
    outer loop
      vertex -79.7292 34.8792 0.811034
      vertex 79.4113 34.5613 1.16412
      vertex 79.7292 34.8792 0.811034
    endloop
  endfacet
  facet normal -3.13588e-16 -0.743144 0.669131
    outer loop
      vertex 79.7292 -34.8792 0.811034
      vertex 79.4113 -34.5613 1.16412
      vertex -79.4113 -34.5613 1.16412
    endloop
  endfacet
  facet normal -3.13588e-16 -0.743144 0.669131
    outer loop
      vertex 79.7292 -34.8792 0.811034
      vertex -79.4113 -34.5613 1.16412
      vertex -79.7292 -34.8792 0.811034
    endloop
  endfacet
  facet normal -0.743144 1.48577e-16 0.669131
    outer loop
      vertex -79.4113 -34.5613 1.16412
      vertex -79.4113 34.5613 1.16412
      vertex -79.7292 34.8792 0.811034
    endloop
  endfacet
  facet normal -0.743144 1.48577e-16 0.669131
    outer loop
      vertex -79.4113 -34.5613 1.16412
      vertex -79.7292 34.8792 0.811034
      vertex -79.7292 -34.8792 0.811034
    endloop
  endfacet
  facet normal 0.866026 1.11022e-16 0.5
    outer loop
      vertex 79.1738 34.3238 1.5756
      vertex 79.4113 -34.5613 1.16412
      vertex 79.4113 34.5613 1.16412
    endloop
  endfacet
  facet normal 0.866026 1.11022e-16 0.5
    outer loop
      vertex 79.1738 -34.3238 1.5756
      vertex 79.4113 -34.5613 1.16412
      vertex 79.1738 34.3238 1.5756
    endloop
  endfacet
  facet normal 8.12741e-17 0.866026 0.5
    outer loop
      vertex -79.1738 34.3238 1.5756
      vertex 79.1738 34.3238 1.5756
      vertex -79.4113 34.5613 1.16412
    endloop
  endfacet
  facet normal 8.12741e-17 0.866026 0.5
    outer loop
      vertex -79.4113 34.5613 1.16412
      vertex 79.1738 34.3238 1.5756
      vertex 79.4113 34.5613 1.16412
    endloop
  endfacet
  facet normal -3.03319e-16 -0.866026 0.5
    outer loop
      vertex 79.4113 -34.5613 1.16412
      vertex 79.1738 -34.3238 1.5756
      vertex -79.1738 -34.3238 1.5756
    endloop
  endfacet
  facet normal -3.03319e-16 -0.866026 0.5
    outer loop
      vertex 79.4113 -34.5613 1.16412
      vertex -79.1738 -34.3238 1.5756
      vertex -79.4113 -34.5613 1.16412
    endloop
  endfacet
  facet normal -0.866026 1.11022e-16 0.5
    outer loop
      vertex -79.1738 -34.3238 1.5756
      vertex -79.1738 34.3238 1.5756
      vertex -79.4113 34.5613 1.16412
    endloop
  endfacet
  facet normal -0.866026 1.11022e-16 0.5
    outer loop
      vertex -79.1738 -34.3238 1.5756
      vertex -79.4113 34.5613 1.16412
      vertex -79.4113 -34.5613 1.16412
    endloop
  endfacet
  facet normal 0.951056 6.86157e-17 0.309017
    outer loop
      vertex 79.0269 34.1769 2.02747
      vertex 79.1738 -34.3238 1.5756
      vertex 79.1738 34.3238 1.5756
    endloop
  endfacet
  facet normal 0.951056 6.86157e-17 0.309017
    outer loop
      vertex 79.0269 -34.1769 2.02747
      vertex 79.1738 -34.3238 1.5756
      vertex 79.0269 34.1769 2.02747
    endloop
  endfacet
  facet normal 1.42561e-16 0.951056 0.309017
    outer loop
      vertex -79.0269 34.1769 2.02747
      vertex 79.0269 34.1769 2.02747
      vertex -79.1738 34.3238 1.5756
    endloop
  endfacet
  facet normal 1.42561e-16 0.951056 0.309017
    outer loop
      vertex -79.1738 34.3238 1.5756
      vertex 79.0269 34.1769 2.02747
      vertex 79.1738 34.3238 1.5756
    endloop
  endfacet
  facet normal -2.79793e-16 -0.951056 0.309017
    outer loop
      vertex 79.1738 -34.3238 1.5756
      vertex 79.0269 -34.1769 2.02747
      vertex -79.0269 -34.1769 2.02747
    endloop
  endfacet
  facet normal -2.79793e-16 -0.951056 0.309017
    outer loop
      vertex 79.1738 -34.3238 1.5756
      vertex -79.0269 -34.1769 2.02747
      vertex -79.1738 -34.3238 1.5756
    endloop
  endfacet
  facet normal -0.951056 6.86157e-17 0.309017
    outer loop
      vertex -79.0269 -34.1769 2.02747
      vertex -79.0269 34.1769 2.02747
      vertex -79.1738 34.3238 1.5756
    endloop
  endfacet
  facet normal -0.951056 6.86157e-17 0.309017
    outer loop
      vertex -79.0269 -34.1769 2.02747
      vertex -79.1738 34.3238 1.5756
      vertex -79.1738 -34.3238 1.5756
    endloop
  endfacet
  facet normal 0.994522 2.32097e-17 0.104527
    outer loop
      vertex 78.9773 34.1273 2.5
      vertex 79.0269 -34.1769 2.02747
      vertex 79.0269 34.1769 2.02747
    endloop
  endfacet
  facet normal 0.994522 2.32097e-17 0.104527
    outer loop
      vertex 78.9773 -34.1273 2.5
      vertex 79.0269 -34.1769 2.02747
      vertex 78.9773 34.1273 2.5
    endloop
  endfacet
  facet normal 1.97619e-16 0.994522 0.104527
    outer loop
      vertex -78.9773 34.1273 2.5
      vertex 78.9773 34.1273 2.5
      vertex -79.0269 34.1769 2.02747
    endloop
  endfacet
  facet normal 1.97619e-16 0.994522 0.104527
    outer loop
      vertex -79.0269 34.1769 2.02747
      vertex 78.9773 34.1273 2.5
      vertex 79.0269 34.1769 2.02747
    endloop
  endfacet
  facet normal -2.44038e-16 -0.994522 0.104527
    outer loop
      vertex 79.0269 -34.1769 2.02747
      vertex 78.9773 -34.1273 2.5
      vertex -78.9773 -34.1273 2.5
    endloop
  endfacet
  facet normal -2.44038e-16 -0.994522 0.104527
    outer loop
      vertex 79.0269 -34.1769 2.02747
      vertex -78.9773 -34.1273 2.5
      vertex -79.0269 -34.1769 2.02747
    endloop
  endfacet
  facet normal -0.994522 2.32097e-17 0.104527
    outer loop
      vertex -78.9773 -34.1273 2.5
      vertex -78.9773 34.1273 2.5
      vertex -79.0269 34.1769 2.02747
    endloop
  endfacet
  facet normal -0.994522 2.32097e-17 0.104527
    outer loop
      vertex -78.9773 -34.1273 2.5
      vertex -79.0269 34.1769 2.02747
      vertex -79.0269 -34.1769 2.02747
    endloop
  endfacet
  facet normal 0.994522 -2.32097e-17 -0.104527
    outer loop
      vertex 79.0269 -34.1769 2.97253
      vertex 78.9773 34.1273 2.5
      vertex 79.0269 34.1769 2.97253
    endloop
  endfacet
  facet normal 0.994522 -2.32097e-17 -0.104527
    outer loop
      vertex 78.9773 34.1273 2.5
      vertex 79.0269 -34.1769 2.97253
      vertex 78.9773 -34.1273 2.5
    endloop
  endfacet
  facet normal 2.44038e-16 0.994522 -0.104527
    outer loop
      vertex 79.0269 34.1769 2.97253
      vertex 78.9773 34.1273 2.5
      vertex -78.9773 34.1273 2.5
    endloop
  endfacet
  facet normal 2.44038e-16 0.994522 -0.104527
    outer loop
      vertex -78.9773 34.1273 2.5
      vertex -79.0269 34.1769 2.97253
      vertex 79.0269 34.1769 2.97253
    endloop
  endfacet
  facet normal -1.97619e-16 -0.994522 -0.104527
    outer loop
      vertex 79.0269 -34.1769 2.97253
      vertex -78.9773 -34.1273 2.5
      vertex 78.9773 -34.1273 2.5
    endloop
  endfacet
  facet normal -1.97619e-16 -0.994522 -0.104527
    outer loop
      vertex -79.0269 -34.1769 2.97253
      vertex -78.9773 -34.1273 2.5
      vertex 79.0269 -34.1769 2.97253
    endloop
  endfacet
  facet normal -0.994522 -2.32097e-17 -0.104527
    outer loop
      vertex -79.0269 34.1769 2.97253
      vertex -78.9773 34.1273 2.5
      vertex -78.9773 -34.1273 2.5
    endloop
  endfacet
  facet normal -0.994522 -2.32097e-17 -0.104527
    outer loop
      vertex -78.9773 -34.1273 2.5
      vertex -79.0269 -34.1769 2.97253
      vertex -79.0269 34.1769 2.97253
    endloop
  endfacet
  facet normal 0.951056 -6.86157e-17 -0.309017
    outer loop
      vertex 79.1738 -34.3238 3.4244
      vertex 79.0269 34.1769 2.97253
      vertex 79.1738 34.3238 3.4244
    endloop
  endfacet
  facet normal 0.951056 -6.86157e-17 -0.309017
    outer loop
      vertex 79.0269 34.1769 2.97253
      vertex 79.1738 -34.3238 3.4244
      vertex 79.0269 -34.1769 2.97253
    endloop
  endfacet
  facet normal 2.79793e-16 0.951056 -0.309017
    outer loop
      vertex 79.1738 34.3238 3.4244
      vertex 79.0269 34.1769 2.97253
      vertex -79.0269 34.1769 2.97253
    endloop
  endfacet
  facet normal 2.79793e-16 0.951056 -0.309017
    outer loop
      vertex -79.0269 34.1769 2.97253
      vertex -79.1738 34.3238 3.4244
      vertex 79.1738 34.3238 3.4244
    endloop
  endfacet
  facet normal -1.42561e-16 -0.951056 -0.309017
    outer loop
      vertex 79.1738 -34.3238 3.4244
      vertex -79.0269 -34.1769 2.97253
      vertex 79.0269 -34.1769 2.97253
    endloop
  endfacet
  facet normal -1.42561e-16 -0.951056 -0.309017
    outer loop
      vertex -79.1738 -34.3238 3.4244
      vertex -79.0269 -34.1769 2.97253
      vertex 79.1738 -34.3238 3.4244
    endloop
  endfacet
  facet normal -0.951056 -6.86157e-17 -0.309017
    outer loop
      vertex -79.1738 34.3238 3.4244
      vertex -79.0269 34.1769 2.97253
      vertex -79.0269 -34.1769 2.97253
    endloop
  endfacet
  facet normal -0.951056 -6.86157e-17 -0.309017
    outer loop
      vertex -79.0269 -34.1769 2.97253
      vertex -79.1738 -34.3238 3.4244
      vertex -79.1738 34.3238 3.4244
    endloop
  endfacet
  facet normal 0.866026 -1.11022e-16 -0.5
    outer loop
      vertex 79.2174 -34.3674 3.5
      vertex 79.1738 34.3238 3.4244
      vertex 79.2174 34.3674 3.5
    endloop
  endfacet
  facet normal 0.866026 -1.11022e-16 -0.5
    outer loop
      vertex 79.1738 34.3238 3.4244
      vertex 79.2174 -34.3674 3.5
      vertex 79.1738 -34.3238 3.4244
    endloop
  endfacet
  facet normal 3.03319e-16 0.866026 -0.5
    outer loop
      vertex 79.1738 34.3238 3.4244
      vertex -79.1738 34.3238 3.4244
      vertex 79.2174 34.3674 3.5
    endloop
  endfacet
  facet normal 3.03319e-16 0.866026 -0.5
    outer loop
      vertex 79.2174 34.3674 3.5
      vertex -79.1738 34.3238 3.4244
      vertex -79.2174 34.3674 3.5
    endloop
  endfacet
  facet normal -8.12741e-17 -0.866026 -0.5
    outer loop
      vertex -79.2174 -34.3674 3.5
      vertex -79.1738 -34.3238 3.4244
      vertex 79.2174 -34.3674 3.5
    endloop
  endfacet
  facet normal -8.12741e-17 -0.866026 -0.5
    outer loop
      vertex 79.2174 -34.3674 3.5
      vertex -79.1738 -34.3238 3.4244
      vertex 79.1738 -34.3238 3.4244
    endloop
  endfacet
  facet normal -0.866026 -1.11022e-16 -0.5
    outer loop
      vertex -79.1738 -34.3238 3.4244
      vertex -79.2174 -34.3674 3.5
      vertex -79.1738 34.3238 3.4244
    endloop
  endfacet
  facet normal -0.866026 -1.11022e-16 -0.5
    outer loop
      vertex -79.1738 34.3238 3.4244
      vertex -79.2174 -34.3674 3.5
      vertex -79.2174 34.3674 3.5
    endloop
  endfacet
  facet normal 0 0 1
    outer loop
      vertex -78.75 -33.9 3.5
      vertex -79.2174 34.3674 3.5
      vertex -79.2174 -34.3674 3.5
    endloop
  endfacet
  facet normal 0 0 1
    outer loop
      vertex -78.75 33.9 3.5
      vertex 78.75 33.9 3.5
      vertex 79.2174 34.3674 3.5
    endloop
  endfacet
  facet normal 0 0 1
    outer loop
      vertex -78.75 33.9 3.5
      vertex -79.2174 34.3674 3.5
      vertex -78.75 -33.9 3.5
    endloop
  endfacet
  facet normal 0 0 1
    outer loop
      vertex 79.2174 34.3674 3.5
      vertex -79.2174 34.3674 3.5
      vertex -78.75 33.9 3.5
    endloop
  endfacet
  facet normal 0 0 1
    outer loop
      vertex 79.2174 -34.3674 3.5
      vertex 79.2174 34.3674 3.5
      vertex 78.75 33.9 3.5
    endloop
  endfacet
  facet normal 0 0 1
    outer loop
      vertex 79.2174 -34.3674 3.5
      vertex 78.75 -33.9 3.5
      vertex -79.2174 -34.3674 3.5
    endloop
  endfacet
  facet normal 0 0 1
    outer loop
      vertex 79.2174 -34.3674 3.5
      vertex 78.75 33.9 3.5
      vertex 78.75 -33.9 3.5
    endloop
  endfacet
  facet normal 0 0 1
    outer loop
      vertex 78.75 -33.9 3.5
      vertex -78.75 -33.9 3.5
      vertex -79.2174 -34.3674 3.5
    endloop
  endfacet
  facet normal 1 0 0
    outer loop
      vertex -78.75 33.9 -0.5
      vertex -78.75 33.9 3.5
      vertex -78.75 -33.9 3.5
    endloop
  endfacet
  facet normal 1 0 0
    outer loop
      vertex -78.75 -33.9 -0.5
      vertex -78.75 33.9 -0.5
      vertex -78.75 -33.9 3.5
    endloop
  endfacet
  facet normal 0 1 0
    outer loop
      vertex 78.75 -33.9 3.5
      vertex 78.75 -33.9 -0.5
      vertex -78.75 -33.9 3.5
    endloop
  endfacet
  facet normal 0 1 0
    outer loop
      vertex -78.75 -33.9 3.5
      vertex 78.75 -33.9 -0.5
      vertex -78.75 -33.9 -0.5
    endloop
  endfacet
  facet normal -1 0 0
    outer loop
      vertex 78.75 33.9 3.5
      vertex 78.75 33.9 -0.5
      vertex 78.75 -33.9 3.5
    endloop
  endfacet
  facet normal -1 0 0
    outer loop
      vertex 78.75 -33.9 3.5
      vertex 78.75 33.9 -0.5
      vertex 78.75 -33.9 -0.5
    endloop
  endfacet
  facet normal 0 -1 0
    outer loop
      vertex 78.75 33.9 -0.5
      vertex 78.75 33.9 3.5
      vertex -78.75 33.9 3.5
    endloop
  endfacet
  facet normal 0 -1 0
    outer loop
      vertex -78.75 33.9 -0.5
      vertex 78.75 33.9 -0.5
      vertex -78.75 33.9 3.5
    endloop
  endfacet
  facet normal 0 0 1
    outer loop
      vertex 78.75 -33.9 -0.5
      vertex 78.75 33.9 -0.5
      vertex -78.75 33.9 -0.5
    endloop
  endfacet
  facet normal 0 0 1
    outer loop
      vertex -78.75 -33.9 -0.5
      vertex 78.75 -33.9 -0.5
      vertex -78.75 33.9 -0.5
    endloop
  endfacet
  facet normal 0 0 -1
    outer loop
      vertex 78.7041 23.1376 1
      vertex 67.9876 33.8541 1
      vertex 78.6492 33.7992 1
    endloop
  endfacet
  facet normal 0.00515471 0.999987 0
    outer loop
      vertex 67.9876 33.8541 1
      vertex 67.9876 33.8541 3
      vertex 78.6492 33.7992 1
    endloop
  endfacet
  facet normal 0.00515471 0.999987 0
    outer loop
      vertex 78.6492 33.7992 1
      vertex 67.9876 33.8541 3
      vertex 78.6492 33.7992 3
    endloop
  endfacet
  facet normal -0.707107 -0.707107 0
    outer loop
      vertex 67.9876 33.8541 3
      vertex 67.9876 33.8541 1
      vertex 78.7041 23.1376 1
    endloop
  endfacet
  facet normal -0.707107 -0.707107 0
    outer loop
      vertex 78.7041 23.1376 3
      vertex 67.9876 33.8541 3
      vertex 78.7041 23.1376 1
    endloop
  endfacet
  facet normal 0.999987 0.00515471 0
    outer loop
      vertex 78.7041 23.1376 1
      vertex 78.6492 33.7992 1
      vertex 78.6492 33.7992 3
    endloop
  endfacet
  facet normal 0.999987 0.00515471 0
    outer loop
      vertex 78.7041 23.1376 3
      vertex 78.7041 23.1376 1
      vertex 78.6492 33.7992 3
    endloop
  endfacet
  facet normal 0 0 1
    outer loop
      vertex 78.6492 33.7992 3
      vertex 67.9876 33.8541 3
      vertex 78.7041 23.1376 3
    endloop
  endfacet
  facet normal 0 0 -1
    outer loop
      vertex -67.9876 33.8541 1
      vertex -78.7041 23.1376 1
      vertex -78.6492 33.7992 1
    endloop
  endfacet
  facet normal -0.999987 0.00515471 0
    outer loop
      vertex -78.7041 23.1376 1
      vertex -78.7041 23.1376 3
      vertex -78.6492 33.7992 1
    endloop
  endfacet
  facet normal -0.999987 0.00515471 0
    outer loop
      vertex -78.6492 33.7992 1
      vertex -78.7041 23.1376 3
      vertex -78.6492 33.7992 3
    endloop
  endfacet
  facet normal 0.707107 -0.707107 0
    outer loop
      vertex -78.7041 23.1376 3
      vertex -78.7041 23.1376 1
      vertex -67.9876 33.8541 1
    endloop
  endfacet
  facet normal 0.707107 -0.707107 0
    outer loop
      vertex -67.9876 33.8541 3
      vertex -78.7041 23.1376 3
      vertex -67.9876 33.8541 1
    endloop
  endfacet
  facet normal -0.00515471 0.999987 0
    outer loop
      vertex -78.6492 33.7992 1
      vertex -78.6492 33.7992 3
      vertex -67.9876 33.8541 1
    endloop
  endfacet
  facet normal -0.00515471 0.999987 0
    outer loop
      vertex -67.9876 33.8541 1
      vertex -78.6492 33.7992 3
      vertex -67.9876 33.8541 3
    endloop
  endfacet
  facet normal 0 0 1
    outer loop
      vertex -78.6492 33.7992 3
      vertex -78.7041 23.1376 3
      vertex -67.9876 33.8541 3
    endloop
  endfacet
  facet normal 0 0 -1
    outer loop
      vertex -78.6492 -33.7992 1
      vertex -78.7041 -23.1376 1
      vertex -67.9876 -33.8541 1
    endloop
  endfacet
  facet normal 0.707107 0.707107 0
    outer loop
      vertex -78.7041 -23.1376 1
      vertex -78.7041 -23.1376 3
      vertex -67.9876 -33.8541 1
    endloop
  endfacet
  facet normal 0.707107 0.707107 0
    outer loop
      vertex -67.9876 -33.8541 1
      vertex -78.7041 -23.1376 3
      vertex -67.9876 -33.8541 3
    endloop
  endfacet
  facet normal -0.999987 -0.00515471 0
    outer loop
      vertex -78.7041 -23.1376 1
      vertex -78.6492 -33.7992 1
      vertex -78.7041 -23.1376 3
    endloop
  endfacet
  facet normal -0.999987 -0.00515471 0
    outer loop
      vertex -78.7041 -23.1376 3
      vertex -78.6492 -33.7992 1
      vertex -78.6492 -33.7992 3
    endloop
  endfacet
  facet normal -0.00515471 -0.999987 0
    outer loop
      vertex -78.6492 -33.7992 3
      vertex -78.6492 -33.7992 1
      vertex -67.9876 -33.8541 1
    endloop
  endfacet
  facet normal -0.00515471 -0.999987 0
    outer loop
      vertex -67.9876 -33.8541 3
      vertex -78.6492 -33.7992 3
      vertex -67.9876 -33.8541 1
    endloop
  endfacet
  facet normal 0 0 1
    outer loop
      vertex -67.9876 -33.8541 3
      vertex -78.7041 -23.1376 3
      vertex -78.6492 -33.7992 3
    endloop
  endfacet
  facet normal 0 0 -1
    outer loop
      vertex 78.6492 -33.7992 1
      vertex 67.9876 -33.8541 1
      vertex 78.7041 -23.1376 1
    endloop
  endfacet
  facet normal -0.707107 0.707107 0
    outer loop
      vertex 67.9876 -33.8541 1
      vertex 67.9876 -33.8541 3
      vertex 78.7041 -23.1376 1
    endloop
  endfacet
  facet normal -0.707107 0.707107 0
    outer loop
      vertex 78.7041 -23.1376 1
      vertex 67.9876 -33.8541 3
      vertex 78.7041 -23.1376 3
    endloop
  endfacet
  facet normal 0.00515471 -0.999987 0
    outer loop
      vertex 67.9876 -33.8541 3
      vertex 67.9876 -33.8541 1
      vertex 78.6492 -33.7992 1
    endloop
  endfacet
  facet normal 0.00515471 -0.999987 0
    outer loop
      vertex 78.6492 -33.7992 3
      vertex 67.9876 -33.8541 3
      vertex 78.6492 -33.7992 1
    endloop
  endfacet
  facet normal 0.999987 -0.00515471 0
    outer loop
      vertex 78.6492 -33.7992 3
      vertex 78.6492 -33.7992 1
      vertex 78.7041 -23.1376 1
    endloop
  endfacet
  facet normal 0.999987 -0.00515471 0
    outer loop
      vertex 78.7041 -23.1376 3
      vertex 78.6492 -33.7992 3
      vertex 78.7041 -23.1376 1
    endloop
  endfacet
  facet normal 0 0 1
    outer loop
      vertex 78.7041 -23.1376 3
      vertex 67.9876 -33.8541 3
      vertex 78.6492 -33.7992 3
    endloop
  endfacet
endsolid OpenSCAD_Model
