solid OpenSCAD_Model
  facet normal -1 0 0
    outer loop
      vertex -81.25 -3.2476 -1.9375
      vertex -81.25 -36.2367 0.94606
      vertex -81.25 0 0.875
    endloop
  endfacet
  facet normal -1 0 0
    outer loop
      vertex -81.25 0 0.875
      vertex -81.25 -36.2367 0.94606
      vertex -81.25 36.2367 0.94606
    endloop
  endfacet
  facet normal -1 0 0
    outer loop
      vertex -81.25 36.4 -3.5
      vertex -81.25 36.2367 0.94606
      vertex -81.25 36.4 0.94606
    endloop
  endfacet
  facet normal -1 0 0
    outer loop
      vertex -81.25 -3.2476 -1.9375
      vertex -81.25 -36.4 0.94606
      vertex -81.25 -36.2367 0.94606
    endloop
  endfacet
  facet normal -1 0 0
    outer loop
      vertex -81.25 36.4 -3.5
      vertex -81.25 0 0.875
      vertex -81.25 36.2367 0.94606
    endloop
  endfacet
  facet normal -1 0 0
    outer loop
      vertex -81.25 -36.4 -3.5
      vertex -81.25 -36.4 0.94606
      vertex -81.25 -3.2476 -1.9375
    endloop
  endfacet
  facet normal -1 0 0
    outer loop
      vertex -81.25 -36.4 -3.5
      vertex -81.25 -3.2476 -1.9375
      vertex -81.25 36.4 -3.5
    endloop
  endfacet
  facet normal -1 0 0
    outer loop
      vertex -81.25 -3.2476 -1.9375
      vertex -81.25 3.2476 -1.9375
      vertex -81.25 36.4 -3.5
    endloop
  endfacet
  facet normal -1 0 0
    outer loop
      vertex -81.25 0 0.875
      vertex -81.25 36.4 -3.5
      vertex -81.25 3.2476 -1.9375
    endloop
  endfacet
  facet normal 0 -1 0
    outer loop
      vertex -81.25 -36.4 0.94606
      vertex -81.25 -36.4 -3.5
      vertex -7.5 -36.4 -3.5
    endloop
  endfacet
  facet normal 0 -1 0
    outer loop
      vertex -2.16506 -36.4 -1
      vertex -81.25 -36.4 0.94606
      vertex -7.5 -36.4 -1
    endloop
  endfacet
  facet normal 0 -1 0
    outer loop
      vertex -7.5 -36.4 -1
      vertex -81.25 -36.4 0.94606
      vertex -7.5 -36.4 -3.5
    endloop
  endfacet
  facet normal 0 -1 0
    outer loop
      vertex 9.24446e-32 -36.4 0.875
      vertex -81.25 -36.4 0.94606
      vertex -2.16506 -36.4 -1
    endloop
  endfacet
  facet normal 0 -1 0
    outer loop
      vertex 81.25 -36.4 0.94606
      vertex -81.25 -36.4 0.94606
      vertex 9.24446e-32 -36.4 0.875
    endloop
  endfacet
  facet normal 0 -1 0
    outer loop
      vertex 7.5 -36.4 -1
      vertex 9.24446e-32 -36.4 0.875
      vertex 2.16506 -36.4 -1
    endloop
  endfacet
  facet normal 0 -1 0
    outer loop
      vertex 81.25 -36.4 -3.5
      vertex 9.24446e-32 -36.4 0.875
      vertex 7.5 -36.4 -1
    endloop
  endfacet
  facet normal 0 -1 0
    outer loop
      vertex 81.25 -36.4 -3.5
      vertex 7.5 -36.4 -1
      vertex 7.5 -36.4 -3.5
    endloop
  endfacet
  facet normal 0 -1 0
    outer loop
      vertex 81.25 -36.4 0.94606
      vertex 9.24446e-32 -36.4 0.875
      vertex 81.25 -36.4 -3.5
    endloop
  endfacet
  facet normal 0 -1 0
    outer loop
      vertex 81.0867 -36.4 0.94606
      vertex -81.25 -36.4 0.94606
      vertex 81.25 -36.4 0.94606
    endloop
  endfacet
  facet normal 0 0 -1
    outer loop
      vertex -81.25 -36.4 -3.5
      vertex -81.25 36.4 -3.5
      vertex -7.5 -36.4 -3.5
    endloop
  endfacet
  facet normal 0 0 -1
    outer loop
      vertex -7.5 -36.4 -3.5
      vertex -81.25 36.4 -3.5
      vertex 81.25 36.4 -3.5
    endloop
  endfacet
  facet normal 0 0 -1
    outer loop
      vertex 7.5 -36.4 -3.5
      vertex 81.25 36.4 -3.5
      vertex 81.25 -36.4 -3.5
    endloop
  endfacet
  facet normal 0 0 -1
    outer loop
      vertex -7.5 -36.4 -3.5
      vertex 81.25 36.4 -3.5
      vertex 7.5 -36.4 -3.5
    endloop
  endfacet
  facet normal 0 0 -1
    outer loop
      vertex -2.31763 -50.6658 -3.5
      vertex 0.783963 -51.3178 -3.5
      vertex -0.783963 -51.3178 -3.5
    endloop
  endfacet
  facet normal 0 0 -1
    outer loop
      vertex 7.5 -36.4 -3.5
      vertex 7.33611 -39.5187 -3.5
      vertex -7.5 -36.4 -3.5
    endloop
  endfacet
  facet normal 0 0 -1
    outer loop
      vertex -1.5 -43.9 -3.5
      vertex -6.85159 -42.501 -3.5
      vertex -1.46722 -43.5881 -3.5
    endloop
  endfacet
  facet normal 0 0 -1
    outer loop
      vertex -6.85159 -42.501 -3.5
      vertex -1.5 -43.9 -3.5
      vertex -1.46722 -44.2119 -3.5
    endloop
  endfacet
  facet normal 0 0 -1
    outer loop
      vertex -6.06763 -45.2168 -3.5
      vertex 5.01848 -47.5472 -3.5
      vertex -5.01848 -47.5472 -3.5
    endloop
  endfacet
  facet normal 0 0 -1
    outer loop
      vertex -5.01848 -47.5472 -3.5
      vertex 3.75 -49.3904 -3.5
      vertex -3.75 -49.3904 -3.5
    endloop
  endfacet
  facet normal 0 0 -1
    outer loop
      vertex -3.75 -49.3904 -3.5
      vertex 2.31763 -50.6658 -3.5
      vertex -2.31763 -50.6658 -3.5
    endloop
  endfacet
  facet normal 0 0 -1
    outer loop
      vertex 2.31763 -50.6658 -3.5
      vertex 0.783963 -51.3178 -3.5
      vertex -2.31763 -50.6658 -3.5
    endloop
  endfacet
  facet normal 0 0 -1
    outer loop
      vertex 3.75 -49.3904 -3.5
      vertex 2.31763 -50.6658 -3.5
      vertex -3.75 -49.3904 -3.5
    endloop
  endfacet
  facet normal 0 0 -1
    outer loop
      vertex 5.01848 -47.5472 -3.5
      vertex 3.75 -49.3904 -3.5
      vertex -5.01848 -47.5472 -3.5
    endloop
  endfacet
  facet normal 0 0 -1
    outer loop
      vertex -0.463525 -45.3266 -3.5
      vertex 5.01848 -47.5472 -3.5
      vertex -6.06763 -45.2168 -3.5
    endloop
  endfacet
  facet normal 0 0 -1
    outer loop
      vertex -7.33611 -39.5187 -3.5
      vertex -0.463525 -42.4734 -3.5
      vertex -6.85159 -42.501 -3.5
    endloop
  endfacet
  facet normal 0 0 -1
    outer loop
      vertex 7.33611 -39.5187 -3.5
      vertex 6.85159 -42.501 -3.5
      vertex -7.33611 -39.5187 -3.5
    endloop
  endfacet
  facet normal 0 0 -1
    outer loop
      vertex -0.463525 -45.3266 -3.5
      vertex -6.06763 -45.2168 -3.5
      vertex -0.75 -45.199 -3.5
    endloop
  endfacet
  facet normal 0 0 -1
    outer loop
      vertex -7.33611 -39.5187 -3.5
      vertex 6.85159 -42.501 -3.5
      vertex 0.156793 -42.4082 -3.5
    endloop
  endfacet
  facet normal 0 0 -1
    outer loop
      vertex 1.46722 -44.2119 -3.5
      vertex 6.06763 -45.2168 -3.5
      vertex 1.37032 -44.5101 -3.5
    endloop
  endfacet
  facet normal 0 0 -1
    outer loop
      vertex -7.33611 -39.5187 -3.5
      vertex 0.156793 -42.4082 -3.5
      vertex -0.156793 -42.4082 -3.5
    endloop
  endfacet
  facet normal 0 0 -1
    outer loop
      vertex -1.21352 -44.7817 -3.5
      vertex -6.06763 -45.2168 -3.5
      vertex -1.37032 -44.5101 -3.5
    endloop
  endfacet
  facet normal 0 0 -1
    outer loop
      vertex -7.33611 -39.5187 -3.5
      vertex -0.156793 -42.4082 -3.5
      vertex -0.463525 -42.4734 -3.5
    endloop
  endfacet
  facet normal 0 0 -1
    outer loop
      vertex -1.0037 -45.0147 -3.5
      vertex -6.06763 -45.2168 -3.5
      vertex -1.21352 -44.7817 -3.5
    endloop
  endfacet
  facet normal 0 0 -1
    outer loop
      vertex -0.75 -45.199 -3.5
      vertex -6.06763 -45.2168 -3.5
      vertex -1.0037 -45.0147 -3.5
    endloop
  endfacet
  facet normal 0 0 -1
    outer loop
      vertex -0.156793 -45.3918 -3.5
      vertex 5.01848 -47.5472 -3.5
      vertex -0.463525 -45.3266 -3.5
    endloop
  endfacet
  facet normal 0 0 -1
    outer loop
      vertex 0.463525 -45.3266 -3.5
      vertex 6.06763 -45.2168 -3.5
      vertex 0.156793 -45.3918 -3.5
    endloop
  endfacet
  facet normal 0 0 -1
    outer loop
      vertex 0.156793 -45.3918 -3.5
      vertex 5.01848 -47.5472 -3.5
      vertex -0.156793 -45.3918 -3.5
    endloop
  endfacet
  facet normal 0 0 -1
    outer loop
      vertex 6.06763 -45.2168 -3.5
      vertex 5.01848 -47.5472 -3.5
      vertex 0.156793 -45.3918 -3.5
    endloop
  endfacet
  facet normal 0 0 -1
    outer loop
      vertex 0.75 -45.199 -3.5
      vertex 6.06763 -45.2168 -3.5
      vertex 0.463525 -45.3266 -3.5
    endloop
  endfacet
  facet normal 0 0 -1
    outer loop
      vertex 1.0037 -45.0147 -3.5
      vertex 6.06763 -45.2168 -3.5
      vertex 0.75 -45.199 -3.5
    endloop
  endfacet
  facet normal 0 0 -1
    outer loop
      vertex 1.21352 -44.7817 -3.5
      vertex 6.06763 -45.2168 -3.5
      vertex 1.0037 -45.0147 -3.5
    endloop
  endfacet
  facet normal 0 0 -1
    outer loop
      vertex 1.37032 -44.5101 -3.5
      vertex 6.06763 -45.2168 -3.5
      vertex 1.21352 -44.7817 -3.5
    endloop
  endfacet
  facet normal 0 0 -1
    outer loop
      vertex 6.85159 -42.501 -3.5
      vertex 6.06763 -45.2168 -3.5
      vertex 1.46722 -44.2119 -3.5
    endloop
  endfacet
  facet normal 0 0 -1
    outer loop
      vertex 6.85159 -42.501 -3.5
      vertex 1.46722 -44.2119 -3.5
      vertex 1.5 -43.9 -3.5
    endloop
  endfacet
  facet normal 0 0 -1
    outer loop
      vertex 6.85159 -42.501 -3.5
      vertex 1.5 -43.9 -3.5
      vertex 1.46722 -43.5881 -3.5
    endloop
  endfacet
  facet normal 0 0 -1
    outer loop
      vertex 6.85159 -42.501 -3.5
      vertex 1.46722 -43.5881 -3.5
      vertex 1.37032 -43.2899 -3.5
    endloop
  endfacet
  facet normal 0 0 -1
    outer loop
      vertex 6.85159 -42.501 -3.5
      vertex 1.37032 -43.2899 -3.5
      vertex 1.21352 -43.0183 -3.5
    endloop
  endfacet
  facet normal 0 0 -1
    outer loop
      vertex 6.85159 -42.501 -3.5
      vertex 1.21352 -43.0183 -3.5
      vertex 1.0037 -42.7853 -3.5
    endloop
  endfacet
  facet normal 0 0 -1
    outer loop
      vertex 6.85159 -42.501 -3.5
      vertex 1.0037 -42.7853 -3.5
      vertex 0.75 -42.601 -3.5
    endloop
  endfacet
  facet normal 0 0 -1
    outer loop
      vertex -0.75 -42.601 -3.5
      vertex -6.85159 -42.501 -3.5
      vertex -0.463525 -42.4734 -3.5
    endloop
  endfacet
  facet normal 0 0 -1
    outer loop
      vertex 6.85159 -42.501 -3.5
      vertex 0.463525 -42.4734 -3.5
      vertex 0.156793 -42.4082 -3.5
    endloop
  endfacet
  facet normal 0 0 -1
    outer loop
      vertex 0.463525 -42.4734 -3.5
      vertex 6.85159 -42.501 -3.5
      vertex 0.75 -42.601 -3.5
    endloop
  endfacet
  facet normal 0 0 -1
    outer loop
      vertex -1.0037 -42.7853 -3.5
      vertex -6.85159 -42.501 -3.5
      vertex -0.75 -42.601 -3.5
    endloop
  endfacet
  facet normal 0 0 -1
    outer loop
      vertex -1.21352 -43.0183 -3.5
      vertex -6.85159 -42.501 -3.5
      vertex -1.0037 -42.7853 -3.5
    endloop
  endfacet
  facet normal 0 0 -1
    outer loop
      vertex -1.37032 -43.2899 -3.5
      vertex -6.85159 -42.501 -3.5
      vertex -1.21352 -43.0183 -3.5
    endloop
  endfacet
  facet normal 0 0 -1
    outer loop
      vertex -1.46722 -43.5881 -3.5
      vertex -6.85159 -42.501 -3.5
      vertex -1.37032 -43.2899 -3.5
    endloop
  endfacet
  facet normal 0 0 -1
    outer loop
      vertex -7.5 -36.4 -3.5
      vertex 7.33611 -39.5187 -3.5
      vertex -7.33611 -39.5187 -3.5
    endloop
  endfacet
  facet normal 0 0 -1
    outer loop
      vertex -6.85159 -42.501 -3.5
      vertex -1.46722 -44.2119 -3.5
      vertex -1.37032 -44.5101 -3.5
    endloop
  endfacet
  facet normal 0 0 -1
    outer loop
      vertex -6.85159 -42.501 -3.5
      vertex -1.37032 -44.5101 -3.5
      vertex -6.06763 -45.2168 -3.5
    endloop
  endfacet
  facet normal 0 1 0
    outer loop
      vertex 9.24446e-32 36.4 0.875
      vertex -81.25 36.4 0.94606
      vertex 81.0867 36.4 0.94606
    endloop
  endfacet
  facet normal 0 1 0
    outer loop
      vertex 81.25 36.4 -3.5
      vertex 81.0867 36.4 0.94606
      vertex 81.25 36.4 0.94606
    endloop
  endfacet
  facet normal 0 1 0
    outer loop
      vertex -3.2476 36.4 -1.9375
      vertex -81.25 36.4 0.94606
      vertex 9.24446e-32 36.4 0.875
    endloop
  endfacet
  facet normal 0 1 0
    outer loop
      vertex 81.25 36.4 -3.5
      vertex 9.24446e-32 36.4 0.875
      vertex 81.0867 36.4 0.94606
    endloop
  endfacet
  facet normal 0 1 0
    outer loop
      vertex -81.25 36.4 -3.5
      vertex -81.25 36.4 0.94606
      vertex -3.2476 36.4 -1.9375
    endloop
  endfacet
  facet normal 0 1 0
    outer loop
      vertex -81.25 36.4 -3.5
      vertex -3.2476 36.4 -1.9375
      vertex 81.25 36.4 -3.5
    endloop
  endfacet
  facet normal 0 1 0
    outer loop
      vertex -3.2476 36.4 -1.9375
      vertex 3.2476 36.4 -1.9375
      vertex 81.25 36.4 -3.5
    endloop
  endfacet
  facet normal 0 1 0
    outer loop
      vertex 9.24446e-32 36.4 0.875
      vertex 81.25 36.4 -3.5
      vertex 3.2476 36.4 -1.9375
    endloop
  endfacet
  facet normal -2.22045e-16 4.93038e-32 1
    outer loop
      vertex 81.0867 36.2367 0.94606
      vertex 81.0867 36.4 0.94606
      vertex -81.25 36.4 0.94606
    endloop
  endfacet
  facet normal -2.22045e-16 4.93038e-32 1
    outer loop
      vertex -81.25 36.2367 0.94606
      vertex 81.0867 36.2367 0.94606
      vertex -81.25 36.4 0.94606
    endloop
  endfacet
  facet normal -1.71027e-16 0.20791 0.978148
    outer loop
      vertex -81.0867 36.2367 0.94606
      vertex -80.7672 35.9172 1.01397
      vertex 80.7672 35.9172 1.01397
    endloop
  endfacet
  facet normal -1.71027e-16 0.20791 0.978148
    outer loop
      vertex 81.0867 36.2367 0.94606
      vertex -81.0867 36.2367 0.94606
      vertex 80.7672 35.9172 1.01397
    endloop
  endfacet
  facet normal -1.71027e-16 0.20791 0.978148
    outer loop
      vertex -81.25 36.2367 0.94606
      vertex -81.0867 36.2367 0.94606
      vertex 81.0867 36.2367 0.94606
    endloop
  endfacet
  facet normal 0 2.22045e-16 1
    outer loop
      vertex -81.0867 -36.2367 0.94606
      vertex -81.0867 36.2367 0.94606
      vertex -81.25 36.2367 0.94606
    endloop
  endfacet
  facet normal 0 2.22045e-16 1
    outer loop
      vertex -81.25 -36.2367 0.94606
      vertex -81.0867 -36.2367 0.94606
      vertex -81.25 36.2367 0.94606
    endloop
  endfacet
  facet normal -2.63358e-16 -0.20791 0.978148
    outer loop
      vertex 81.0867 -36.2367 0.94606
      vertex 80.7672 -35.9172 1.01397
      vertex -80.7672 -35.9172 1.01397
    endloop
  endfacet
  facet normal -2.63358e-16 -0.20791 0.978148
    outer loop
      vertex 81.0867 -36.2367 0.94606
      vertex -81.0867 -36.2367 0.94606
      vertex -81.25 -36.2367 0.94606
    endloop
  endfacet
  facet normal -2.63358e-16 -0.20791 0.978148
    outer loop
      vertex 81.0867 -36.2367 0.94606
      vertex -80.7672 -35.9172 1.01397
      vertex -81.0867 -36.2367 0.94606
    endloop
  endfacet
  facet normal -2.22045e-16 4.93038e-32 1
    outer loop
      vertex 81.0867 -36.4 0.94606
      vertex 81.0867 -36.2367 0.94606
      vertex -81.25 -36.2367 0.94606
    endloop
  endfacet
  facet normal -2.22045e-16 4.93038e-32 1
    outer loop
      vertex -81.25 -36.4 0.94606
      vertex 81.0867 -36.4 0.94606
      vertex -81.25 -36.2367 0.94606
    endloop
  endfacet
  facet normal 1.6785e-16 -0.654654 -0.755929
    outer loop
      vertex -76.25 3.2476 -1.9375
      vertex -76.25 1.58771 -0.5
      vertex -81.25 3.2476 -1.9375
    endloop
  endfacet
  facet normal 1.6785e-16 -0.654654 -0.755929
    outer loop
      vertex -81.25 3.2476 -1.9375
      vertex -76.25 1.58771 -0.5
      vertex -78.75 1.58771 -0.5
    endloop
  endfacet
  facet normal 1.6785e-16 -0.654654 -0.755929
    outer loop
      vertex -81.25 3.2476 -1.9375
      vertex -78.75 1.58771 -0.5
      vertex -78.75 0 0.875
    endloop
  endfacet
  facet normal 1.6785e-16 -0.654654 -0.755929
    outer loop
      vertex -81.25 3.2476 -1.9375
      vertex -78.75 0 0.875
      vertex -81.25 0 0.875
    endloop
  endfacet
  facet normal 1.6785e-16 0.654654 -0.755929
    outer loop
      vertex -78.75 0 0.875
      vertex -78.75 -1.58771 -0.5
      vertex -81.25 0 0.875
    endloop
  endfacet
  facet normal 1.6785e-16 0.654654 -0.755929
    outer loop
      vertex -76.25 -3.2476 -1.9375
      vertex -78.75 -1.58771 -0.5
      vertex -76.25 -1.58771 -0.5
    endloop
  endfacet
  facet normal 1.6785e-16 0.654654 -0.755929
    outer loop
      vertex -81.25 0 0.875
      vertex -78.75 -1.58771 -0.5
      vertex -76.25 -3.2476 -1.9375
    endloop
  endfacet
  facet normal 1.6785e-16 0.654654 -0.755929
    outer loop
      vertex -81.25 0 0.875
      vertex -76.25 -3.2476 -1.9375
      vertex -81.25 -3.2476 -1.9375
    endloop
  endfacet
  facet normal -2.22045e-16 0 1
    outer loop
      vertex -76.25 -3.2476 -1.9375
      vertex -76.25 3.2476 -1.9375
      vertex -81.25 3.2476 -1.9375
    endloop
  endfacet
  facet normal -2.22045e-16 0 1
    outer loop
      vertex -81.25 -3.2476 -1.9375
      vertex -76.25 -3.2476 -1.9375
      vertex -81.25 3.2476 -1.9375
    endloop
  endfacet
  facet normal 0.20791 2.17192e-16 0.978148
    outer loop
      vertex 81.0867 36.4 0.94606
      vertex 81.0867 -36.2367 0.94606
      vertex 81.0867 -36.4 0.94606
    endloop
  endfacet
  facet normal 0.20791 2.17192e-16 0.978148
    outer loop
      vertex 80.7672 -35.9172 1.01397
      vertex 81.0867 36.2367 0.94606
      vertex 80.7672 35.9172 1.01397
    endloop
  endfacet
  facet normal 0.20791 2.17192e-16 0.978148
    outer loop
      vertex 81.0867 36.2367 0.94606
      vertex 81.0867 -36.2367 0.94606
      vertex 81.0867 36.4 0.94606
    endloop
  endfacet
  facet normal 0.20791 2.17192e-16 0.978148
    outer loop
      vertex 80.7672 -35.9172 1.01397
      vertex 81.0867 -36.2367 0.94606
      vertex 81.0867 36.2367 0.94606
    endloop
  endfacet
  facet normal 0 2.22045e-16 1
    outer loop
      vertex 81.25 -36.4 0.94606
      vertex 81.25 36.4 0.94606
      vertex 81.0867 36.4 0.94606
    endloop
  endfacet
  facet normal 0 2.22045e-16 1
    outer loop
      vertex 81.0867 -36.4 0.94606
      vertex 81.25 -36.4 0.94606
      vertex 81.0867 36.4 0.94606
    endloop
  endfacet
  facet normal 1 0 0
    outer loop
      vertex 81.25 -3.2476 -1.9375
      vertex 81.25 -36.4 -3.5
      vertex 81.25 36.4 -3.5
    endloop
  endfacet
  facet normal 1 0 0
    outer loop
      vertex 81.25 3.2476 -1.9375
      vertex 81.25 -3.2476 -1.9375
      vertex 81.25 36.4 -3.5
    endloop
  endfacet
  facet normal 1 0 0
    outer loop
      vertex 81.25 -36.4 0.94606
      vertex 81.25 -36.4 -3.5
      vertex 81.25 -3.2476 -1.9375
    endloop
  endfacet
  facet normal 1 0 0
    outer loop
      vertex 81.25 36.4 0.94606
      vertex 81.25 0 0.875
      vertex 81.25 36.4 -3.5
    endloop
  endfacet
  facet normal 1 0 0
    outer loop
      vertex 81.25 36.4 0.94606
      vertex 81.25 -36.4 0.94606
      vertex 81.25 0 0.875
    endloop
  endfacet
  facet normal 1 0 0
    outer loop
      vertex 81.25 0 0.875
      vertex 81.25 3.2476 -1.9375
      vertex 81.25 36.4 -3.5
    endloop
  endfacet
  facet normal 1 0 0
    outer loop
      vertex 81.25 -3.2476 -1.9375
      vertex 81.25 0 0.875
      vertex 81.25 -36.4 0.94606
    endloop
  endfacet
  facet normal 0.998622 -0.0524797 0
    outer loop
      vertex 7.33611 -39.5187 -1
      vertex 7.33611 -39.5187 -3.5
      vertex 7.5 -36.4 -3.5
    endloop
  endfacet
  facet normal 0.998622 -0.0524797 0
    outer loop
      vertex 7.5 -36.4 -1
      vertex 7.33611 -39.5187 -1
      vertex 7.5 -36.4 -3.5
    endloop
  endfacet
  facet normal 0 0 1
    outer loop
      vertex -2.16506 -36.4 -1
      vertex -7.5 -36.4 -1
      vertex -7.33611 -39.5187 -1
    endloop
  endfacet
  facet normal 0 0 1
    outer loop
      vertex -6.06763 -45.2168 -1
      vertex -2.16506 -36.4 -1
      vertex -6.85159 -42.501 -1
    endloop
  endfacet
  facet normal 0 0 1
    outer loop
      vertex -6.85159 -42.501 -1
      vertex -2.16506 -36.4 -1
      vertex -7.33611 -39.5187 -1
    endloop
  endfacet
  facet normal 0 0 1
    outer loop
      vertex -5.01848 -47.5472 -1
      vertex -2.16506 -36.4 -1
      vertex -6.06763 -45.2168 -1
    endloop
  endfacet
  facet normal 0 0 1
    outer loop
      vertex -3.75 -49.3904 -1
      vertex -2.16506 -36.4 -1
      vertex -5.01848 -47.5472 -1
    endloop
  endfacet
  facet normal 0 0 1
    outer loop
      vertex -2.31763 -50.6658 -1
      vertex -2.16506 -36.4 -1
      vertex -3.75 -49.3904 -1
    endloop
  endfacet
  facet normal 0 0 1
    outer loop
      vertex -1.5 -43.9 -1
      vertex -2.16506 -36.4 -1
      vertex -2.31763 -50.6658 -1
    endloop
  endfacet
  facet normal 0 0 1
    outer loop
      vertex -1.5 -43.9 -1
      vertex -1.46722 -43.5881 -1
      vertex -2.16506 -36.4 -1
    endloop
  endfacet
  facet normal 0 0 1
    outer loop
      vertex 0.463525 -45.3266 -1
      vertex 0.156793 -45.3918 -1
      vertex 2.31763 -50.6658 -1
    endloop
  endfacet
  facet normal 0 0 1
    outer loop
      vertex 1.37032 -44.5101 -1
      vertex 1.21352 -44.7817 -1
      vertex 3.75 -49.3904 -1
    endloop
  endfacet
  facet normal 0 0 1
    outer loop
      vertex 6.06763 -45.2168 -1
      vertex -2.16506 -36.4 -1
      vertex 5.01848 -47.5472 -1
    endloop
  endfacet
  facet normal 0 0 1
    outer loop
      vertex 6.85159 -42.501 -1
      vertex -2.16506 -36.4 -1
      vertex 6.06763 -45.2168 -1
    endloop
  endfacet
  facet normal 0 0 1
    outer loop
      vertex 7.33611 -39.5187 -1
      vertex -2.16506 -36.4 -1
      vertex 6.85159 -42.501 -1
    endloop
  endfacet
  facet normal 0 0 1
    outer loop
      vertex 2.16506 -36.4 -1
      vertex -2.16506 -36.4 -1
      vertex 7.33611 -39.5187 -1
    endloop
  endfacet
  facet normal 0 0 1
    outer loop
      vertex 7.5 -36.4 -1
      vertex 2.16506 -36.4 -1
      vertex 7.33611 -39.5187 -1
    endloop
  endfacet
  facet normal 0 0 1
    outer loop
      vertex -0.783963 -51.3178 -1
      vertex -1.46722 -44.2119 -1
      vertex -2.31763 -50.6658 -1
    endloop
  endfacet
  facet normal 0 0 1
    outer loop
      vertex -1.46722 -44.2119 -1
      vertex -1.5 -43.9 -1
      vertex -2.31763 -50.6658 -1
    endloop
  endfacet
  facet normal 0 0 1
    outer loop
      vertex -1.0037 -42.7853 -1
      vertex -0.75 -42.601 -1
      vertex -2.16506 -36.4 -1
    endloop
  endfacet
  facet normal 0 0 1
    outer loop
      vertex -1.37032 -43.2899 -1
      vertex -2.16506 -36.4 -1
      vertex -1.46722 -43.5881 -1
    endloop
  endfacet
  facet normal 0 0 1
    outer loop
      vertex -1.21352 -43.0183 -1
      vertex -2.16506 -36.4 -1
      vertex -1.37032 -43.2899 -1
    endloop
  endfacet
  facet normal 0 0 1
    outer loop
      vertex -1.0037 -42.7853 -1
      vertex -2.16506 -36.4 -1
      vertex -1.21352 -43.0183 -1
    endloop
  endfacet
  facet normal 0 0 1
    outer loop
      vertex -0.75 -45.199 -1
      vertex -1.0037 -45.0147 -1
      vertex 0.783963 -51.3178 -1
    endloop
  endfacet
  facet normal 0 0 1
    outer loop
      vertex 1.46722 -44.2119 -1
      vertex 1.37032 -44.5101 -1
      vertex 3.75 -49.3904 -1
    endloop
  endfacet
  facet normal 0 0 1
    outer loop
      vertex -0.463525 -42.4734 -1
      vertex -2.16506 -36.4 -1
      vertex -0.75 -42.601 -1
    endloop
  endfacet
  facet normal 0 0 1
    outer loop
      vertex 0.463525 -42.4734 -1
      vertex 0.75 -42.601 -1
      vertex -2.16506 -36.4 -1
    endloop
  endfacet
  facet normal 0 0 1
    outer loop
      vertex -0.463525 -45.3266 -1
      vertex -0.75 -45.199 -1
      vertex 0.783963 -51.3178 -1
    endloop
  endfacet
  facet normal 0 0 1
    outer loop
      vertex 0.156793 -42.4082 -1
      vertex -2.16506 -36.4 -1
      vertex -0.156793 -42.4082 -1
    endloop
  endfacet
  facet normal 0 0 1
    outer loop
      vertex 0.463525 -42.4734 -1
      vertex -2.16506 -36.4 -1
      vertex 0.156793 -42.4082 -1
    endloop
  endfacet
  facet normal 0 0 1
    outer loop
      vertex 1.21352 -43.0183 -1
      vertex 1.37032 -43.2899 -1
      vertex 5.01848 -47.5472 -1
    endloop
  endfacet
  facet normal 0 0 1
    outer loop
      vertex 0.75 -45.199 -1
      vertex 0.463525 -45.3266 -1
      vertex 2.31763 -50.6658 -1
    endloop
  endfacet
  facet normal 0 0 1
    outer loop
      vertex 1.0037 -42.7853 -1
      vertex -2.16506 -36.4 -1
      vertex 0.75 -42.601 -1
    endloop
  endfacet
  facet normal 0 0 1
    outer loop
      vertex 1.21352 -43.0183 -1
      vertex -2.16506 -36.4 -1
      vertex 1.0037 -42.7853 -1
    endloop
  endfacet
  facet normal 0 0 1
    outer loop
      vertex 1.37032 -43.2899 -1
      vertex 1.46722 -43.5881 -1
      vertex 5.01848 -47.5472 -1
    endloop
  endfacet
  facet normal 0 0 1
    outer loop
      vertex 5.01848 -47.5472 -1
      vertex -2.16506 -36.4 -1
      vertex 1.21352 -43.0183 -1
    endloop
  endfacet
  facet normal 0 0 1
    outer loop
      vertex 5.01848 -47.5472 -1
      vertex 1.46722 -43.5881 -1
      vertex 3.75 -49.3904 -1
    endloop
  endfacet
  facet normal 0 0 1
    outer loop
      vertex 1.46722 -43.5881 -1
      vertex 1.5 -43.9 -1
      vertex 3.75 -49.3904 -1
    endloop
  endfacet
  facet normal 0 0 1
    outer loop
      vertex 1.5 -43.9 -1
      vertex 1.46722 -44.2119 -1
      vertex 3.75 -49.3904 -1
    endloop
  endfacet
  facet normal 0 0 1
    outer loop
      vertex 1.21352 -44.7817 -1
      vertex 1.0037 -45.0147 -1
      vertex 3.75 -49.3904 -1
    endloop
  endfacet
  facet normal 0 0 1
    outer loop
      vertex 3.75 -49.3904 -1
      vertex 1.0037 -45.0147 -1
      vertex 2.31763 -50.6658 -1
    endloop
  endfacet
  facet normal 0 0 1
    outer loop
      vertex 1.0037 -45.0147 -1
      vertex 0.75 -45.199 -1
      vertex 2.31763 -50.6658 -1
    endloop
  endfacet
  facet normal 0 0 1
    outer loop
      vertex -0.156793 -45.3918 -1
      vertex -0.463525 -45.3266 -1
      vertex 0.783963 -51.3178 -1
    endloop
  endfacet
  facet normal 0 0 1
    outer loop
      vertex 2.31763 -50.6658 -1
      vertex 0.156793 -45.3918 -1
      vertex 0.783963 -51.3178 -1
    endloop
  endfacet
  facet normal 0 0 1
    outer loop
      vertex 0.156793 -45.3918 -1
      vertex -0.156793 -45.3918 -1
      vertex 0.783963 -51.3178 -1
    endloop
  endfacet
  facet normal 0 0 1
    outer loop
      vertex -0.463525 -42.4734 -1
      vertex -0.156793 -42.4082 -1
      vertex -2.16506 -36.4 -1
    endloop
  endfacet
  facet normal 0 0 1
    outer loop
      vertex -1.0037 -45.0147 -1
      vertex -1.21352 -44.7817 -1
      vertex 0.783963 -51.3178 -1
    endloop
  endfacet
  facet normal 0 0 1
    outer loop
      vertex 0.783963 -51.3178 -1
      vertex -1.21352 -44.7817 -1
      vertex -0.783963 -51.3178 -1
    endloop
  endfacet
  facet normal 0 0 1
    outer loop
      vertex -1.21352 -44.7817 -1
      vertex -1.37032 -44.5101 -1
      vertex -0.783963 -51.3178 -1
    endloop
  endfacet
  facet normal 0 0 1
    outer loop
      vertex -1.37032 -44.5101 -1
      vertex -1.46722 -44.2119 -1
      vertex -0.783963 -51.3178 -1
    endloop
  endfacet
  facet normal 0 1 0
    outer loop
      vertex 2.16506 -36.4 -1
      vertex 3.2476 -36.4 -1.9375
      vertex -2.16506 -36.4 -1
    endloop
  endfacet
  facet normal 0 1 0
    outer loop
      vertex -2.16506 -36.4 -1
      vertex 3.2476 -36.4 -1.9375
      vertex -3.2476 -36.4 -1.9375
    endloop
  endfacet
  facet normal -0.654654 3.13212e-16 -0.755929
    outer loop
      vertex 1.58771 -33.9 -0.5
      vertex 1.58771 -31.4 -0.5
      vertex 3.2476 -31.4 -1.9375
    endloop
  endfacet
  facet normal -0.654654 3.13212e-16 -0.755929
    outer loop
      vertex 1.58771 -33.9 -0.5
      vertex 3.2476 -31.4 -1.9375
      vertex 3.2476 -36.4 -1.9375
    endloop
  endfacet
  facet normal -0.654654 3.13212e-16 -0.755929
    outer loop
      vertex 1.58771 -33.9 -0.5
      vertex 3.2476 -36.4 -1.9375
      vertex 5.55112e-16 -33.9 0.875
    endloop
  endfacet
  facet normal -0.654654 3.13212e-16 -0.755929
    outer loop
      vertex 3.2476 -36.4 -1.9375
      vertex 2.16506 -36.4 -1
      vertex 5.55112e-16 -33.9 0.875
    endloop
  endfacet
  facet normal -0.654654 3.13212e-16 -0.755929
    outer loop
      vertex 2.16506 -36.4 -1
      vertex 9.24446e-32 -36.4 0.875
      vertex 5.55112e-16 -33.9 0.875
    endloop
  endfacet
  facet normal 0.654654 2.24876e-17 -0.755929
    outer loop
      vertex -1.58771 -31.4 -0.5
      vertex -1.58771 -33.9 -0.5
      vertex -3.24759 -31.4 -1.9375
    endloop
  endfacet
  facet normal 0.654654 2.24876e-17 -0.755929
    outer loop
      vertex 9.24446e-32 -36.4 0.875
      vertex -1.58771 -33.9 -0.5
      vertex 5.55112e-16 -33.9 0.875
    endloop
  endfacet
  facet normal 0.654654 2.24876e-17 -0.755929
    outer loop
      vertex -3.24759 -31.4 -1.9375
      vertex -1.58771 -33.9 -0.5
      vertex 9.24446e-32 -36.4 0.875
    endloop
  endfacet
  facet normal 0.654654 2.24876e-17 -0.755929
    outer loop
      vertex -3.24759 -31.4 -1.9375
      vertex 9.24446e-32 -36.4 0.875
      vertex -2.16506 -36.4 -1
    endloop
  endfacet
  facet normal 0.654654 2.24876e-17 -0.755929
    outer loop
      vertex -3.24759 -31.4 -1.9375
      vertex -2.16506 -36.4 -1
      vertex -3.2476 -36.4 -1.9375
    endloop
  endfacet
  facet normal -0.998622 -0.0524797 0
    outer loop
      vertex -7.5 -36.4 -3.5
      vertex -7.33611 -39.5187 -3.5
      vertex -7.5 -36.4 -1
    endloop
  endfacet
  facet normal -0.998622 -0.0524797 0
    outer loop
      vertex -7.5 -36.4 -1
      vertex -7.33611 -39.5187 -3.5
      vertex -7.33611 -39.5187 -1
    endloop
  endfacet
  facet normal -0.987059 -0.160357 0
    outer loop
      vertex -7.33611 -39.5187 -3.5
      vertex -6.85159 -42.501 -3.5
      vertex -7.33611 -39.5187 -1
    endloop
  endfacet
  facet normal -0.987059 -0.160357 0
    outer loop
      vertex -7.33611 -39.5187 -1
      vertex -6.85159 -42.501 -3.5
      vertex -6.85159 -42.501 -1
    endloop
  endfacet
  facet normal -0.960769 -0.27735 0
    outer loop
      vertex -6.85159 -42.501 -3.5
      vertex -6.06763 -45.2168 -3.5
      vertex -6.85159 -42.501 -1
    endloop
  endfacet
  facet normal -0.960769 -0.27735 0
    outer loop
      vertex -6.85159 -42.501 -1
      vertex -6.06763 -45.2168 -3.5
      vertex -6.06763 -45.2168 -1
    endloop
  endfacet
  facet normal -0.911853 -0.410518 0
    outer loop
      vertex -6.06763 -45.2168 -3.5
      vertex -5.01848 -47.5472 -3.5
      vertex -6.06763 -45.2168 -1
    endloop
  endfacet
  facet normal -0.911853 -0.410518 0
    outer loop
      vertex -6.06763 -45.2168 -1
      vertex -5.01848 -47.5472 -3.5
      vertex -5.01848 -47.5472 -1
    endloop
  endfacet
  facet normal -0.823776 -0.566915 0
    outer loop
      vertex -5.01848 -47.5472 -3.5
      vertex -3.75 -49.3904 -3.5
      vertex -5.01848 -47.5472 -1
    endloop
  endfacet
  facet normal -0.823776 -0.566915 0
    outer loop
      vertex -5.01848 -47.5472 -1
      vertex -3.75 -49.3904 -3.5
      vertex -3.75 -49.3904 -1
    endloop
  endfacet
  facet normal -0.665018 -0.746828 0
    outer loop
      vertex -3.75 -49.3904 -1
      vertex -3.75 -49.3904 -3.5
      vertex -2.31763 -50.6658 -3.5
    endloop
  endfacet
  facet normal -0.665018 -0.746828 0
    outer loop
      vertex -2.31763 -50.6658 -1
      vertex -3.75 -49.3904 -1
      vertex -2.31763 -50.6658 -3.5
    endloop
  endfacet
  facet normal -0.391228 -0.920294 0
    outer loop
      vertex -2.31763 -50.6658 -1
      vertex -2.31763 -50.6658 -3.5
      vertex -0.783963 -51.3178 -3.5
    endloop
  endfacet
  facet normal -0.391228 -0.920294 0
    outer loop
      vertex -0.783963 -51.3178 -1
      vertex -2.31763 -50.6658 -1
      vertex -0.783963 -51.3178 -3.5
    endloop
  endfacet
  facet normal 0 -1 0
    outer loop
      vertex -0.783963 -51.3178 -1
      vertex -0.783963 -51.3178 -3.5
      vertex 0.783963 -51.3178 -3.5
    endloop
  endfacet
  facet normal 0 -1 0
    outer loop
      vertex 0.783963 -51.3178 -1
      vertex -0.783963 -51.3178 -1
      vertex 0.783963 -51.3178 -3.5
    endloop
  endfacet
  facet normal 0.391228 -0.920294 0
    outer loop
      vertex 0.783963 -51.3178 -1
      vertex 0.783963 -51.3178 -3.5
      vertex 2.31763 -50.6658 -3.5
    endloop
  endfacet
  facet normal 0.391228 -0.920294 0
    outer loop
      vertex 2.31763 -50.6658 -1
      vertex 0.783963 -51.3178 -1
      vertex 2.31763 -50.6658 -3.5
    endloop
  endfacet
  facet normal 0.665018 -0.746828 0
    outer loop
      vertex 2.31763 -50.6658 -1
      vertex 2.31763 -50.6658 -3.5
      vertex 3.75 -49.3904 -3.5
    endloop
  endfacet
  facet normal 0.665018 -0.746828 0
    outer loop
      vertex 3.75 -49.3904 -1
      vertex 2.31763 -50.6658 -1
      vertex 3.75 -49.3904 -3.5
    endloop
  endfacet
  facet normal 0.823776 -0.566915 0
    outer loop
      vertex 3.75 -49.3904 -1
      vertex 3.75 -49.3904 -3.5
      vertex 5.01848 -47.5472 -3.5
    endloop
  endfacet
  facet normal 0.823776 -0.566915 0
    outer loop
      vertex 5.01848 -47.5472 -1
      vertex 3.75 -49.3904 -1
      vertex 5.01848 -47.5472 -3.5
    endloop
  endfacet
  facet normal 0.911853 -0.410518 0
    outer loop
      vertex 5.01848 -47.5472 -1
      vertex 5.01848 -47.5472 -3.5
      vertex 6.06763 -45.2168 -3.5
    endloop
  endfacet
  facet normal 0.911853 -0.410518 0
    outer loop
      vertex 6.06763 -45.2168 -1
      vertex 5.01848 -47.5472 -1
      vertex 6.06763 -45.2168 -3.5
    endloop
  endfacet
  facet normal 0.960769 -0.27735 0
    outer loop
      vertex 6.06763 -45.2168 -1
      vertex 6.06763 -45.2168 -3.5
      vertex 6.85159 -42.501 -3.5
    endloop
  endfacet
  facet normal 0.960769 -0.27735 0
    outer loop
      vertex 6.85159 -42.501 -1
      vertex 6.06763 -45.2168 -1
      vertex 6.85159 -42.501 -3.5
    endloop
  endfacet
  facet normal 0.987059 -0.160357 0
    outer loop
      vertex 6.85159 -42.501 -1
      vertex 6.85159 -42.501 -3.5
      vertex 7.33611 -39.5187 -3.5
    endloop
  endfacet
  facet normal 0.987059 -0.160357 0
    outer loop
      vertex 7.33611 -39.5187 -1
      vertex 6.85159 -42.501 -1
      vertex 7.33611 -39.5187 -3.5
    endloop
  endfacet
  facet normal 0.994522 -0.10453 0
    outer loop
      vertex -1.46722 -43.5881 -3.5
      vertex -1.46722 -43.5881 -1
      vertex -1.5 -43.9 -1
    endloop
  endfacet
  facet normal 0.994522 -0.10453 0
    outer loop
      vertex -1.5 -43.9 -3.5
      vertex -1.46722 -43.5881 -3.5
      vertex -1.5 -43.9 -1
    endloop
  endfacet
  facet normal 0.994522 0.10453 0
    outer loop
      vertex -1.5 -43.9 -1
      vertex -1.46722 -44.2119 -1
      vertex -1.46722 -44.2119 -3.5
    endloop
  endfacet
  facet normal 0.994522 0.10453 0
    outer loop
      vertex -1.5 -43.9 -3.5
      vertex -1.5 -43.9 -1
      vertex -1.46722 -44.2119 -3.5
    endloop
  endfacet
  facet normal 0.951057 -0.309017 0
    outer loop
      vertex -1.37032 -43.2899 -3.5
      vertex -1.37032 -43.2899 -1
      vertex -1.46722 -43.5881 -1
    endloop
  endfacet
  facet normal 0.951057 -0.309017 0
    outer loop
      vertex -1.46722 -43.5881 -3.5
      vertex -1.37032 -43.2899 -3.5
      vertex -1.46722 -43.5881 -1
    endloop
  endfacet
  facet normal 0.866025 -0.500001 0
    outer loop
      vertex -1.21352 -43.0183 -3.5
      vertex -1.21352 -43.0183 -1
      vertex -1.37032 -43.2899 -1
    endloop
  endfacet
  facet normal 0.866025 -0.500001 0
    outer loop
      vertex -1.37032 -43.2899 -3.5
      vertex -1.21352 -43.0183 -3.5
      vertex -1.37032 -43.2899 -1
    endloop
  endfacet
  facet normal 0.743145 -0.66913 0
    outer loop
      vertex -1.0037 -42.7853 -3.5
      vertex -1.0037 -42.7853 -1
      vertex -1.21352 -43.0183 -1
    endloop
  endfacet
  facet normal 0.743145 -0.66913 0
    outer loop
      vertex -1.21352 -43.0183 -3.5
      vertex -1.0037 -42.7853 -3.5
      vertex -1.21352 -43.0183 -1
    endloop
  endfacet
  facet normal 0.587785 -0.809017 0
    outer loop
      vertex -0.75 -42.601 -3.5
      vertex -0.75 -42.601 -1
      vertex -1.0037 -42.7853 -1
    endloop
  endfacet
  facet normal 0.587785 -0.809017 0
    outer loop
      vertex -1.0037 -42.7853 -3.5
      vertex -0.75 -42.601 -3.5
      vertex -1.0037 -42.7853 -1
    endloop
  endfacet
  facet normal 0.406737 -0.913545 0
    outer loop
      vertex -0.463525 -42.4734 -3.5
      vertex -0.463525 -42.4734 -1
      vertex -0.75 -42.601 -1
    endloop
  endfacet
  facet normal 0.406737 -0.913545 0
    outer loop
      vertex -0.75 -42.601 -3.5
      vertex -0.463525 -42.4734 -3.5
      vertex -0.75 -42.601 -1
    endloop
  endfacet
  facet normal 0.207912 -0.978148 0
    outer loop
      vertex -0.156793 -42.4082 -3.5
      vertex -0.156793 -42.4082 -1
      vertex -0.463525 -42.4734 -1
    endloop
  endfacet
  facet normal 0.207912 -0.978148 0
    outer loop
      vertex -0.463525 -42.4734 -3.5
      vertex -0.156793 -42.4082 -3.5
      vertex -0.463525 -42.4734 -1
    endloop
  endfacet
  facet normal 0 -1 0
    outer loop
      vertex 0.156793 -42.4082 -3.5
      vertex 0.156793 -42.4082 -1
      vertex -0.156793 -42.4082 -1
    endloop
  endfacet
  facet normal 0 -1 0
    outer loop
      vertex -0.156793 -42.4082 -3.5
      vertex 0.156793 -42.4082 -3.5
      vertex -0.156793 -42.4082 -1
    endloop
  endfacet
  facet normal -0.207912 -0.978148 0
    outer loop
      vertex 0.463525 -42.4734 -3.5
      vertex 0.463525 -42.4734 -1
      vertex 0.156793 -42.4082 -1
    endloop
  endfacet
  facet normal -0.207912 -0.978148 0
    outer loop
      vertex 0.156793 -42.4082 -3.5
      vertex 0.463525 -42.4734 -3.5
      vertex 0.156793 -42.4082 -1
    endloop
  endfacet
  facet normal -0.406737 -0.913545 0
    outer loop
      vertex 0.75 -42.601 -3.5
      vertex 0.75 -42.601 -1
      vertex 0.463525 -42.4734 -1
    endloop
  endfacet
  facet normal -0.406737 -0.913545 0
    outer loop
      vertex 0.463525 -42.4734 -3.5
      vertex 0.75 -42.601 -3.5
      vertex 0.463525 -42.4734 -1
    endloop
  endfacet
  facet normal -0.587785 -0.809017 0
    outer loop
      vertex 1.0037 -42.7853 -3.5
      vertex 1.0037 -42.7853 -1
      vertex 0.75 -42.601 -1
    endloop
  endfacet
  facet normal -0.587785 -0.809017 0
    outer loop
      vertex 0.75 -42.601 -3.5
      vertex 1.0037 -42.7853 -3.5
      vertex 0.75 -42.601 -1
    endloop
  endfacet
  facet normal -0.743145 -0.66913 0
    outer loop
      vertex 1.21352 -43.0183 -1
      vertex 1.0037 -42.7853 -1
      vertex 1.21352 -43.0183 -3.5
    endloop
  endfacet
  facet normal -0.743145 -0.66913 0
    outer loop
      vertex 1.21352 -43.0183 -3.5
      vertex 1.0037 -42.7853 -1
      vertex 1.0037 -42.7853 -3.5
    endloop
  endfacet
  facet normal -0.866025 -0.500001 0
    outer loop
      vertex 1.37032 -43.2899 -1
      vertex 1.21352 -43.0183 -1
      vertex 1.37032 -43.2899 -3.5
    endloop
  endfacet
  facet normal -0.866025 -0.500001 0
    outer loop
      vertex 1.37032 -43.2899 -3.5
      vertex 1.21352 -43.0183 -1
      vertex 1.21352 -43.0183 -3.5
    endloop
  endfacet
  facet normal -0.951057 -0.309017 0
    outer loop
      vertex 1.46722 -43.5881 -1
      vertex 1.37032 -43.2899 -1
      vertex 1.46722 -43.5881 -3.5
    endloop
  endfacet
  facet normal -0.951057 -0.309017 0
    outer loop
      vertex 1.46722 -43.5881 -3.5
      vertex 1.37032 -43.2899 -1
      vertex 1.37032 -43.2899 -3.5
    endloop
  endfacet
  facet normal -0.994522 -0.10453 0
    outer loop
      vertex 1.5 -43.9 -1
      vertex 1.46722 -43.5881 -1
      vertex 1.5 -43.9 -3.5
    endloop
  endfacet
  facet normal -0.994522 -0.10453 0
    outer loop
      vertex 1.5 -43.9 -3.5
      vertex 1.46722 -43.5881 -1
      vertex 1.46722 -43.5881 -3.5
    endloop
  endfacet
  facet normal -0.994522 0.10453 0
    outer loop
      vertex 1.5 -43.9 -1
      vertex 1.5 -43.9 -3.5
      vertex 1.46722 -44.2119 -1
    endloop
  endfacet
  facet normal -0.994522 0.10453 0
    outer loop
      vertex 1.46722 -44.2119 -1
      vertex 1.5 -43.9 -3.5
      vertex 1.46722 -44.2119 -3.5
    endloop
  endfacet
  facet normal -0.951057 0.309017 0
    outer loop
      vertex 1.46722 -44.2119 -1
      vertex 1.46722 -44.2119 -3.5
      vertex 1.37032 -44.5101 -1
    endloop
  endfacet
  facet normal -0.951057 0.309017 0
    outer loop
      vertex 1.37032 -44.5101 -1
      vertex 1.46722 -44.2119 -3.5
      vertex 1.37032 -44.5101 -3.5
    endloop
  endfacet
  facet normal -0.866025 0.500001 0
    outer loop
      vertex 1.37032 -44.5101 -1
      vertex 1.37032 -44.5101 -3.5
      vertex 1.21352 -44.7817 -1
    endloop
  endfacet
  facet normal -0.866025 0.500001 0
    outer loop
      vertex 1.21352 -44.7817 -1
      vertex 1.37032 -44.5101 -3.5
      vertex 1.21352 -44.7817 -3.5
    endloop
  endfacet
  facet normal -0.743145 0.66913 0
    outer loop
      vertex 1.21352 -44.7817 -1
      vertex 1.21352 -44.7817 -3.5
      vertex 1.0037 -45.0147 -1
    endloop
  endfacet
  facet normal -0.743145 0.66913 0
    outer loop
      vertex 1.0037 -45.0147 -1
      vertex 1.21352 -44.7817 -3.5
      vertex 1.0037 -45.0147 -3.5
    endloop
  endfacet
  facet normal -0.587785 0.809017 0
    outer loop
      vertex 1.0037 -45.0147 -1
      vertex 1.0037 -45.0147 -3.5
      vertex 0.75 -45.199 -1
    endloop
  endfacet
  facet normal -0.587785 0.809017 0
    outer loop
      vertex 0.75 -45.199 -1
      vertex 1.0037 -45.0147 -3.5
      vertex 0.75 -45.199 -3.5
    endloop
  endfacet
  facet normal -0.406737 0.913545 0
    outer loop
      vertex 0.75 -45.199 -1
      vertex 0.75 -45.199 -3.5
      vertex 0.463525 -45.3266 -1
    endloop
  endfacet
  facet normal -0.406737 0.913545 0
    outer loop
      vertex 0.463525 -45.3266 -1
      vertex 0.75 -45.199 -3.5
      vertex 0.463525 -45.3266 -3.5
    endloop
  endfacet
  facet normal -0.207912 0.978148 0
    outer loop
      vertex 0.463525 -45.3266 -1
      vertex 0.463525 -45.3266 -3.5
      vertex 0.156793 -45.3918 -1
    endloop
  endfacet
  facet normal -0.207912 0.978148 0
    outer loop
      vertex 0.156793 -45.3918 -1
      vertex 0.463525 -45.3266 -3.5
      vertex 0.156793 -45.3918 -3.5
    endloop
  endfacet
  facet normal 0 1 0
    outer loop
      vertex 0.156793 -45.3918 -1
      vertex 0.156793 -45.3918 -3.5
      vertex -0.156793 -45.3918 -1
    endloop
  endfacet
  facet normal 0 1 0
    outer loop
      vertex -0.156793 -45.3918 -1
      vertex 0.156793 -45.3918 -3.5
      vertex -0.156793 -45.3918 -3.5
    endloop
  endfacet
  facet normal 0.207912 0.978148 0
    outer loop
      vertex -0.156793 -45.3918 -1
      vertex -0.156793 -45.3918 -3.5
      vertex -0.463525 -45.3266 -1
    endloop
  endfacet
  facet normal 0.207912 0.978148 0
    outer loop
      vertex -0.463525 -45.3266 -1
      vertex -0.156793 -45.3918 -3.5
      vertex -0.463525 -45.3266 -3.5
    endloop
  endfacet
  facet normal 0.406737 0.913545 0
    outer loop
      vertex -0.463525 -45.3266 -1
      vertex -0.463525 -45.3266 -3.5
      vertex -0.75 -45.199 -1
    endloop
  endfacet
  facet normal 0.406737 0.913545 0
    outer loop
      vertex -0.75 -45.199 -1
      vertex -0.463525 -45.3266 -3.5
      vertex -0.75 -45.199 -3.5
    endloop
  endfacet
  facet normal 0.587785 0.809017 0
    outer loop
      vertex -0.75 -45.199 -1
      vertex -0.75 -45.199 -3.5
      vertex -1.0037 -45.0147 -1
    endloop
  endfacet
  facet normal 0.587785 0.809017 0
    outer loop
      vertex -1.0037 -45.0147 -1
      vertex -0.75 -45.199 -3.5
      vertex -1.0037 -45.0147 -3.5
    endloop
  endfacet
  facet normal 0.743145 0.66913 0
    outer loop
      vertex -1.21352 -44.7817 -1
      vertex -1.0037 -45.0147 -1
      vertex -1.0037 -45.0147 -3.5
    endloop
  endfacet
  facet normal 0.743145 0.66913 0
    outer loop
      vertex -1.21352 -44.7817 -3.5
      vertex -1.21352 -44.7817 -1
      vertex -1.0037 -45.0147 -3.5
    endloop
  endfacet
  facet normal 0.866025 0.500001 0
    outer loop
      vertex -1.37032 -44.5101 -1
      vertex -1.21352 -44.7817 -1
      vertex -1.21352 -44.7817 -3.5
    endloop
  endfacet
  facet normal 0.866025 0.500001 0
    outer loop
      vertex -1.37032 -44.5101 -3.5
      vertex -1.37032 -44.5101 -1
      vertex -1.21352 -44.7817 -3.5
    endloop
  endfacet
  facet normal 0.951057 0.309017 0
    outer loop
      vertex -1.46722 -44.2119 -1
      vertex -1.37032 -44.5101 -1
      vertex -1.37032 -44.5101 -3.5
    endloop
  endfacet
  facet normal 0.951057 0.309017 0
    outer loop
      vertex -1.46722 -44.2119 -3.5
      vertex -1.46722 -44.2119 -1
      vertex -1.37032 -44.5101 -3.5
    endloop
  endfacet
  facet normal 0.654654 2.24876e-17 -0.755929
    outer loop
      vertex 9.24446e-32 36.4 0.875
      vertex -5.55112e-16 33.9 0.875
      vertex -3.2476 36.4 -1.9375
    endloop
  endfacet
  facet normal 0.654654 2.24876e-17 -0.755929
    outer loop
      vertex -3.2476 36.4 -1.9375
      vertex -5.55112e-16 33.9 0.875
      vertex -1.58771 33.9 -0.5
    endloop
  endfacet
  facet normal 0.654654 2.24876e-17 -0.755929
    outer loop
      vertex -3.2476 36.4 -1.9375
      vertex -1.58771 33.9 -0.5
      vertex -1.58771 31.4 -0.5
    endloop
  endfacet
  facet normal 0.654654 2.24876e-17 -0.755929
    outer loop
      vertex -3.2476 36.4 -1.9375
      vertex -1.58771 31.4 -0.5
      vertex -3.2476 31.4 -1.9375
    endloop
  endfacet
  facet normal -0.654654 3.13212e-16 -0.755929
    outer loop
      vertex 3.2476 36.4 -1.9375
      vertex 3.24759 31.4 -1.9375
      vertex 9.24446e-32 36.4 0.875
    endloop
  endfacet
  facet normal -0.654654 3.13212e-16 -0.755929
    outer loop
      vertex 1.58771 33.9 -0.5
      vertex 3.24759 31.4 -1.9375
      vertex 1.58771 31.4 -0.5
    endloop
  endfacet
  facet normal -0.654654 3.13212e-16 -0.755929
    outer loop
      vertex 9.24446e-32 36.4 0.875
      vertex 3.24759 31.4 -1.9375
      vertex 1.58771 33.9 -0.5
    endloop
  endfacet
  facet normal -0.654654 3.13212e-16 -0.755929
    outer loop
      vertex -5.55112e-16 33.9 0.875
      vertex 9.24446e-32 36.4 0.875
      vertex 1.58771 33.9 -0.5
    endloop
  endfacet
  facet normal -4.93038e-32 -2.22045e-16 1
    outer loop
      vertex 3.24759 31.4 -1.9375
      vertex 3.2476 36.4 -1.9375
      vertex -3.2476 36.4 -1.9375
    endloop
  endfacet
  facet normal -4.93038e-32 -2.22045e-16 1
    outer loop
      vertex -3.2476 31.4 -1.9375
      vertex 3.24759 31.4 -1.9375
      vertex -3.2476 36.4 -1.9375
    endloop
  endfacet
  facet normal -0.20791 2.17192e-16 0.978148
    outer loop
      vertex -81.0867 36.2367 0.94606
      vertex -80.7672 -35.9172 1.01397
      vertex -80.7672 35.9172 1.01397
    endloop
  endfacet
  facet normal -0.20791 2.17192e-16 0.978148
    outer loop
      vertex -81.0867 -36.2367 0.94606
      vertex -80.7672 -35.9172 1.01397
      vertex -81.0867 36.2367 0.94606
    endloop
  endfacet
  facet normal 0.406736 2.02848e-16 0.913546
    outer loop
      vertex 80.4688 35.6188 1.14683
      vertex 80.7672 -35.9172 1.01397
      vertex 80.7672 35.9172 1.01397
    endloop
  endfacet
  facet normal 0.406736 2.02848e-16 0.913546
    outer loop
      vertex 80.4688 -35.6188 1.14684
      vertex 80.7672 -35.9172 1.01397
      vertex 80.4688 35.6188 1.14683
    endloop
  endfacet
  facet normal -1.12534e-16 0.406736 0.913546
    outer loop
      vertex -80.7672 35.9172 1.01397
      vertex -80.4688 35.6188 1.14683
      vertex 80.4687 35.6187 1.14684
    endloop
  endfacet
  facet normal -1.12534e-16 0.406736 0.913546
    outer loop
      vertex 80.7672 35.9172 1.01397
      vertex -80.7672 35.9172 1.01397
      vertex 80.4688 35.6188 1.14683
    endloop
  endfacet
  facet normal -1.12534e-16 0.406736 0.913546
    outer loop
      vertex 80.4688 35.6188 1.14683
      vertex -80.7672 35.9172 1.01397
      vertex 80.4687 35.6187 1.14684
    endloop
  endfacet
  facet normal -2.93161e-16 -0.406736 0.913546
    outer loop
      vertex 80.7672 -35.9172 1.01397
      vertex 80.4688 -35.6188 1.14684
      vertex -80.4688 -35.6187 1.14683
    endloop
  endfacet
  facet normal -2.93161e-16 -0.406736 0.913546
    outer loop
      vertex -80.4688 -35.6187 1.14683
      vertex 80.4688 -35.6188 1.14684
      vertex 80.4687 -35.6188 1.14684
    endloop
  endfacet
  facet normal -2.93161e-16 -0.406736 0.913546
    outer loop
      vertex 80.7672 -35.9172 1.01397
      vertex -80.4688 -35.6187 1.14683
      vertex -80.7672 -35.9172 1.01397
    endloop
  endfacet
  facet normal 1 0 0
    outer loop
      vertex -78.75 33.9 -0.5
      vertex -78.75 0 0.875
      vertex -78.75 1.58771 -0.5
    endloop
  endfacet
  facet normal 1 0 0
    outer loop
      vertex -78.75 33.9 3.5
      vertex -78.75 0 0.875
      vertex -78.75 33.9 -0.5
    endloop
  endfacet
  facet normal 1 0 0
    outer loop
      vertex -78.75 -1.58771 -0.5
      vertex -78.75 0 0.875
      vertex -78.75 -33.9 3.5
    endloop
  endfacet
  facet normal 1 0 0
    outer loop
      vertex -78.75 -33.9 3.5
      vertex -78.75 0 0.875
      vertex -78.75 33.9 3.5
    endloop
  endfacet
  facet normal 1 0 0
    outer loop
      vertex -78.75 -33.9 -0.5
      vertex -78.75 -1.58771 -0.5
      vertex -78.75 -33.9 3.5
    endloop
  endfacet
  facet normal 0 0 1
    outer loop
      vertex 78.75 -1.58771 -0.5
      vertex -1.58771 -31.4 -0.5
      vertex 1.58771 -31.4 -0.5
    endloop
  endfacet
  facet normal 0 0 1
    outer loop
      vertex 76.25 -1.58771 -0.5
      vertex 76.25 1.58771 -0.5
      vertex -1.58771 -31.4 -0.5
    endloop
  endfacet
  facet normal 0 0 1
    outer loop
      vertex -1.58771 -33.9 -0.5
      vertex -1.58771 -31.4 -0.5
      vertex -78.75 33.9 -0.5
    endloop
  endfacet
  facet normal 0 0 1
    outer loop
      vertex 1.58771 -33.9 -0.5
      vertex 78.75 -33.9 -0.5
      vertex 1.58771 -31.4 -0.5
    endloop
  endfacet
  facet normal 0 0 1
    outer loop
      vertex 78.75 -33.9 -0.5
      vertex 78.75 -1.58771 -0.5
      vertex 1.58771 -31.4 -0.5
    endloop
  endfacet
  facet normal 0 0 1
    outer loop
      vertex 78.75 -1.58771 -0.5
      vertex 76.25 -1.58771 -0.5
      vertex -1.58771 -31.4 -0.5
    endloop
  endfacet
  facet normal 0 0 1
    outer loop
      vertex 76.25 1.58771 -0.5
      vertex 78.75 33.9 -0.5
      vertex -1.58771 -31.4 -0.5
    endloop
  endfacet
  facet normal 0 0 1
    outer loop
      vertex -1.58771 31.4 -0.5
      vertex -1.58771 33.9 -0.5
      vertex -1.58771 -31.4 -0.5
    endloop
  endfacet
  facet normal 0 0 1
    outer loop
      vertex 78.75 1.58771 -0.5
      vertex 78.75 33.9 -0.5
      vertex 76.25 1.58771 -0.5
    endloop
  endfacet
  facet normal 0 0 1
    outer loop
      vertex -76.25 1.58771 -0.5
      vertex -76.25 -1.58771 -0.5
      vertex -1.58771 -33.9 -0.5
    endloop
  endfacet
  facet normal 0 0 1
    outer loop
      vertex 78.75 33.9 -0.5
      vertex 1.58771 31.4 -0.5
      vertex -1.58771 -31.4 -0.5
    endloop
  endfacet
  facet normal 0 0 1
    outer loop
      vertex 78.75 33.9 -0.5
      vertex 1.58771 33.9 -0.5
      vertex 1.58771 31.4 -0.5
    endloop
  endfacet
  facet normal 0 0 1
    outer loop
      vertex -76.25 -1.58771 -0.5
      vertex -78.75 -1.58771 -0.5
      vertex -1.58771 -33.9 -0.5
    endloop
  endfacet
  facet normal 0 0 1
    outer loop
      vertex -1.58771 33.9 -0.5
      vertex -78.75 33.9 -0.5
      vertex -1.58771 -31.4 -0.5
    endloop
  endfacet
  facet normal 0 0 1
    outer loop
      vertex -78.75 33.9 -0.5
      vertex -76.25 1.58771 -0.5
      vertex -1.58771 -33.9 -0.5
    endloop
  endfacet
  facet normal 0 0 1
    outer loop
      vertex -78.75 33.9 -0.5
      vertex -78.75 1.58771 -0.5
      vertex -76.25 1.58771 -0.5
    endloop
  endfacet
  facet normal 0 0 1
    outer loop
      vertex -78.75 -1.58771 -0.5
      vertex -78.75 -33.9 -0.5
      vertex -1.58771 -33.9 -0.5
    endloop
  endfacet
  facet normal 0 0 1
    outer loop
      vertex 1.58771 31.4 -0.5
      vertex -1.58771 31.4 -0.5
      vertex -1.58771 -31.4 -0.5
    endloop
  endfacet
  facet normal -1 0 -2.22045e-16
    outer loop
      vertex -76.25 3.2476 -1.9375
      vertex -76.25 -3.2476 -1.9375
      vertex -76.25 1.58771 -0.5
    endloop
  endfacet
  facet normal -1 0 -2.22045e-16
    outer loop
      vertex -76.25 1.58771 -0.5
      vertex -76.25 -3.2476 -1.9375
      vertex -76.25 -1.58771 -0.5
    endloop
  endfacet
  facet normal -2.22045e-16 0 1
    outer loop
      vertex 81.25 -3.2476 -1.9375
      vertex 81.25 3.2476 -1.9375
      vertex 76.25 3.2476 -1.9375
    endloop
  endfacet
  facet normal -2.22045e-16 0 1
    outer loop
      vertex 76.25 -3.2476 -1.9375
      vertex 81.25 -3.2476 -1.9375
      vertex 76.25 3.2476 -1.9375
    endloop
  endfacet
  facet normal 1.6785e-16 0.654654 -0.755929
    outer loop
      vertex 78.75 0 0.875
      vertex 81.25 0 0.875
      vertex 78.75 -1.58771 -0.5
    endloop
  endfacet
  facet normal 1.6785e-16 0.654654 -0.755929
    outer loop
      vertex 78.75 -1.58771 -0.5
      vertex 81.25 0 0.875
      vertex 81.25 -3.2476 -1.9375
    endloop
  endfacet
  facet normal 1.6785e-16 0.654654 -0.755929
    outer loop
      vertex 78.75 -1.58771 -0.5
      vertex 81.25 -3.2476 -1.9375
      vertex 76.25 -3.2476 -1.9375
    endloop
  endfacet
  facet normal 1.6785e-16 0.654654 -0.755929
    outer loop
      vertex 78.75 -1.58771 -0.5
      vertex 76.25 -3.2476 -1.9375
      vertex 76.25 -1.58771 -0.5
    endloop
  endfacet
  facet normal 1.6785e-16 -0.654654 -0.755929
    outer loop
      vertex 81.25 3.2476 -1.9375
      vertex 81.25 0 0.875
      vertex 76.25 3.2476 -1.9375
    endloop
  endfacet
  facet normal 1.6785e-16 -0.654654 -0.755929
    outer loop
      vertex 78.75 1.58771 -0.5
      vertex 81.25 0 0.875
      vertex 78.75 0 0.875
    endloop
  endfacet
  facet normal 1.6785e-16 -0.654654 -0.755929
    outer loop
      vertex 76.25 3.2476 -1.9375
      vertex 81.25 0 0.875
      vertex 78.75 1.58771 -0.5
    endloop
  endfacet
  facet normal 1.6785e-16 -0.654654 -0.755929
    outer loop
      vertex 76.25 1.58771 -0.5
      vertex 76.25 3.2476 -1.9375
      vertex 78.75 1.58771 -0.5
    endloop
  endfacet
  facet normal -4.93038e-32 -2.22045e-16 1
    outer loop
      vertex 3.2476 -36.4 -1.9375
      vertex 3.2476 -31.4 -1.9375
      vertex -3.24759 -31.4 -1.9375
    endloop
  endfacet
  facet normal -4.93038e-32 -2.22045e-16 1
    outer loop
      vertex -3.2476 -36.4 -1.9375
      vertex 3.2476 -36.4 -1.9375
      vertex -3.24759 -31.4 -1.9375
    endloop
  endfacet
  facet normal 0 1 0
    outer loop
      vertex 78.75 -33.9 3.5
      vertex 78.75 -33.9 -0.5
      vertex -78.75 -33.9 3.5
    endloop
  endfacet
  facet normal 0 1 0
    outer loop
      vertex 5.55112e-16 -33.9 0.875
      vertex 78.75 -33.9 -0.5
      vertex 1.58771 -33.9 -0.5
    endloop
  endfacet
  facet normal 0 1 0
    outer loop
      vertex -78.75 -33.9 3.5
      vertex 78.75 -33.9 -0.5
      vertex 5.55112e-16 -33.9 0.875
    endloop
  endfacet
  facet normal 0 1 0
    outer loop
      vertex -78.75 -33.9 3.5
      vertex -1.58771 -33.9 -0.5
      vertex -78.75 -33.9 -0.5
    endloop
  endfacet
  facet normal 0 1 0
    outer loop
      vertex -1.58771 -33.9 -0.5
      vertex -78.75 -33.9 3.5
      vertex 5.55112e-16 -33.9 0.875
    endloop
  endfacet
  facet normal -2.22045e-16 -1 -2.22045e-16
    outer loop
      vertex 3.2476 -31.4 -1.9375
      vertex 1.58771 -31.4 -0.5
      vertex -1.58771 -31.4 -0.5
    endloop
  endfacet
  facet normal -2.22045e-16 -1 -2.22045e-16
    outer loop
      vertex -3.24759 -31.4 -1.9375
      vertex 3.2476 -31.4 -1.9375
      vertex -1.58771 -31.4 -0.5
    endloop
  endfacet
  facet normal 2.22045e-16 1 2.22045e-16
    outer loop
      vertex 1.58771 31.4 -0.5
      vertex 3.24759 31.4 -1.9375
      vertex -1.58771 31.4 -0.5
    endloop
  endfacet
  facet normal 2.22045e-16 1 2.22045e-16
    outer loop
      vertex -1.58771 31.4 -0.5
      vertex 3.24759 31.4 -1.9375
      vertex -3.2476 31.4 -1.9375
    endloop
  endfacet
  facet normal 0 -1 0
    outer loop
      vertex 78.75 33.9 -0.5
      vertex -5.55112e-16 33.9 0.875
      vertex 1.58771 33.9 -0.5
    endloop
  endfacet
  facet normal 0 -1 0
    outer loop
      vertex 78.75 33.9 3.5
      vertex -5.55112e-16 33.9 0.875
      vertex 78.75 33.9 -0.5
    endloop
  endfacet
  facet normal 0 -1 0
    outer loop
      vertex -1.58771 33.9 -0.5
      vertex -5.55112e-16 33.9 0.875
      vertex -78.75 33.9 3.5
    endloop
  endfacet
  facet normal 0 -1 0
    outer loop
      vertex -78.75 33.9 3.5
      vertex -5.55112e-16 33.9 0.875
      vertex 78.75 33.9 3.5
    endloop
  endfacet
  facet normal 0 -1 0
    outer loop
      vertex -78.75 33.9 -0.5
      vertex -1.58771 33.9 -0.5
      vertex -78.75 33.9 3.5
    endloop
  endfacet
  facet normal -0.406736 2.02848e-16 0.913546
    outer loop
      vertex -80.4688 -35.6187 1.14683
      vertex -80.4688 -35.6187 1.14684
      vertex -80.4688 35.6187 1.14683
    endloop
  endfacet
  facet normal -0.406736 2.02848e-16 0.913546
    outer loop
      vertex -80.7672 35.9172 1.01397
      vertex -80.4688 -35.6187 1.14683
      vertex -80.4688 35.6188 1.14683
    endloop
  endfacet
  facet normal -0.406736 2.02848e-16 0.913546
    outer loop
      vertex -80.4688 35.6188 1.14683
      vertex -80.4688 -35.6187 1.14683
      vertex -80.4688 35.6187 1.14683
    endloop
  endfacet
  facet normal -0.406736 2.02848e-16 0.913546
    outer loop
      vertex -80.7672 -35.9172 1.01397
      vertex -80.4688 -35.6187 1.14683
      vertex -80.7672 35.9172 1.01397
    endloop
  endfacet
  facet normal 0.587785 1.79638e-16 0.809017
    outer loop
      vertex 80.4687 -35.6188 1.14684
      vertex 80.4688 -35.6188 1.14684
      vertex 80.4688 35.6188 1.14683
    endloop
  endfacet
  facet normal 0.587785 1.79638e-16 0.809017
    outer loop
      vertex 80.2045 35.3545 1.33884
      vertex 80.4687 -35.6188 1.14684
      vertex 80.4687 35.6187 1.14684
    endloop
  endfacet
  facet normal 0.587785 1.79638e-16 0.809017
    outer loop
      vertex 80.4687 35.6187 1.14684
      vertex 80.4687 -35.6188 1.14684
      vertex 80.4688 35.6188 1.14683
    endloop
  endfacet
  facet normal 0.587785 1.79638e-16 0.809017
    outer loop
      vertex 80.2045 -35.3545 1.33884
      vertex 80.4687 -35.6188 1.14684
      vertex 80.2045 35.3545 1.33884
    endloop
  endfacet
  facet normal -4.91235e-17 0.587785 0.809017
    outer loop
      vertex -80.4688 35.6187 1.14683
      vertex -80.2045 35.3545 1.33884
      vertex 80.2045 35.3545 1.33884
    endloop
  endfacet
  facet normal -4.91235e-17 0.587785 0.809017
    outer loop
      vertex 80.4687 35.6187 1.14684
      vertex -80.4688 35.6187 1.14683
      vertex 80.2045 35.3545 1.33884
    endloop
  endfacet
  facet normal -4.91235e-17 0.587785 0.809017
    outer loop
      vertex -80.4688 35.6188 1.14683
      vertex -80.4688 35.6187 1.14683
      vertex 80.4687 35.6187 1.14684
    endloop
  endfacet
  facet normal -3.10152e-16 -0.587785 0.809017
    outer loop
      vertex 80.4687 -35.6188 1.14684
      vertex 80.2045 -35.3545 1.33884
      vertex -80.2045 -35.3545 1.33884
    endloop
  endfacet
  facet normal -3.10152e-16 -0.587785 0.809017
    outer loop
      vertex 80.4687 -35.6188 1.14684
      vertex -80.4688 -35.6187 1.14684
      vertex -80.4688 -35.6187 1.14683
    endloop
  endfacet
  facet normal -3.10152e-16 -0.587785 0.809017
    outer loop
      vertex 80.4687 -35.6188 1.14684
      vertex -80.2045 -35.3545 1.33884
      vertex -80.4688 -35.6187 1.14684
    endloop
  endfacet
  facet normal 0 0 1
    outer loop
      vertex -78.75 -33.9 3.5
      vertex -80.0594 35.2094 3.5
      vertex -80.0594 -35.2094 3.5
    endloop
  endfacet
  facet normal 0 0 1
    outer loop
      vertex -78.75 33.9 3.5
      vertex 78.75 33.9 3.5
      vertex 80.0594 35.2094 3.5
    endloop
  endfacet
  facet normal 0 0 1
    outer loop
      vertex -78.75 33.9 3.5
      vertex -80.0594 35.2094 3.5
      vertex -78.75 -33.9 3.5
    endloop
  endfacet
  facet normal 0 0 1
    outer loop
      vertex 80.0594 35.2094 3.5
      vertex -80.0594 35.2094 3.5
      vertex -78.75 33.9 3.5
    endloop
  endfacet
  facet normal 0 0 1
    outer loop
      vertex 80.0594 -35.2094 3.5
      vertex 80.0594 35.2094 3.5
      vertex 78.75 33.9 3.5
    endloop
  endfacet
  facet normal 0 0 1
    outer loop
      vertex 80.0594 -35.2094 3.5
      vertex 78.75 -33.9 3.5
      vertex -80.0594 -35.2094 3.5
    endloop
  endfacet
  facet normal 0 0 1
    outer loop
      vertex 80.0594 -35.2094 3.5
      vertex 78.75 33.9 3.5
      vertex 78.75 -33.9 3.5
    endloop
  endfacet
  facet normal 0 0 1
    outer loop
      vertex 78.75 -33.9 3.5
      vertex -78.75 -33.9 3.5
      vertex -80.0594 -35.2094 3.5
    endloop
  endfacet
  facet normal -1 0 0
    outer loop
      vertex 78.75 33.9 3.5
      vertex 78.75 33.9 -0.5
      vertex 78.75 -33.9 3.5
    endloop
  endfacet
  facet normal -1 0 0
    outer loop
      vertex 78.75 0 0.875
      vertex 78.75 33.9 -0.5
      vertex 78.75 1.58771 -0.5
    endloop
  endfacet
  facet normal -1 0 0
    outer loop
      vertex 78.75 -33.9 3.5
      vertex 78.75 33.9 -0.5
      vertex 78.75 0 0.875
    endloop
  endfacet
  facet normal -1 0 0
    outer loop
      vertex 78.75 -33.9 3.5
      vertex 78.75 -1.58771 -0.5
      vertex 78.75 -33.9 -0.5
    endloop
  endfacet
  facet normal -1 0 0
    outer loop
      vertex 78.75 -1.58771 -0.5
      vertex 78.75 -33.9 3.5
      vertex 78.75 0 0.875
    endloop
  endfacet
  facet normal 1 0 2.22045e-16
    outer loop
      vertex 76.25 -3.2476 -1.9375
      vertex 76.25 3.2476 -1.9375
      vertex 76.25 1.58771 -0.5
    endloop
  endfacet
  facet normal 1 0 2.22045e-16
    outer loop
      vertex 76.25 -1.58771 -0.5
      vertex 76.25 -3.2476 -1.9375
      vertex 76.25 1.58771 -0.5
    endloop
  endfacet
  facet normal -0.587785 1.79638e-16 0.809017
    outer loop
      vertex -80.4688 35.6187 1.14683
      vertex -80.2045 -35.3545 1.33884
      vertex -80.2045 35.3545 1.33884
    endloop
  endfacet
  facet normal -0.587785 1.79638e-16 0.809017
    outer loop
      vertex -80.4688 -35.6187 1.14684
      vertex -80.2045 -35.3545 1.33884
      vertex -80.4688 35.6187 1.14683
    endloop
  endfacet
  facet normal 0.743146 1.48576e-16 0.669129
    outer loop
      vertex 79.9859 35.1359 1.58159
      vertex 80.2045 -35.3545 1.33884
      vertex 80.2045 35.3545 1.33884
    endloop
  endfacet
  facet normal 0.743146 1.48576e-16 0.669129
    outer loop
      vertex 79.9859 -35.1359 1.58159
      vertex 80.2045 -35.3545 1.33884
      vertex 79.9859 35.1359 1.58159
    endloop
  endfacet
  facet normal 1.64352e-17 0.743146 0.669129
    outer loop
      vertex -79.9859 35.1359 1.58159
      vertex 79.9859 35.1359 1.58159
      vertex -80.2045 35.3545 1.33884
    endloop
  endfacet
  facet normal 1.64352e-17 0.743146 0.669129
    outer loop
      vertex -80.2045 35.3545 1.33884
      vertex 79.9859 35.1359 1.58159
      vertex 80.2045 35.3545 1.33884
    endloop
  endfacet
  facet normal -3.13588e-16 -0.743146 0.669129
    outer loop
      vertex 80.2045 -35.3545 1.33884
      vertex 79.9859 -35.1359 1.58159
      vertex -79.9859 -35.1359 1.58159
    endloop
  endfacet
  facet normal -3.13588e-16 -0.743146 0.669129
    outer loop
      vertex 80.2045 -35.3545 1.33884
      vertex -79.9859 -35.1359 1.58159
      vertex -80.2045 -35.3545 1.33884
    endloop
  endfacet
  facet normal 3.13588e-16 0.743146 -0.669129
    outer loop
      vertex 79.9859 35.1359 3.41841
      vertex -79.9859 35.1359 3.41841
      vertex 80.0594 35.2094 3.5
    endloop
  endfacet
  facet normal 3.13588e-16 0.743146 -0.669129
    outer loop
      vertex 80.0594 35.2094 3.5
      vertex -79.9859 35.1359 3.41841
      vertex -80.0594 35.2094 3.5
    endloop
  endfacet
  facet normal 0.743146 -1.48576e-16 -0.669129
    outer loop
      vertex 80.0594 -35.2094 3.5
      vertex 79.9859 35.1359 3.41841
      vertex 80.0594 35.2094 3.5
    endloop
  endfacet
  facet normal 0.743146 -1.48576e-16 -0.669129
    outer loop
      vertex 79.9859 35.1359 3.41841
      vertex 80.0594 -35.2094 3.5
      vertex 79.9859 -35.1359 3.41841
    endloop
  endfacet
  facet normal -1.64352e-17 -0.743146 -0.669129
    outer loop
      vertex -80.0594 -35.2094 3.5
      vertex -79.9859 -35.1359 3.41841
      vertex 80.0594 -35.2094 3.5
    endloop
  endfacet
  facet normal -1.64352e-17 -0.743146 -0.669129
    outer loop
      vertex 80.0594 -35.2094 3.5
      vertex -79.9859 -35.1359 3.41841
      vertex 79.9859 -35.1359 3.41841
    endloop
  endfacet
  facet normal -0.743146 -1.48576e-16 -0.669129
    outer loop
      vertex -79.9859 -35.1359 3.41841
      vertex -80.0594 -35.2094 3.5
      vertex -79.9859 35.1359 3.41841
    endloop
  endfacet
  facet normal -0.743146 -1.48576e-16 -0.669129
    outer loop
      vertex -79.9859 35.1359 3.41841
      vertex -80.0594 -35.2094 3.5
      vertex -80.0594 35.2094 3.5
    endloop
  endfacet
  facet normal -0.743146 1.48576e-16 0.669129
    outer loop
      vertex -79.9859 -35.1359 1.58159
      vertex -79.9859 35.1359 1.58159
      vertex -80.2045 35.3545 1.33884
    endloop
  endfacet
  facet normal -0.743146 1.48576e-16 0.669129
    outer loop
      vertex -79.9859 -35.1359 1.58159
      vertex -80.2045 35.3545 1.33884
      vertex -80.2045 -35.3545 1.33884
    endloop
  endfacet
  facet normal 0.866025 1.11023e-16 0.500001
    outer loop
      vertex 79.8226 34.9726 1.86447
      vertex 79.9859 -35.1359 1.58159
      vertex 79.9859 35.1359 1.58159
    endloop
  endfacet
  facet normal 0.866025 1.11023e-16 0.500001
    outer loop
      vertex 79.8226 -34.9726 1.86447
      vertex 79.9859 -35.1359 1.58159
      vertex 79.8226 34.9726 1.86447
    endloop
  endfacet
  facet normal 8.12735e-17 0.866025 0.500001
    outer loop
      vertex -79.8226 34.9726 1.86447
      vertex 79.8226 34.9726 1.86447
      vertex -79.9859 35.1359 1.58159
    endloop
  endfacet
  facet normal 8.12735e-17 0.866025 0.500001
    outer loop
      vertex -79.9859 35.1359 1.58159
      vertex 79.8226 34.9726 1.86447
      vertex 79.9859 35.1359 1.58159
    endloop
  endfacet
  facet normal -3.03319e-16 -0.866025 0.500001
    outer loop
      vertex 79.9859 -35.1359 1.58159
      vertex 79.8226 -34.9726 1.86447
      vertex -79.8226 -34.9726 1.86447
    endloop
  endfacet
  facet normal -3.03319e-16 -0.866025 0.500001
    outer loop
      vertex 79.9859 -35.1359 1.58159
      vertex -79.8226 -34.9726 1.86447
      vertex -79.9859 -35.1359 1.58159
    endloop
  endfacet
  facet normal -0.866025 -1.11023e-16 -0.500001
    outer loop
      vertex -79.9859 35.1359 3.41841
      vertex -79.8226 34.9726 3.13553
      vertex -79.8226 -34.9726 3.13553
    endloop
  endfacet
  facet normal -0.866025 -1.11023e-16 -0.500001
    outer loop
      vertex -79.8226 -34.9726 3.13553
      vertex -79.9859 -35.1359 3.41841
      vertex -79.9859 35.1359 3.41841
    endloop
  endfacet
  facet normal 3.03319e-16 0.866025 -0.500001
    outer loop
      vertex 79.9859 35.1359 3.41841
      vertex 79.8226 34.9726 3.13553
      vertex -79.8226 34.9726 3.13553
    endloop
  endfacet
  facet normal 3.03319e-16 0.866025 -0.500001
    outer loop
      vertex -79.8226 34.9726 3.13553
      vertex -79.9859 35.1359 3.41841
      vertex 79.9859 35.1359 3.41841
    endloop
  endfacet
  facet normal 0.866025 -1.11023e-16 -0.500001
    outer loop
      vertex 79.9859 -35.1359 3.41841
      vertex 79.8226 34.9726 3.13553
      vertex 79.9859 35.1359 3.41841
    endloop
  endfacet
  facet normal 0.866025 -1.11023e-16 -0.500001
    outer loop
      vertex 79.8226 34.9726 3.13553
      vertex 79.9859 -35.1359 3.41841
      vertex 79.8226 -34.9726 3.13553
    endloop
  endfacet
  facet normal -8.12735e-17 -0.866025 -0.500001
    outer loop
      vertex 79.9859 -35.1359 3.41841
      vertex -79.8226 -34.9726 3.13553
      vertex 79.8226 -34.9726 3.13553
    endloop
  endfacet
  facet normal -8.12735e-17 -0.866025 -0.500001
    outer loop
      vertex -79.9859 -35.1359 3.41841
      vertex -79.8226 -34.9726 3.13553
      vertex 79.9859 -35.1359 3.41841
    endloop
  endfacet
  facet normal -0.866025 1.11023e-16 0.500001
    outer loop
      vertex -79.8226 -34.9726 1.86447
      vertex -79.8226 34.9726 1.86447
      vertex -79.9859 35.1359 1.58159
    endloop
  endfacet
  facet normal -0.866025 1.11023e-16 0.500001
    outer loop
      vertex -79.8226 -34.9726 1.86447
      vertex -79.9859 35.1359 1.58159
      vertex -79.9859 -35.1359 1.58159
    endloop
  endfacet
  facet normal 0.951056 6.86156e-17 0.309017
    outer loop
      vertex 79.7216 34.8716 2.17514
      vertex 79.8226 -34.9726 1.86447
      vertex 79.8226 34.9726 1.86447
    endloop
  endfacet
  facet normal 0.951056 6.86156e-17 0.309017
    outer loop
      vertex 79.7216 -34.8716 2.17514
      vertex 79.8226 -34.9726 1.86447
      vertex 79.7216 34.8716 2.17514
    endloop
  endfacet
  facet normal 1.42561e-16 0.951056 0.309017
    outer loop
      vertex -79.7216 34.8716 2.17514
      vertex 79.7216 34.8716 2.17514
      vertex -79.8226 34.9726 1.86447
    endloop
  endfacet
  facet normal 1.42561e-16 0.951056 0.309017
    outer loop
      vertex -79.8226 34.9726 1.86447
      vertex 79.7216 34.8716 2.17514
      vertex 79.8226 34.9726 1.86447
    endloop
  endfacet
  facet normal -2.79793e-16 -0.951056 0.309017
    outer loop
      vertex 79.8226 -34.9726 1.86447
      vertex 79.7216 -34.8716 2.17514
      vertex -79.7216 -34.8716 2.17514
    endloop
  endfacet
  facet normal -2.79793e-16 -0.951056 0.309017
    outer loop
      vertex 79.8226 -34.9726 1.86447
      vertex -79.7216 -34.8716 2.17514
      vertex -79.8226 -34.9726 1.86447
    endloop
  endfacet
  facet normal -0.951056 -6.86156e-17 -0.309017
    outer loop
      vertex -79.8226 34.9726 3.13553
      vertex -79.7216 34.8716 2.82486
      vertex -79.7216 -34.8716 2.82486
    endloop
  endfacet
  facet normal -0.951056 -6.86156e-17 -0.309017
    outer loop
      vertex -79.7216 -34.8716 2.82486
      vertex -79.8226 -34.9726 3.13553
      vertex -79.8226 34.9726 3.13553
    endloop
  endfacet
  facet normal 2.79793e-16 0.951056 -0.309017
    outer loop
      vertex 79.8226 34.9726 3.13553
      vertex 79.7216 34.8716 2.82486
      vertex -79.7216 34.8716 2.82486
    endloop
  endfacet
  facet normal 2.79793e-16 0.951056 -0.309017
    outer loop
      vertex -79.7216 34.8716 2.82486
      vertex -79.8226 34.9726 3.13553
      vertex 79.8226 34.9726 3.13553
    endloop
  endfacet
  facet normal 0.951056 -6.86156e-17 -0.309017
    outer loop
      vertex 79.8226 -34.9726 3.13553
      vertex 79.7216 34.8716 2.82486
      vertex 79.8226 34.9726 3.13553
    endloop
  endfacet
  facet normal 0.951056 -6.86156e-17 -0.309017
    outer loop
      vertex 79.7216 34.8716 2.82486
      vertex 79.8226 -34.9726 3.13553
      vertex 79.7216 -34.8716 2.82486
    endloop
  endfacet
  facet normal -1.42561e-16 -0.951056 -0.309017
    outer loop
      vertex 79.8226 -34.9726 3.13553
      vertex -79.7216 -34.8716 2.82486
      vertex 79.7216 -34.8716 2.82486
    endloop
  endfacet
  facet normal -1.42561e-16 -0.951056 -0.309017
    outer loop
      vertex -79.8226 -34.9726 3.13553
      vertex -79.7216 -34.8716 2.82486
      vertex 79.8226 -34.9726 3.13553
    endloop
  endfacet
  facet normal -0.951056 6.86156e-17 0.309017
    outer loop
      vertex -79.7216 -34.8716 2.17514
      vertex -79.7216 34.8716 2.17514
      vertex -79.8226 34.9726 1.86447
    endloop
  endfacet
  facet normal -0.951056 6.86156e-17 0.309017
    outer loop
      vertex -79.7216 -34.8716 2.17514
      vertex -79.8226 34.9726 1.86447
      vertex -79.8226 -34.9726 1.86447
    endloop
  endfacet
  facet normal 0.994522 2.32097e-17 0.104527
    outer loop
      vertex 79.6875 34.8375 2.5
      vertex 79.7216 -34.8716 2.17514
      vertex 79.7216 34.8716 2.17514
    endloop
  endfacet
  facet normal 0.994522 2.32097e-17 0.104527
    outer loop
      vertex 79.6875 -34.8375 2.5
      vertex 79.7216 -34.8716 2.17514
      vertex 79.6875 34.8375 2.5
    endloop
  endfacet
  facet normal 1.97619e-16 0.994522 0.104527
    outer loop
      vertex -79.6875 34.8375 2.5
      vertex 79.6875 34.8375 2.5
      vertex -79.7216 34.8716 2.17514
    endloop
  endfacet
  facet normal 1.97619e-16 0.994522 0.104527
    outer loop
      vertex -79.7216 34.8716 2.17514
      vertex 79.6875 34.8375 2.5
      vertex 79.7216 34.8716 2.17514
    endloop
  endfacet
  facet normal -2.44038e-16 -0.994522 0.104527
    outer loop
      vertex 79.7216 -34.8716 2.17514
      vertex 79.6875 -34.8375 2.5
      vertex -79.6875 -34.8375 2.5
    endloop
  endfacet
  facet normal -2.44038e-16 -0.994522 0.104527
    outer loop
      vertex 79.7216 -34.8716 2.17514
      vertex -79.6875 -34.8375 2.5
      vertex -79.7216 -34.8716 2.17514
    endloop
  endfacet
  facet normal -0.994522 -2.32097e-17 -0.104527
    outer loop
      vertex -79.7216 34.8716 2.82486
      vertex -79.6875 34.8375 2.5
      vertex -79.6875 -34.8375 2.5
    endloop
  endfacet
  facet normal -0.994522 -2.32097e-17 -0.104527
    outer loop
      vertex -79.6875 -34.8375 2.5
      vertex -79.7216 -34.8716 2.82486
      vertex -79.7216 34.8716 2.82486
    endloop
  endfacet
  facet normal 2.44038e-16 0.994522 -0.104527
    outer loop
      vertex 79.7216 34.8716 2.82486
      vertex 79.6875 34.8375 2.5
      vertex -79.6875 34.8375 2.5
    endloop
  endfacet
  facet normal 2.44038e-16 0.994522 -0.104527
    outer loop
      vertex -79.6875 34.8375 2.5
      vertex -79.7216 34.8716 2.82486
      vertex 79.7216 34.8716 2.82486
    endloop
  endfacet
  facet normal 0.994522 -2.32097e-17 -0.104527
    outer loop
      vertex 79.7216 -34.8716 2.82486
      vertex 79.6875 34.8375 2.5
      vertex 79.7216 34.8716 2.82486
    endloop
  endfacet
  facet normal 0.994522 -2.32097e-17 -0.104527
    outer loop
      vertex 79.6875 34.8375 2.5
      vertex 79.7216 -34.8716 2.82486
      vertex 79.6875 -34.8375 2.5
    endloop
  endfacet
  facet normal -1.97619e-16 -0.994522 -0.104527
    outer loop
      vertex 79.7216 -34.8716 2.82486
      vertex -79.6875 -34.8375 2.5
      vertex 79.6875 -34.8375 2.5
    endloop
  endfacet
  facet normal -1.97619e-16 -0.994522 -0.104527
    outer loop
      vertex -79.7216 -34.8716 2.82486
      vertex -79.6875 -34.8375 2.5
      vertex 79.7216 -34.8716 2.82486
    endloop
  endfacet
  facet normal -0.994522 2.32097e-17 0.104527
    outer loop
      vertex -79.6875 -34.8375 2.5
      vertex -79.6875 34.8375 2.5
      vertex -79.7216 34.8716 2.17514
    endloop
  endfacet
  facet normal -0.994522 2.32097e-17 0.104527
    outer loop
      vertex -79.6875 -34.8375 2.5
      vertex -79.7216 34.8716 2.17514
      vertex -79.7216 -34.8716 2.17514
    endloop
  endfacet
endsolid OpenSCAD_Model
